<svg width="5696" height="83" viewBox="0 0 5696 83" fill="none" xmlns="http://www.w3.org/2000/svg">
<g clip-path="url(#clip0_2282_38)">
<mask id="mask0_2282_38" style="mask-type:luminance" maskUnits="userSpaceOnUse" x="3794" y="-1267" width="1902" height="1350">
<path d="M5695.83 -1267H3794.08V82.5801H5695.83V-1267Z" fill="#DDD1DB"/>
</mask>
<g mask="url(#mask0_2282_38)">
<path d="M5378.85 82.5801C5290.69 82.5801 5244.55 58.6933 5203.85 37.6143C5165.41 17.7143 5132.21 0.530273 5061.89 0.530273C4991.57 0.530273 4958.37 17.7183 4919.93 37.6143C4879.22 58.6893 4833.09 82.5801 4744.93 82.5801C4656.77 82.5801 4610.63 58.6933 4569.93 37.6143C4531.49 17.7143 4498.29 0.530273 4427.98 0.530273C4357.67 0.530273 4324.47 17.7183 4286.04 37.6143C4245.33 58.6893 4199.2 82.5801 4111.04 82.5801C4022.87 82.5801 3976.74 58.6933 3936.04 37.6143C3897.6 17.7143 3864.41 0.530273 3794.09 0.530273V-1267.01C3882.25 -1267.01 3928.39 -1243.12 3969.09 -1222.04C4007.52 -1202.14 4040.72 -1184.96 4111.04 -1184.96C4181.35 -1184.96 4214.55 -1202.15 4252.98 -1222.04C4293.68 -1243.12 4339.82 -1267.01 4427.98 -1267.01C4516.15 -1267.01 4562.28 -1243.12 4602.98 -1222.04C4641.42 -1202.14 4674.62 -1184.96 4744.93 -1184.96C4815.25 -1184.96 4848.45 -1202.15 4886.89 -1222.04C4927.59 -1243.12 4973.73 -1267.01 5061.89 -1267.01C5150.05 -1267.01 5196.19 -1243.12 5236.89 -1222.04C5275.33 -1202.14 5308.53 -1184.96 5378.85 -1184.96C5449.17 -1184.96 5482.37 -1202.15 5520.81 -1222.04C5561.52 -1243.12 5607.66 -1267.01 5695.81 -1267.01V0.530273C5625.49 0.530273 5592.29 17.7183 5553.85 37.6143C5513.14 58.6893 5467 82.5801 5378.85 82.5801" fill="#DDD1DB"/>
</g>
<mask id="mask1_2282_38" style="mask-type:luminance" maskUnits="userSpaceOnUse" x="1895" y="-1267" width="1903" height="1350">
<path d="M3797.42 -1267H1895.67V82.5801H3797.42V-1267Z" fill="#DDD1DB"/>
</mask>
<g mask="url(#mask1_2282_38)">
<path d="M3480.44 82.5801C3392.28 82.5801 3346.14 58.6933 3305.44 37.6143C3267 17.7143 3233.8 0.530273 3163.48 0.530273C3093.16 0.530273 3059.96 17.7183 3021.52 37.6143C2980.81 58.6893 2934.68 82.5801 2846.52 82.5801C2758.36 82.5801 2712.22 58.6933 2671.52 37.6143C2633.08 17.7143 2599.88 0.530273 2529.57 0.530273C2459.26 0.530273 2426.06 17.7183 2387.63 37.6143C2346.92 58.6893 2300.79 82.5801 2212.63 82.5801C2124.46 82.5801 2078.33 58.6933 2037.63 37.6143C1999.19 17.7143 1966 0.530273 1895.68 0.530273V-1267.01C1983.84 -1267.01 2029.98 -1243.12 2070.68 -1222.04C2109.11 -1202.14 2142.31 -1184.96 2212.63 -1184.96C2282.94 -1184.96 2316.14 -1202.15 2354.57 -1222.04C2395.27 -1243.12 2441.41 -1267.01 2529.57 -1267.01C2617.74 -1267.01 2663.87 -1243.12 2704.57 -1222.04C2743.01 -1202.14 2776.21 -1184.96 2846.52 -1184.96C2916.84 -1184.96 2950.04 -1202.15 2988.48 -1222.04C3029.18 -1243.12 3075.32 -1267.01 3163.48 -1267.01C3251.64 -1267.01 3297.78 -1243.12 3338.48 -1222.04C3376.92 -1202.14 3410.12 -1184.96 3480.44 -1184.96C3550.76 -1184.96 3583.96 -1202.15 3622.4 -1222.04C3663.11 -1243.12 3709.25 -1267.01 3797.4 -1267.01V0.530273C3727.08 0.530273 3693.88 17.7183 3655.44 37.6143C3614.73 58.6893 3568.59 82.5801 3480.44 82.5801" fill="#DDD1DB"/>
</g>
<mask id="mask2_2282_38" style="mask-type:luminance" maskUnits="userSpaceOnUse" x="0" y="-1267" width="1902" height="1350">
<path d="M1901.75 -1267H0V82.5801H1901.75V-1267Z" fill="#DDD1DB"/>
</mask>
<g mask="url(#mask2_2282_38)">
<path d="M1584.77 82.5801C1496.61 82.5801 1450.47 58.6933 1409.77 37.6143C1371.33 17.7143 1338.13 0.530273 1267.81 0.530273C1197.49 0.530273 1164.29 17.7183 1125.85 37.6143C1085.14 58.6893 1039.01 82.5801 950.849 82.5801C862.691 82.5801 816.553 58.6933 775.849 37.6143C737.412 17.7143 704.212 0.530273 633.899 0.530273C563.587 0.530273 530.391 17.7183 491.957 37.6143C451.253 58.6893 405.12 82.5801 316.957 82.5801C228.795 82.5801 182.662 58.6933 141.957 37.6143C103.524 17.7143 70.3277 0.530273 0.0117188 0.530273V-1267.01C88.1697 -1267.01 134.307 -1243.12 175.012 -1222.04C213.445 -1202.14 246.641 -1184.96 316.957 -1184.96C387.274 -1184.96 420.466 -1202.15 458.903 -1222.04C499.603 -1243.12 545.737 -1267.01 633.903 -1267.01C722.07 -1267.01 768.199 -1243.12 808.903 -1222.04C847.341 -1202.14 880.537 -1184.96 950.853 -1184.96C1021.17 -1184.96 1054.37 -1202.15 1092.81 -1222.04C1133.51 -1243.12 1179.65 -1267.01 1267.81 -1267.01C1355.97 -1267.01 1402.11 -1243.12 1442.81 -1222.04C1481.25 -1202.14 1514.45 -1184.96 1584.77 -1184.96C1655.09 -1184.96 1688.29 -1202.15 1726.73 -1222.04C1767.44 -1243.12 1813.58 -1267.01 1901.73 -1267.01V0.530273C1831.41 0.530273 1798.21 17.7183 1759.77 37.6143C1719.06 58.6893 1672.92 82.5801 1584.77 82.5801" fill="#DDD1DB"/>
</g>
</g>
<defs>
<clipPath id="clip0_2282_38">
<rect width="5696" height="83" fill="#DDD1DB"/>
</clipPath>
</defs>
</svg>
