<?xml version="1.0" standalone="no"?>
<!DOCTYPE svg PUBLIC "-//W3C//DTD SVG 1.1//EN" "http://www.w3.org/Graphics/SVG/1.1/DTD/svg11.dtd" >
<svg xmlns="http://www.w3.org/2000/svg" xmlns:xlink="http://www.w3.org/1999/xlink" version="1.1">
<metadata>
Created by FontForge 20201107 at Tue Mar  3 21:10:57 2026
 By www-data
Copyright (c) 2017 by Josh Finklea. All rights reserved.
</metadata>
<defs>
<font id="CentraNo2-Medium" horiz-adv-x="1228" >
  <font-face 
    font-family="Centra No2 Medium"
    font-weight="500"
    font-stretch="normal"
    units-per-em="2048"
    panose-1="0 0 0 0 0 0 0 0 0 0"
    ascent="1638"
    descent="-410"
    x-height="1004"
    cap-height="1434"
    bbox="-428 -514 2413 1907"
    underline-thickness="102"
    underline-position="-204"
    unicode-range="U+000D-FB02"
  />
<missing-glyph horiz-adv-x="1720" 
d="M143 1434h1434v-1434h-1434v1434zM287 143h1147v1147h-1147v-1147zM477 231l-102 103l385 383l-385 383l102 102l383 -385l383 385l103 -102l-385 -383l385 -383l-103 -103l-383 385z" />
    <glyph glyph-name=".notdef" horiz-adv-x="1720" 
d="M143 1434h1434v-1434h-1434v1434zM287 143h1147v1147h-1147v-1147zM477 231l-102 103l385 383l-385 383l102 102l383 -385l383 385l103 -102l-385 -383l385 -383l-103 -103l-383 385z" />
    <glyph glyph-name=".null" horiz-adv-x="0" 
 />
    <glyph glyph-name="nonmarkingreturn" unicode="&#xd;" horiz-adv-x="489" 
 />
    <glyph glyph-name="NULL" horiz-adv-x="0" 
 />
    <glyph glyph-name="NULL" horiz-adv-x="0" 
 />
    <glyph glyph-name="space" unicode=" " horiz-adv-x="489" 
 />
    <glyph glyph-name="exclam" unicode="!" horiz-adv-x="573" 
d="M180 426l-20 1008h254l-21 -1008h-213zM135 127q0 62 43 105q44 44 109 44q64 0 108 -44q43 -43 43 -105t-43 -105q-45 -45 -108 -45q-64 0 -109 45q-43 43 -43 105z" />
    <glyph glyph-name="quotedbl" unicode="&#x22;" horiz-adv-x="776" 
d="M113 854l-27 580h240l-27 -580h-186zM477 854l-26 580h239l-26 -580h-187z" />
    <glyph glyph-name="numbersign" unicode="#" horiz-adv-x="1357" 
d="M1077 1038h207v-174h-231l-43 -311h211v-174h-236l-53 -379h-199l53 379h-309l-53 -379h-197l54 379h-207v174h231l43 311h-211v174h236l53 369h197l-54 -369h310l53 369h198zM502 553h309l43 311h-309z" />
    <glyph glyph-name="dollar" unicode="$" horiz-adv-x="1093" 
d="M645 1589v-196q113 -22 203 -97q89 -74 135 -190l-199 -102q-22 52 -57 96q-33 41 -82 65v-350l53 -20q160 -61 238 -153q78 -93 78 -228q0 -84 -29 -154t-78 -122t-116 -85t-146 -45v-205h-170v205q-142 21 -248 106q-105 85 -155 226l204 98q28 -75 79 -130
q49 -52 120 -75v400l-31 12q-145 59 -232 146q-85 85 -85 229q0 77 27 143q28 68 72 115q47 50 110 80q65 31 139 41v190h170zM776 399q0 113 -131 170v-338q55 17 94 61q37 41 37 107zM365 1034q0 -52 27 -86t83 -63v291q-51 -16 -81 -54q-29 -36 -29 -88z" />
    <glyph glyph-name="percent" unicode="%" horiz-adv-x="1679" 
d="M760 1092q0 -73 -27 -133q-27 -59 -74 -105q-48 -46 -109 -71q-62 -25 -134 -25t-134 25q-63 25 -110 71t-74 105q-26 58 -26 133q0 72 26 130q27 59 74 105t110 71q62 25 134 25t134 -25q61 -25 109 -71q47 -46 74 -105q27 -60 27 -130zM416 934q66 0 109 45
q44 46 44 113q0 64 -44 110q-43 45 -109 45t-110 -45q-44 -46 -44 -110q0 -67 44 -113q44 -45 110 -45zM201 0l1040 1407h240l-1041 -1407h-239zM1264 -16q-73 0 -135 25q-61 25 -109 71q-47 46 -74 105q-26 58 -26 130t26 131q27 62 74 107q48 46 109 71q62 25 135 25
q72 0 134 -25q61 -25 109 -71q47 -45 74 -107t27 -131q0 -70 -27 -130q-27 -59 -74 -105q-48 -46 -109 -71q-62 -25 -134 -25zM1264 160q66 0 109 45q44 46 44 110q0 67 -44 113q-43 45 -109 45t-110 -45q-44 -46 -44 -113q0 -64 44 -110q44 -45 110 -45z" />
    <glyph glyph-name="ampersand" unicode="&#x26;" horiz-adv-x="1480" 
d="M1151 0l-193 195q-103 -114 -218 -166q-119 -54 -246 -54q-89 0 -168 28q-73 26 -131 79q-56 51 -86 122q-31 73 -31 154q0 127 67 228q66 100 213 200q-79 82 -115 160t-36 162q0 72 29 138q29 65 78 113q48 47 120 75q66 26 150 26q77 0 142 -25q67 -26 115 -71
t75 -107q28 -64 28 -133q0 -103 -55 -188q-57 -88 -184 -178l245 -246l238 276l166 -137l-246 -289l365 -362h-322zM520 190q143 0 277 154l2 2l-291 293q-38 -25 -69 -49q-34 -27 -61 -61q-29 -37 -45 -72q-18 -39 -18 -82q0 -36 16 -73q14 -32 43 -58q27 -24 65 -39
q37 -15 81 -15zM432 1114q0 -50 30 -99q32 -53 95 -116q89 59 130 114q40 53 40 107q0 60 -43 102t-106 42q-59 0 -103 -44q-43 -43 -43 -106z" />
    <glyph glyph-name="quotesingle" unicode="'" horiz-adv-x="411" 
d="M113 854l-27 580h240l-27 -580h-186z" />
    <glyph glyph-name="parenleft" unicode="(" horiz-adv-x="688" 
d="M102 602q0 269 88 511q88 243 246 429h236q-165 -211 -251 -447q-85 -233 -85 -493q0 -258 85 -491q87 -237 251 -449h-236q-158 186 -246 429q-88 242 -88 511z" />
    <glyph glyph-name="parenright" unicode=")" horiz-adv-x="688" 
d="M584 602q0 -268 -87 -511q-87 -242 -245 -429h-236q165 211 250 448q84 234 84 492t-84 492t-250 448h236q158 -187 245 -429q87 -243 87 -511z" />
    <glyph glyph-name="asterisk" unicode="*" horiz-adv-x="878" 
d="M438 938l-135 -193l-151 113l139 191l-225 71l55 178l225 -75l-2 237h191l-3 -237l226 75l55 -178l-225 -71l141 -191l-154 -113z" />
    <glyph glyph-name="plus" unicode="+" 
d="M143 782h373v379h197v-379h372v-198h-372v-383h-197v383h-373v198z" />
    <glyph glyph-name="comma" unicode="," horiz-adv-x="548" 
d="M133 -221l115 221h-2q-53 0 -89 38q-36 37 -36 91q0 65 45 109q44 43 108 43q67 0 110 -43q44 -44 44 -109q0 -37 -10 -70q-10 -35 -33 -75l-102 -205h-150z" />
    <glyph glyph-name="hyphen" unicode="-" horiz-adv-x="868" 
d="M117 649h635v-213h-635v213z" />
    <glyph glyph-name="period" unicode="." horiz-adv-x="548" 
d="M121 129q0 64 44 108t109 44q66 0 110 -44t44 -108q0 -63 -44 -107q-45 -45 -110 -45q-64 0 -109 45q-44 44 -44 107z" />
    <glyph glyph-name="slash" unicode="/" horiz-adv-x="964" 
d="M207 -205h-236l754 1772h236z" />
    <glyph glyph-name="zero" unicode="0" horiz-adv-x="1372" 
d="M1270 705q0 -146 -37 -276t-110 -232q-72 -101 -182 -161q-111 -61 -255 -61t-255 61q-110 60 -182 161q-73 102 -110 232t-37 276q0 145 37 274t110 231q72 101 182 161q111 61 255 61t255 -61q110 -60 182 -161q73 -102 110 -231t37 -274zM1026 705q0 98 -20 184
q-21 89 -62 161q-40 70 -105 112t-153 42t-152 -42q-67 -43 -106 -112t-61 -161q-21 -90 -21 -184q0 -97 21 -187q22 -92 61 -161t106 -112q64 -42 152 -42t153 42t105 112q41 72 62 161q20 86 20 187z" />
    <glyph glyph-name="one" unicode="1" horiz-adv-x="733" 
d="M322 0v1182h-248v225h489v-1407h-241z" />
    <glyph glyph-name="two" unicode="2" horiz-adv-x="1138" 
d="M567 1432q103 0 191 -33q89 -33 151 -91q65 -60 100 -141q35 -80 35 -178q0 -65 -16 -122q-17 -59 -50 -114q-36 -59 -86 -115t-126 -124l-336 -295h629v-219h-975v195l549 493q90 82 129 150q39 67 39 137q0 47 -19 91q-18 42 -49 73q-30 30 -74 48q-41 17 -92 17
q-55 0 -99 -21q-45 -22 -75 -59q-30 -38 -48 -88q-17 -48 -17 -108h-238q0 115 34 205q35 93 97 158q63 66 151 104q86 37 195 37z" />
    <glyph glyph-name="three" unicode="3" horiz-adv-x="1161" 
d="M575 831q41 0 81 16q39 16 67 42q29 27 45 61q16 33 16 74q0 80 -57 133q-58 53 -149 53q-99 0 -159 -64q-61 -65 -65 -165h-233q1 99 37 186q35 84 95 143q60 58 144 90q85 32 185 32q94 0 178 -29q80 -28 140 -80q57 -50 91 -121q33 -69 33 -151q0 -98 -47 -177
q-46 -77 -135 -124q113 -40 179 -132q64 -89 64 -208q0 -99 -37 -177q-38 -80 -104 -137q-67 -58 -158 -89q-93 -32 -198 -32q-114 0 -204 34q-93 35 -156 95t-100 151q-37 90 -38 200h236q5 -57 25 -102q20 -44 57 -81q35 -35 82 -54t104 -19q110 0 178 59q70 61 70 164
q0 99 -76 157t-191 58h-69v194h69z" />
    <glyph glyph-name="four" unicode="4" horiz-adv-x="1232" 
d="M49 481l651 924h287v-891h197v-205h-197v-309h-235v309h-703v172zM752 514v614l-435 -614h435z" />
    <glyph glyph-name="five" unicode="5" horiz-adv-x="1175" 
d="M121 655l102 752h781v-215h-594l-48 -340q47 47 123 74q74 26 158 26q101 0 185 -37q86 -38 147 -100q60 -62 95 -148q34 -84 34 -182q0 -108 -39 -201q-38 -91 -109 -162q-69 -69 -162 -108t-200 -39q-111 0 -204 33q-95 34 -160 93q-66 60 -104 144q-39 85 -40 181h238
q11 -99 80 -163q70 -64 188 -64q56 0 106 21q48 20 85 59q36 37 57 87q20 47 20 107q0 61 -20 108q-21 50 -58 87q-35 35 -87 57q-47 20 -107 20q-83 0 -144 -37q-59 -36 -104 -98z" />
    <glyph glyph-name="six" unicode="6" horiz-adv-x="1208" 
d="M1130 483q0 -112 -39 -200q-41 -92 -111 -161t-165 -108t-205 -39q-114 0 -208 39t-164 107q-69 68 -110 160q-40 90 -40 200q0 95 36 197q36 101 114 223l329 506h283l-334 -485q51 39 141 39q102 0 190 -38q84 -36 149 -103q63 -65 99 -151q35 -85 35 -186zM887 473
q0 56 -22 108q-21 49 -59 87q-36 36 -88 58t-108 22q-60 0 -109 -21q-54 -23 -88 -57q-40 -40 -60 -87q-21 -49 -21 -108q0 -55 21 -105q21 -49 59 -87t87 -59q50 -21 109 -21q58 0 109 21t89 59q39 39 59 86q22 52 22 104z" />
    <glyph glyph-name="seven" unicode="7" horiz-adv-x="1079" 
d="M446 0h-266l563 1186h-675v219h954v-178z" />
    <glyph glyph-name="eight" unicode="8" horiz-adv-x="1159" 
d="M580 1432q87 0 171 -28q77 -26 142 -78q60 -48 97 -121q36 -71 36 -156q0 -107 -55 -183q-54 -75 -133 -108q42 -16 87 -47q43 -30 79 -75q34 -43 57 -101q22 -56 22 -127q0 -104 -42 -183t-111 -135q-68 -54 -161 -85q-91 -30 -189 -30t-190 30q-93 31 -161 85
q-69 56 -111 135t-42 183q0 70 21 127q21 56 58 101q41 49 78 75q46 32 86 47q-77 33 -131 108q-55 76 -55 183q0 85 36 156q37 73 97 121q64 52 143 78q84 28 171 28zM844 418q0 51 -21 93q-22 43 -56 72q-35 29 -84 46q-47 16 -103 16q-57 0 -104 -16q-48 -17 -85 -46
q-35 -28 -57 -72q-21 -42 -21 -93q0 -48 22 -94q21 -44 57 -74q37 -31 84 -47q49 -17 104 -17q54 0 103 17q47 16 84 47q34 28 56 74q21 43 21 94zM580 1225q-42 0 -83 -15t-71 -39t-48 -59q-18 -34 -18 -78q0 -43 18 -79t48 -60q31 -25 71 -38q39 -13 83 -13t83 13t70 38
q30 24 48 60t18 79q0 44 -18 78q-18 35 -48 59t-70 39t-83 15z" />
    <glyph glyph-name="nine" unicode="9" horiz-adv-x="1208" 
d="M78 924q0 107 40 199q41 95 110 162q70 69 165 108q94 39 205 39q114 0 208 -39q96 -40 165 -107q67 -66 109 -160q40 -90 40 -200q0 -95 -36 -197q-37 -104 -113 -223l-330 -506h-283l334 485q-51 -39 -141 -39q-102 0 -190 38q-84 36 -149 103q-62 63 -98 151
q-36 87 -36 186zM322 934q0 -60 21 -110q21 -49 59 -87q34 -34 88 -57q50 -21 108 -21t109 21q54 22 89 57q38 38 59 87q22 52 22 108q0 53 -22 105q-21 50 -58 87q-39 39 -88 59q-51 21 -109 21q-60 0 -110 -21t-88 -59q-39 -39 -59 -86q-21 -50 -21 -104z" />
    <glyph glyph-name="colon" unicode=":" horiz-adv-x="548" 
d="M121 842q0 63 44 107t109 44q66 0 110 -44t44 -107q0 -64 -44 -108t-110 -44q-65 0 -109 44t-44 108zM121 129q0 64 44 108t109 44q66 0 110 -44t44 -108q0 -63 -44 -107q-45 -45 -110 -45q-64 0 -109 45q-44 44 -44 107z" />
    <glyph glyph-name="semicolon" unicode=";" horiz-adv-x="548" 
d="M133 -221l115 221h-2q-53 0 -89 38q-36 37 -36 91q0 65 45 109q44 43 108 43q67 0 110 -43q44 -44 44 -109q0 -37 -10 -70q-10 -35 -33 -75l-102 -205h-150zM121 842q0 63 44 107t109 44q66 0 110 -44t44 -107q0 -64 -44 -108t-110 -44q-65 0 -109 44t-44 108z" />
    <glyph glyph-name="less" unicode="&#x3c;" 
d="M176 788l877 420v-235l-623 -289l623 -289v-239l-877 419v213z" />
    <glyph glyph-name="equal" unicode="=" 
d="M143 573h942v-196h-942v196zM143 989h942v-196h-942v196z" />
    <glyph glyph-name="greater" unicode="&#x3e;" 
d="M1053 575l-877 -419v235l623 289l-623 289v239l877 -420v-213z" />
    <glyph glyph-name="question" unicode="?" horiz-adv-x="1099" 
d="M403 127q0 62 43 105q44 44 109 44t109 -44q43 -43 43 -105t-43 -105q-45 -45 -109 -45t-109 45q-43 43 -43 105zM1022 1049q0 -98 -41 -182q-40 -81 -133 -162l-60 -51q-33 -28 -58 -53q-26 -26 -45 -59q-17 -30 -17 -67v-49h-240v72q0 70 50 149q48 76 147 150
q153 117 153 233q0 84 -61 142q-62 59 -158 59q-98 0 -163 -68q-64 -67 -66 -170h-238q0 100 35 187q35 85 97 148q62 62 149 97t188 35q97 0 183 -30q83 -29 147 -87q62 -56 96 -131q35 -78 35 -163z" />
    <glyph glyph-name="at" unicode="@" horiz-adv-x="1767" 
d="M1315 139q-96 0 -145 41q-48 40 -60 90q-39 -59 -114 -98q-71 -37 -162 -37q-72 0 -136 28q-60 26 -106 77t-71 118q-25 68 -25 154q0 88 29 162t80 131q48 54 119 88q69 33 148 33q92 0 156 -35t94 -92l13 104h172l-60 -487q-17 -117 70 -117q38 0 73 26q33 25 59 70
q26 46 41 107q15 62 15 135q0 118 -43 213q-44 98 -119 165q-75 68 -178 107q-102 39 -221 39q-137 0 -260 -47q-120 -46 -212 -132q-91 -85 -143 -203q-53 -120 -53 -259q0 -144 50 -261q51 -119 134 -196q85 -79 198 -122t245 -43q137 0 252 35q120 37 211 102l88 -152
q-44 -33 -111 -63q-66 -30 -135 -50q-73 -21 -149 -33q-72 -11 -156 -11q-166 0 -316 53t-260 154q-113 103 -176 248q-65 148 -65 335q0 181 69 331q71 153 185 259q117 108 273 168q153 59 335 59q157 0 292 -52q136 -53 237 -144q98 -89 158 -217q59 -126 59 -271
q0 -125 -33 -220t-86 -160q-52 -63 -122 -97q-69 -33 -138 -33zM866 299q44 0 83 19q40 19 71 55q32 37 49 81q18 46 18 99q0 88 -51 148q-52 61 -141 61q-44 0 -84 -20q-41 -20 -69 -53q-29 -33 -47 -79q-17 -42 -17 -96q0 -97 55 -156t133 -59z" />
    <glyph glyph-name="A" unicode="A" horiz-adv-x="1417" 
d="M813 1434l584 -1434h-258l-146 362h-577l-144 -362h-252l584 1434h209zM496 578h419l-210 532z" />
    <glyph glyph-name="B" unicode="B" horiz-adv-x="1273" 
d="M168 1434h485q99 0 182 -27q84 -28 143 -76q60 -49 93 -120t33 -160q0 -98 -44 -172q-44 -75 -126 -115q123 -40 190 -131q66 -90 66 -219q0 -95 -35 -173q-35 -79 -100 -130q-68 -54 -158 -82q-93 -29 -207 -29h-522v1434zM680 211q119 0 190 55q72 55 72 160
q0 99 -73 157q-71 56 -191 56h-268v-428h270zM637 842q100 0 164 50q63 50 63 142t-63 142q-62 49 -164 49h-227v-383h227z" />
    <glyph glyph-name="C" unicode="C" horiz-adv-x="1316" 
d="M94 717q0 153 58 292q56 135 156 236q99 101 235 158q135 57 291 57q107 0 201 -29q96 -30 190 -88v-264q-96 73 -189 107q-96 35 -200 35q-106 0 -194 -39q-89 -39 -155 -107q-63 -64 -102 -160q-37 -90 -37 -198q0 -106 37 -196q38 -93 102 -160t155 -107
q88 -39 194 -39q103 0 200 35q98 35 193 102v-264q-96 -58 -199 -86q-100 -27 -199 -27q-155 0 -289 57q-139 59 -234 156q-99 100 -156 236q-58 137 -58 293z" />
    <glyph glyph-name="D" unicode="D" horiz-adv-x="1452" 
d="M1358 717q0 -155 -56 -283q-58 -133 -155 -227q-100 -97 -229 -152t-281 -55h-469v1434h469q149 0 281 -56q131 -56 229 -151q96 -93 155 -228q56 -128 56 -282zM1106 717q0 103 -36 191q-36 89 -99 155q-61 64 -151 103q-88 38 -189 38h-217v-975h217q101 0 189 38
t151 104t99 154t36 192z" />
    <glyph glyph-name="E" unicode="E" horiz-adv-x="1095" 
d="M168 1434h819v-224h-573v-364h528v-217h-528v-406h577v-223h-823v1434z" />
    <glyph glyph-name="F" unicode="F" horiz-adv-x="1052" 
d="M414 0h-246v1434h801v-224h-555v-364h518v-223h-518v-623z" />
    <glyph glyph-name="G" unicode="G" horiz-adv-x="1615" 
d="M1245 983q-60 118 -167 180q-110 64 -244 64q-105 0 -192 -40q-90 -41 -156 -110t-104 -162t-38 -198q0 -104 38 -198t104 -163q64 -67 156 -109q87 -40 194 -40q89 0 158 26q71 27 129 74q55 45 94 112q37 64 49 142h-467v215h729v-92q0 -150 -51 -280
q-50 -128 -144 -225q-92 -95 -219 -149q-130 -55 -280 -55q-153 0 -289 59t-236 159t-157 235q-58 137 -58 289q0 153 59 289t159 236q101 101 236 160q132 58 288 58q106 0 199 -25q94 -25 176 -74q81 -48 146 -116q63 -66 107 -151z" />
    <glyph glyph-name="H" unicode="H" horiz-adv-x="1499" 
d="M168 1434h246v-580h671v580h246v-1434h-246v621h-671v-621h-246v1434z" />
    <glyph glyph-name="I" unicode="I" horiz-adv-x="581" 
d="M414 1434v-1434h-246v1434h246z" />
    <glyph glyph-name="J" unicode="J" horiz-adv-x="1058" 
d="M909 444q0 -108 -30 -195t-88 -148q-56 -59 -141 -93q-82 -33 -185 -33q-157 0 -270 79q-117 81 -168 218l209 115q38 -87 94 -134q57 -48 135 -48q96 0 147 63q52 64 52 178v988h245v-990z" />
    <glyph glyph-name="K" unicode="K" horiz-adv-x="1318" 
d="M414 836l540 598h299l-600 -656l647 -778h-309l-499 612l-78 -86v-526h-246v1434h246v-598z" />
    <glyph glyph-name="L" unicode="L" horiz-adv-x="960" 
d="M414 1434v-1205h504v-229h-750v1434h246z" />
    <glyph glyph-name="M" unicode="M" horiz-adv-x="1933" 
d="M1765 1434v-1434h-239v1020l-479 -1020h-162l-477 1018v-1018h-240v1434h299l504 -1088l504 1088h290z" />
    <glyph glyph-name="N" unicode="N" horiz-adv-x="1585" 
d="M1417 1434v-1434h-239l-772 1053v-1053h-238v1434h250l762 -1051v1051h237z" />
    <glyph glyph-name="O" unicode="O" horiz-adv-x="1675" 
d="M94 717q0 155 59 291t158 235q101 101 237 159q135 58 290 58q154 0 289 -58q137 -58 237 -159q101 -101 159 -235t58 -291q0 -155 -58 -289t-159 -235q-100 -101 -237 -159q-138 -59 -289 -59q-152 0 -290 59q-136 58 -237 159q-99 99 -158 235t-59 289zM346 717
q0 -104 38 -197q38 -92 104 -160q63 -64 156 -107q87 -40 194 -40q106 0 193 40q93 43 156 107q66 68 104 160q38 93 38 197q0 103 -38 196q-37 91 -104 161q-64 67 -156 109q-87 40 -193 40q-107 0 -194 -40q-92 -42 -156 -109q-67 -70 -104 -161q-38 -93 -38 -196z" />
    <glyph glyph-name="P" unicode="P" horiz-adv-x="1177" 
d="M633 1434q111 0 202 -30q90 -30 156 -85q67 -56 102 -137q35 -80 35 -187q0 -106 -35 -185q-36 -80 -102 -136q-66 -55 -156 -85q-91 -30 -202 -30h-219v-559h-246v1434h465zM414 778h223q108 0 177 57t69 160q0 104 -69 161q-68 56 -177 56h-223v-434z" />
    <glyph glyph-name="Q" unicode="Q" horiz-adv-x="1675" 
d="M1427 -33l-163 142q-95 -66 -200 -99q-110 -35 -226 -35q-152 0 -290 59q-136 58 -237 159q-99 99 -158 235t-59 289q0 155 59 291t158 235q101 101 237 159q135 58 290 58q154 0 289 -58q137 -58 237 -159q101 -101 159 -235t58 -291q0 -132 -43 -248
q-44 -117 -117 -213l148 -125zM342 717q0 -104 38 -198q38 -93 105 -162q64 -66 158 -108q89 -40 195 -40q67 0 125 16q59 16 112 45l-145 125l141 160l166 -141q46 64 71 140q25 75 25 163q0 105 -38 198q-39 94 -105 162q-68 69 -158 110q-89 40 -194 40q-106 0 -195 -40
q-90 -41 -158 -110q-66 -68 -105 -162q-38 -93 -38 -198z" />
    <glyph glyph-name="R" unicode="R" horiz-adv-x="1239" 
d="M412 0h-244v1434h448q107 0 199 -29q91 -29 156 -85t101 -137t36 -186q0 -159 -90 -264q-89 -104 -234 -145l422 -588h-288l-396 567h-110v-567zM412 774h204q108 0 178 59q68 58 68 162q0 105 -68 161t-178 56h-204v-438z" />
    <glyph glyph-name="S" unicode="S" horiz-adv-x="1138" 
d="M285 436q39 -104 115 -167q75 -62 186 -62q92 0 159 48q68 48 68 140q0 133 -180 199l-170 61q-158 57 -248 154q-88 95 -88 244q0 93 34 168q35 77 94 129q62 54 141 82q80 28 175 28q154 -1 279 -85q122 -82 182 -232l-211 -107q-33 82 -94 139q-60 56 -154 56
q-85 0 -141 -45q-55 -45 -55 -119q0 -66 45 -108q44 -41 133 -76l176 -68q169 -67 251 -163q83 -98 83 -240q0 -103 -39 -184t-104 -137q-64 -56 -154 -86q-88 -30 -186 -30q-180 0 -318 94q-136 93 -196 265z" />
    <glyph glyph-name="T" unicode="T" horiz-adv-x="1120" 
d="M39 1434h1042v-228h-397v-1206h-248v1206h-397v228z" />
    <glyph glyph-name="U" unicode="U" horiz-adv-x="1421" 
d="M711 -25q-134 0 -238 43t-176 121q-73 79 -110 188q-37 108 -37 242v865h245v-854q0 -166 81 -267q81 -100 235 -100q153 0 234 100q81 101 81 267v854h246v-865q0 -131 -38 -242q-37 -109 -110 -188q-72 -78 -176 -121t-237 -43z" />
    <glyph glyph-name="V" unicode="V" horiz-adv-x="1335" 
d="M573 0l-555 1434h261l393 -1047l391 1047h254l-555 -1434h-189z" />
    <glyph glyph-name="W" unicode="W" horiz-adv-x="2072" 
d="M510 0l-487 1434h253l330 -1022l342 1022h180l340 -1022l332 1022h250l-489 -1434h-185l-342 1024l-340 -1024h-184z" />
    <glyph glyph-name="X" unicode="X" horiz-adv-x="1314" 
d="M330 1434l327 -504l332 504h277l-465 -695l497 -739h-284l-359 549l-362 -549h-277l496 737l-465 697h283z" />
    <glyph glyph-name="Y" unicode="Y" horiz-adv-x="1312" 
d="M780 0h-245v631l-519 803h283l360 -576l361 576h276l-516 -803v-631z" />
    <glyph glyph-name="Z" unicode="Z" horiz-adv-x="1251" 
d="M401 221h783v-221h-1118v160l774 1052h-725v222h1061v-160z" />
    <glyph glyph-name="bracketleft" unicode="[" horiz-adv-x="698" 
d="M147 1542h504v-190h-280v-1499h280v-191h-504v1880z" />
    <glyph glyph-name="backslash" unicode="\" horiz-adv-x="964" 
d="M4 1567h236l753 -1772h-235z" />
    <glyph glyph-name="bracketright" unicode="]" horiz-adv-x="698" 
d="M551 -338h-504v191h281v1499h-281v190h504v-1880z" />
    <glyph glyph-name="asciicircum" unicode="^" horiz-adv-x="976" 
d="M907 805h-223l-197 391l-196 -391h-221l325 629h187z" />
    <glyph glyph-name="underscore" unicode="_" horiz-adv-x="1028" 
d="M33 -86h962v-188h-962v188z" />
    <glyph glyph-name="grave" unicode="`" horiz-adv-x="1024" 
d="M487 1178l-247 292h260l194 -292h-207z" />
    <glyph glyph-name="a" unicode="a" horiz-adv-x="1294" 
d="M1145 1004v-1004h-234v145q-54 -76 -145 -123t-195 -47q-103 0 -193 41q-88 40 -155 112q-65 69 -103 167q-38 97 -38 207t38 207q38 98 103 167q66 70 155 111q90 41 193 41q105 0 195 -42q89 -42 145 -120v138h234zM319 502q0 -65 24 -122q24 -56 64 -98q43 -44 95 -67
q58 -25 119 -25q60 0 118 25q54 23 96 67q39 40 63 98q24 57 24 122t-24 122q-24 58 -63 98q-41 42 -96 66q-58 25 -118 25q-61 0 -119 -25q-54 -23 -95 -66q-40 -42 -64 -98q-24 -57 -24 -122z" />
    <glyph glyph-name="b" unicode="b" horiz-adv-x="1294" 
d="M147 0v1434h236v-574q56 78 145 123q90 45 195 45q106 0 193 -40q91 -42 155 -110q67 -71 104 -167q37 -95 37 -209q0 -112 -37 -207q-37 -96 -104 -167q-67 -72 -155 -112q-90 -41 -193 -41q-105 0 -195 42q-89 42 -145 120v-137h-236zM975 502q0 65 -24 122
q-24 58 -63 98q-41 43 -95 66q-58 25 -119 25t-119 -25q-54 -23 -95 -66q-40 -42 -64 -98q-23 -55 -23 -122t23 -122q24 -56 64 -98q43 -44 95 -67q58 -25 119 -25t119 25q52 23 95 67q39 40 63 98q24 57 24 122z" />
    <glyph glyph-name="c" unicode="c" horiz-adv-x="966" 
d="M82 502q0 113 39 209q40 98 109 167t168 110q96 40 214 40q150 0 269 -72v-235q-119 90 -248 90q-67 0 -124 -24t-98 -65q-43 -43 -66 -98t-23 -122t23 -122q23 -54 65 -98q40 -42 98 -66q55 -23 125 -23q74 0 135 26q68 29 117 64v-236q-127 -72 -275 -72
q-116 0 -214 39t-167 110q-69 70 -108 167q-39 96 -39 211z" />
    <glyph glyph-name="d" unicode="d" horiz-adv-x="1294" 
d="M911 0v143q-56 -78 -145 -123q-90 -45 -195 -45q-106 0 -193 40q-89 41 -155 111q-65 69 -103 167q-38 97 -38 209q0 110 38 207q38 98 103 167q66 70 155 111q90 41 193 41q105 0 195 -42q89 -42 145 -120v568h236v-1434h-236zM319 502q0 -65 24 -122q24 -56 64 -98
q43 -44 95 -67q58 -25 119 -25q60 0 118 25q54 23 96 67q39 40 63 98q24 57 24 122t-24 122q-24 58 -63 98q-41 42 -96 66q-58 25 -118 25q-61 0 -119 -25q-54 -23 -95 -66q-40 -42 -64 -98q-24 -57 -24 -122z" />
    <glyph glyph-name="e" unicode="e" horiz-adv-x="1163" 
d="M1057 236q-63 -119 -178 -190t-275 -71q-115 0 -211 39q-94 38 -165 109q-67 67 -107 166q-39 96 -39 213q0 113 39 209q40 99 107 167q67 69 162 110q92 40 202 40q112 0 202 -40q92 -41 157 -110q67 -71 104 -167q37 -95 37 -209q0 -14 -2 -72h-773q4 -53 29 -101
q22 -43 64 -80q37 -33 90 -53q52 -20 106 -20q100 0 156 43q57 43 100 109zM856 602q-6 47 -29 92q-23 44 -57 74q-34 29 -82 48q-47 18 -100 18q-54 0 -100 -21q-45 -20 -81 -52t-59 -74q-23 -43 -29 -85h537z" />
    <glyph glyph-name="f" unicode="f" horiz-adv-x="743" 
d="M432 1004h270v-201h-270v-803h-237v803h-150v201h150v59q0 99 27 176q26 74 79 127q50 50 121 78q66 26 156 26q49 0 89 -8q35 -7 64 -20v-209q-25 13 -52 20q-36 9 -67 9q-78 0 -129 -45t-51 -152v-61z" />
    <glyph glyph-name="g" unicode="g" horiz-adv-x="1273" 
d="M893 172q-51 -72 -138 -117t-192 -45q-101 0 -190 39q-88 39 -153 107q-63 66 -101 159q-37 90 -37 201q0 110 37 202q39 97 101 163q64 69 153 108t190 39q106 0 192 -43q87 -43 138 -117v136h233v-943q0 -120 -35 -213q-35 -94 -104 -164q-68 -70 -165 -107
q-99 -38 -220 -38q-166 0 -294 70q-124 68 -191 194l188 119q46 -85 124 -131q77 -45 173 -45q135 0 213 83t78 230v113zM903 516q0 63 -22 117q-21 53 -62 95q-38 39 -92 64q-50 23 -115 23q-64 0 -114 -23q-54 -25 -92 -64q-41 -42 -62 -95q-22 -54 -22 -117
q0 -65 22 -118q22 -54 62 -95q38 -39 92 -64q52 -24 114 -24t115 24q54 25 92 64q40 41 62 95q22 53 22 118z" />
    <glyph glyph-name="h" unicode="h" horiz-adv-x="1216" 
d="M385 0h-238v1434h238v-564q45 70 124 115q76 43 183 43q185 0 287 -114t102 -310v-604h-237v559q0 116 -58 183t-165 67t-171 -76q-65 -77 -65 -205v-528z" />
    <glyph glyph-name="i" unicode="i" horiz-adv-x="532" 
d="M147 0v1004h238v-1004h-238zM412 1296q0 -58 -42 -102q-42 -43 -106 -43q-59 0 -102 43t-43 102q0 62 43 105t102 43q64 0 106 -44t42 -104z" />
    <glyph glyph-name="j" unicode="j" horiz-adv-x="538" 
d="M154 1004h237v-1067q0 -194 -93 -293t-251 -99q-45 0 -79 8q-38 9 -56 17v207q40 -19 94 -19q70 0 109 48t39 139v1059zM418 1296q0 -58 -42 -102q-42 -43 -106 -43q-59 0 -102 43t-43 102q0 62 43 105t102 43q64 0 106 -44t42 -104z" />
    <glyph glyph-name="k" unicode="k" horiz-adv-x="1097" 
d="M1051 1004l-437 -437l469 -567h-290l-359 444l-51 -47v-397h-236v1434h236v-809l377 379h291z" />
    <glyph glyph-name="l" unicode="l" horiz-adv-x="532" 
d="M385 1434v-1434h-238v1434h238z" />
    <glyph glyph-name="m" unicode="m" horiz-adv-x="1810" 
d="M385 0h-238v1004h238v-134q40 71 113 115q71 43 174 43q109 0 186 -49q79 -50 119 -137q20 35 52 69q30 31 73 60q40 27 93 42q52 15 116 15q174 0 269 -112t95 -300v-616h-237v571q0 111 -49 175q-50 65 -144 65q-95 0 -154 -73q-60 -73 -61 -195v-543h-237v563
q0 115 -50 182q-50 66 -143 66q-98 0 -157 -75q-58 -74 -58 -204v-532z" />
    <glyph glyph-name="n" unicode="n" horiz-adv-x="1216" 
d="M385 0h-238v1004h238v-134q45 70 124 115q76 43 183 43q185 0 287 -114t102 -310v-604h-237v559q0 116 -58 183t-165 67t-171 -76q-65 -77 -65 -205v-528z" />
    <glyph glyph-name="o" unicode="o" horiz-adv-x="1232" 
d="M616 1028q113 0 213 -41q97 -40 170 -111q71 -69 112 -167q40 -95 40 -207t-40 -207q-41 -98 -112 -167q-74 -73 -170 -112q-100 -41 -213 -41t-213 41q-96 39 -170 112q-69 68 -111 167q-40 95 -40 207t40 207q42 99 111 167q73 71 170 111q100 41 213 41zM616 811
q-61 0 -117 -25q-54 -24 -95 -65q-38 -38 -63 -98q-24 -57 -24 -121q0 -65 24 -122q25 -59 63 -97q43 -43 95 -66q54 -24 117 -24q64 0 118 24q50 22 94 66q40 40 64 97q23 55 23 122q0 66 -23 121q-25 59 -64 98q-42 42 -94 65q-56 25 -118 25z" />
    <glyph glyph-name="p" unicode="p" horiz-adv-x="1294" 
d="M383 1004v-144q56 78 145 123q90 45 195 45q106 0 193 -40q91 -42 155 -110q67 -71 104 -167q37 -95 37 -209q0 -112 -37 -207q-37 -96 -104 -167q-67 -72 -155 -112q-90 -41 -193 -41q-105 0 -195 42q-89 42 -145 120v-563h-236v1430h236zM975 502q0 65 -24 122
q-24 58 -63 98q-41 43 -95 66q-58 25 -119 25t-119 -25q-54 -23 -95 -66q-40 -42 -64 -98q-23 -55 -23 -122t23 -122q24 -56 64 -98q43 -44 95 -67q58 -25 119 -25t119 25q52 23 95 67q39 40 63 98q24 57 24 122z" />
    <glyph glyph-name="q" unicode="q" horiz-adv-x="1294" 
d="M1147 1004v-1430h-236v569q-52 -78 -143 -123q-90 -45 -197 -45q-103 0 -193 41q-88 40 -155 112q-65 69 -103 167q-38 97 -38 207t38 207q38 98 103 167q66 70 155 111q90 41 193 41q107 0 196 -42t144 -120v138h236zM319 502q0 -65 24 -122q24 -56 64 -98
q43 -44 95 -67q58 -25 119 -25q60 0 118 25q54 23 96 67q39 40 63 98q24 57 24 122t-24 122q-24 58 -63 98q-41 42 -96 66q-58 25 -118 25q-61 0 -119 -25q-54 -23 -95 -66q-40 -42 -64 -98q-24 -57 -24 -122z" />
    <glyph glyph-name="r" unicode="r" horiz-adv-x="774" 
d="M725 776q-18 8 -61 8q-131 0 -206 -93t-75 -249v-442h-236v1004h234v-173q38 89 119 141q82 52 180 52q39 0 45 -6v-242z" />
    <glyph glyph-name="s" unicode="s" horiz-adv-x="878" 
d="M250 332q27 -70 80 -112q52 -42 121 -42q54 0 95 26q40 25 40 79q0 40 -28 65q-29 26 -87 43l-121 39q-256 82 -256 291q0 68 28 127q26 54 75 97q48 42 109 62q63 21 134 21q123 0 220 -61q99 -63 145 -166l-191 -103q-28 59 -72 97q-42 36 -102 36q-52 0 -86 -24
q-35 -24 -35 -68q0 -70 113 -108l119 -39q140 -46 203 -120q61 -71 61 -173q0 -77 -30 -137q-31 -61 -80 -102q-50 -41 -118 -63q-69 -22 -141 -22q-140 0 -243 70q-103 69 -146 186z" />
    <glyph glyph-name="t" unicode="t" horiz-adv-x="753" 
d="M426 1300v-296h266v-201h-266v-451q0 -84 38 -122q37 -37 118 -37q30 0 58 7q31 8 52 23v-211q-25 -15 -74 -26q-47 -11 -106 -11q-152 0 -237 88t-85 246v494h-149v201h149v296h236z" />
    <glyph glyph-name="u" unicode="u" horiz-adv-x="1208" 
d="M823 1004h238v-1004h-238v133q-45 -70 -124 -115q-76 -43 -181 -43q-179 0 -281 114t-102 310v605h238v-560q0 -118 56 -183q57 -66 161 -66q108 0 170 75q63 77 63 205v529z" />
    <glyph glyph-name="v" unicode="v" horiz-adv-x="1093" 
d="M29 1004h252l268 -697l270 697h246l-414 -1004h-209z" />
    <glyph glyph-name="w" unicode="w" horiz-adv-x="1654" 
d="M1063 0l-236 678l-237 -678h-191l-364 1004h244l229 -680l235 680h175l235 -680l229 680h238l-365 -1004h-192z" />
    <glyph glyph-name="x" unicode="x" horiz-adv-x="1081" 
d="M537 344l-244 -344h-264l372 510l-356 494h272l226 -322l227 322h268l-358 -488l373 -516h-275z" />
    <glyph glyph-name="y" unicode="y" horiz-adv-x="1110" 
d="M238 -455q-43 0 -81 10q-39 10 -59 19v203q46 -21 105 -21q63 0 106 34t78 120l43 104l-401 990h252l274 -723l283 723h243l-465 -1125q-73 -178 -162 -256q-88 -78 -216 -78z" />
    <glyph glyph-name="z" unicode="z" horiz-adv-x="960" 
d="M899 860l-534 -661h542v-199h-852v147l531 658h-498v199h811v-144z" />
    <glyph glyph-name="braceleft" unicode="{" horiz-adv-x="755" 
d="M221 1155q-11 210 88 298q100 89 287 89q38 0 98 -6v-176q-41 4 -63 4q-92 0 -144 -47q-51 -47 -45 -168l13 -272q5 -108 -36 -171t-130 -102q92 -41 131 -105q39 -65 35 -171l-13 -275q-4 -120 46 -167q49 -46 143 -46h63v-174q-60 -6 -98 -6q-92 0 -167 22t-120 67
q-47 47 -69 120q-23 76 -19 176l12 277q5 92 -45 136t-122 54v178q75 10 123 54q49 44 44 137z" />
    <glyph glyph-name="bar" unicode="|" horiz-adv-x="579" 
d="M178 -319v1886h223v-1886h-223z" />
    <glyph glyph-name="braceright" unicode="}" horiz-adv-x="755" 
d="M535 47q7 -207 -90 -297q-98 -90 -285 -90q-39 0 -99 6v176q40 -2 64 -2q93 0 143 46q51 46 45 167l-10 275q-4 105 35 169q39 62 129 103q-89 40 -129 106q-39 65 -35 171l10 272q6 121 -45 168q-52 47 -143 47q-18 0 -64 -2v174q60 6 99 6q187 0 285 -89t90 -296
l-11 -276q-5 -93 45 -137q49 -44 123 -54v-176q-77 -11 -124 -55q-49 -45 -44 -137z" />
    <glyph glyph-name="asciitilde" unicode="~" horiz-adv-x="1069" 
d="M86 406q0 67 22 122q21 53 58 90q38 38 87 56t107 18q78 0 124 -18q45 -18 79 -42q22 -16 61 -42q28 -19 68 -19q47 0 76 32q30 33 31 79h186q0 -70 -21 -123q-21 -52 -59 -90q-37 -37 -87 -55q-52 -19 -107 -19q-76 0 -125 19q-48 18 -80 42q-22 16 -61 42
q-27 18 -66 18q-47 0 -76 -32q-30 -33 -31 -78h-186z" />
    <glyph glyph-name="nonbreakingspace" unicode="&#xa0;" horiz-adv-x="489" 
 />
    <glyph glyph-name="exclamdown" unicode="&#xa1;" horiz-adv-x="573" 
d="M393 580l21 -1006h-254l20 1006h213zM135 879q0 62 43 105q44 44 109 44q64 0 108 -44q43 -43 43 -105q0 -63 -43 -106q-44 -44 -108 -44q-65 0 -109 44q-43 43 -43 106z" />
    <glyph glyph-name="cent" unicode="&#xa2;" horiz-adv-x="940" 
d="M645 408q62 6 112 29q53 24 99 57v-226q-98 -54 -211 -65v-209h-166v217q-92 17 -162 59q-69 42 -123 108t-80 146q-28 86 -28 178t29 174q28 79 80 145q51 65 123 108q75 46 161 63v215h166v-205q55 -6 108 -21q51 -15 99 -44v-226q-100 77 -207 84v-587zM479 969
q-76 -34 -120 -106q-44 -71 -44 -161q0 -89 44 -160q44 -72 120 -106v533z" />
    <glyph glyph-name="sterling" unicode="&#xa3;" 
d="M258 944q0 106 30 191t87 147q55 60 140 95q81 34 192 34q102 0 183 -34q84 -35 142 -93q59 -60 91 -139q32 -81 32 -170h-233q0 43 -15 82q-14 37 -42 68q-25 28 -66 47q-39 18 -86 18q-109 0 -160 -69t-51 -185v-154h340v-198h-340v-185q0 -72 -20 -118t-48 -62h707
v-219h-1030v219h32q49 0 82 40q33 41 33 138v187h-147v198h147v162z" />
    <glyph glyph-name="currency" unicode="&#xa4;" 
d="M1102 680q0 -74 -23 -143q-23 -68 -63 -125l151 -152l-135 -133l-155 156q-59 -36 -124 -55q-64 -19 -139 -19q-74 0 -138 19q-65 19 -124 55l-155 -156l-134 133l150 150q-40 57 -63 125q-23 69 -23 145q0 75 21 143q20 65 63 125l-150 152l136 133l155 -156
q59 36 124 55q64 19 138 19q143 0 265 -74l155 156l133 -133l-151 -152q40 -57 63 -125q23 -69 23 -143zM885 680q0 54 -22 106q-21 49 -58 85q-38 37 -86 57q-47 20 -105 20q-57 0 -104 -20q-48 -20 -86 -57q-37 -36 -58 -85q-22 -52 -22 -106q0 -55 22 -107q21 -49 58 -85
q36 -35 86 -56q47 -20 104 -20q58 0 105 20q50 21 86 56q37 36 58 85q22 52 22 107z" />
    <glyph glyph-name="yen" unicode="&#xa5;" horiz-adv-x="1284" 
d="M170 784h256l-395 617h272l340 -545l344 545h266l-395 -617h260v-168h-356v-110h356v-170h-356v-336h-238v336h-354v170h354v110h-354v168z" />
    <glyph glyph-name="brokenbar" unicode="&#xa6;" horiz-adv-x="579" 
d="M178 788v779h223v-779h-223zM401 467v-786h-223v786h223z" />
    <glyph glyph-name="section" unicode="&#xa7;" horiz-adv-x="1015" 
d="M944 594q0 -82 -49 -147t-135 -103q64 -44 99 -108q36 -66 36 -144q0 -72 -29 -135q-29 -62 -81 -107t-122 -70q-72 -26 -157 -26q-81 0 -153 26q-71 26 -122 72q-51 47 -81 109q-32 66 -33 141h207q7 -70 59 -117q50 -46 123 -46q79 0 125 43q47 44 47 108q0 46 -31 82
q-30 34 -86 57l-182 70q-157 62 -231 134q-76 75 -76 188q0 78 48 144t136 103q-65 43 -100 110t-35 144q0 72 29 135q30 64 80 107q54 46 123 71t157 25q84 0 153 -25q70 -25 121 -72q52 -48 82 -110q32 -66 33 -141h-207q-7 71 -59 118q-50 46 -123 46q-79 0 -125 -43
q-47 -44 -47 -109q0 -46 31 -82q30 -34 86 -57l182 -70q156 -61 230 -134q77 -75 77 -187zM432 786q-62 -12 -102 -51q-41 -39 -41 -96q0 -107 172 -168l123 -43q62 12 102 51q41 39 41 96q0 107 -172 168z" />
    <glyph glyph-name="dieresis" unicode="&#xa8;" horiz-adv-x="1024" 
d="M442 1296q0 -51 -38 -89t-91 -38q-51 0 -88 37t-37 90t37 90t88 37q55 0 93 -38q36 -36 36 -89zM834 1296q0 -52 -37 -89q-38 -38 -90 -38q-54 0 -91 37q-36 36 -36 90t36 90q37 37 91 37q52 0 90 -38q37 -37 37 -89z" />
    <glyph glyph-name="copyright" unicode="&#xa9;" horiz-adv-x="1654" 
d="M479 715q0 79 29 149q29 71 81 121q53 51 124 81q72 30 157 30q108 0 193 -56v-174q-46 29 -89 44q-46 16 -93 16q-92 0 -153 -61q-60 -60 -60 -150q0 -45 16 -81q18 -40 45 -66q29 -28 68 -44q38 -16 84 -16q55 0 98 17q47 19 86 42v-174q-89 -55 -195 -55
q-84 0 -157 29q-72 29 -124 79q-53 51 -81 120q-29 70 -29 149zM1561 717q0 -152 -58 -289q-57 -135 -157 -235q-100 -101 -234 -159q-135 -59 -285 -59q-149 0 -284 59q-133 58 -234 159q-100 100 -157 235q-58 137 -58 289t58 289q57 134 157 236q100 101 234 160
q132 58 284 58q153 0 285 -58q134 -59 234 -160q100 -102 157 -236q58 -137 58 -289zM1370 717q0 117 -42 219t-116 179q-75 78 -173 121q-100 44 -212 44t-212 -44q-98 -43 -173 -121q-72 -75 -115 -179q-42 -102 -42 -219q0 -115 42 -217q43 -104 115 -179
q75 -78 173 -121q100 -44 212 -44t212 44q98 43 173 121q74 77 116 179t42 217z" />
    <glyph glyph-name="ordfeminine" unicode="&#xaa;" horiz-adv-x="1007" 
d="M879 1366v-754h-189v107q-39 -57 -106 -91t-148 -34q-78 0 -144 30t-116 83q-48 51 -78 126q-28 71 -28 156q0 86 28 157q29 73 78 125q48 51 116 82q64 29 144 29q83 0 149 -30q64 -29 105 -84v98h189zM477 766q48 0 86 17q44 19 70 47q27 29 46 71q17 38 17 88t-17 88
q-19 42 -46 71q-26 28 -70 47q-38 17 -86 17q-93 0 -156 -64t-63 -159t63 -159t156 -64z" />
    <glyph glyph-name="guillemotleft" unicode="&#xab;" horiz-adv-x="1021" 
d="M82 541l272 413h224l-271 -413l273 -414h-228zM475 541l273 413h223l-271 -413l273 -414h-228z" />
    <glyph glyph-name="logicalnot" unicode="&#xac;" 
d="M143 952h942v-538h-198v342h-744v196z" />
    <glyph glyph-name="registered" unicode="&#xae;" horiz-adv-x="1658" 
d="M1563 717q0 -152 -58 -289q-57 -135 -157 -235q-100 -101 -234 -159q-135 -59 -285 -59q-149 0 -284 59q-133 58 -234 159q-100 100 -157 235q-58 137 -58 289t58 289q57 134 157 236q100 101 234 160q132 58 284 58q153 0 285 -58q134 -59 234 -160q100 -102 157 -236
q58 -137 58 -289zM1372 717q0 117 -42 219t-116 179q-75 78 -173 121q-100 44 -212 44t-212 -44q-98 -43 -173 -121q-72 -75 -115 -179q-42 -102 -42 -219q0 -115 42 -217q43 -104 115 -179q75 -78 173 -121q100 -44 212 -44t212 44q98 43 173 121q74 77 116 179t42 217z
M1110 842q0 -68 -36 -121q-38 -55 -99 -84l180 -279h-203l-149 244h-47v-244h-174v717h264q117 0 190 -61q74 -62 74 -172zM932 838q0 41 -29 62q-30 22 -69 22h-78v-170h78q41 0 69 22q29 23 29 64z" />
    <glyph glyph-name="macron" unicode="&#xaf;" horiz-adv-x="1024" 
d="M217 1208v158h590v-158h-590z" />
    <glyph glyph-name="degree" unicode="&#xb0;" horiz-adv-x="847" 
d="M102 1122q0 64 26 122q25 55 69 98t101 66q58 24 126 24t126 -24q57 -23 101 -66t69 -98q25 -56 25 -122t-25 -122q-25 -55 -69 -98q-42 -41 -101 -65q-58 -24 -126 -24t-126 24q-59 24 -101 65q-44 43 -69 98q-26 58 -26 122zM283 1122q0 -61 41 -102t100 -41t100 41
t41 102q0 62 -41 103t-100 41t-100 -41t-41 -103z" />
    <glyph glyph-name="plusminus" unicode="&#xb1;" 
d="M143 983h373v352h197v-352h372v-195h-372v-348h-197v348h-373v195zM143 287h942v-195h-942v195z" />
    <glyph glyph-name="twosuperior" unicode="&#xb2;" horiz-adv-x="700" 
d="M649 612h-586v140l297 241q107 86 107 160q0 49 -30 78q-31 29 -81 29q-54 0 -85 -36t-33 -96h-172q0 66 21 120q21 53 59 93q38 39 92 61q53 21 116 21q128 0 208 -71q81 -72 81 -189q0 -79 -43 -144q-46 -71 -141 -145l-131 -104h321v-158z" />
    <glyph glyph-name="threesuperior" unicode="&#xb3;" horiz-adv-x="708" 
d="M348 1092q49 0 78 25q31 26 31 65q0 37 -29 61q-30 25 -72 25q-46 0 -75 -29t-31 -70h-168q0 59 20 103q21 47 58 81t88 52t110 18q60 0 108 -16q51 -17 86 -46q34 -28 56 -71q21 -41 21 -88q0 -106 -101 -166q66 -27 100 -74t34 -114q0 -54 -23 -102q-22 -45 -62 -79
q-41 -35 -95 -53t-120 -18q-133 0 -216 74t-83 196h177q0 -50 34 -80q35 -30 91 -30q53 0 87 28q33 27 33 72q0 49 -36 75q-37 27 -99 27h-39v134h37z" />
    <glyph glyph-name="acute" unicode="&#xb4;" horiz-adv-x="1024" 
d="M326 1178l196 292h260l-247 -292h-209z" />
    <glyph glyph-name="uni00B5" unicode="&#xb5;" horiz-adv-x="1220" 
d="M385 1004v-560q0 -118 56 -183q57 -66 161 -66q108 0 170 75q64 78 64 205v529h237v-1004h-237v133q-45 -70 -124 -115q-76 -43 -182 -43q-76 0 -145 27v-428h-238v1430h238z" />
    <glyph glyph-name="paragraph" unicode="&#xb6;" horiz-adv-x="1251" 
d="M1053 1257v-1478h-187v1478h-207v-1478h-186v870h-16q-85 0 -164 28q-72 25 -131 78q-55 49 -86 123t-31 164q0 92 32 165q33 74 87 123q57 51 133 77q78 27 170 27h729v-177h-143z" />
    <glyph glyph-name="periodcentered" unicode="&#xb7;" horiz-adv-x="546" 
d="M121 541q0 63 44 107t109 44q66 0 110 -44t44 -107q0 -64 -44 -108t-110 -44q-65 0 -109 44t-44 108z" />
    <glyph glyph-name="cedilla" unicode="&#xb8;" horiz-adv-x="1024" 
d="M535 -96q79 0 129 -49q51 -49 51 -125q0 -85 -59 -138t-148 -53q-86 0 -141 49q-56 50 -66 121h143q4 -17 21 -33q16 -16 45 -16q31 0 49 18q19 19 19 48q0 27 -19 46q-17 17 -47 17q-35 0 -59 -29l-121 66l74 174h139l-49 -102q5 3 17 5q8 1 22 1z" />
    <glyph glyph-name="onesuperior" unicode="&#xb9;" horiz-adv-x="489" 
d="M190 612v631h-137v164h316v-795h-179z" />
    <glyph glyph-name="ordmasculine" unicode="&#xba;" horiz-adv-x="940" 
d="M471 1384q83 0 156 -30t127 -84q53 -53 85 -126q31 -71 31 -155t-31 -155t-85 -125t-127 -84q-76 -31 -156 -31q-83 0 -157 31q-71 30 -127 84q-54 53 -86 125q-31 71 -31 155t31 155q32 74 86 126q56 54 127 84q72 30 157 30zM471 1210q-47 0 -84 -17q-42 -19 -68 -47
q-28 -30 -45 -71q-16 -39 -16 -86q0 -48 16 -87q15 -38 45 -69q28 -30 68 -48q37 -17 84 -17q45 0 82 17q39 18 69 48t46 69t16 87q0 47 -16 86q-17 42 -46 71q-28 28 -69 47q-37 17 -82 17z" />
    <glyph glyph-name="guillemotright" unicode="&#xbb;" horiz-adv-x="1021" 
d="M940 541l-272 -414h-224l271 414l-273 413h228zM547 541l-273 -414h-223l271 414l-273 413h227z" />
    <glyph glyph-name="onequarter" unicode="&#xbc;" horiz-adv-x="1560" 
d="M190 612v631h-137v164h316v-795h-179zM322 0h-220l1039 1407h221zM1434 313h96v-149h-96v-164h-172v164h-388v125l345 506h215v-482zM1067 313h195v287z" />
    <glyph glyph-name="onehalf" unicode="&#xbd;" horiz-adv-x="1632" 
d="M190 612v631h-137v164h316v-795h-179zM322 0h-220l1039 1407h221zM1581 0h-586v139l297 242q107 86 107 160q0 49 -30 77q-31 29 -81 29q-54 0 -85 -36q-33 -37 -34 -95h-172q0 63 22 120q21 53 59 93t91 61t117 21q127 0 208 -72t81 -188q0 -79 -43 -144
q-46 -71 -141 -145l-131 -104h321v-158z" />
    <glyph glyph-name="threequarters" unicode="&#xbe;" horiz-adv-x="1744" 
d="M348 1092q49 0 78 25q31 26 31 65q0 37 -29 61q-30 25 -72 25q-46 0 -75 -29t-31 -70h-168q0 59 20 103q21 47 58 81t88 52t110 18q60 0 108 -16q51 -17 86 -46q34 -28 56 -71q21 -41 21 -88q0 -106 -101 -166q66 -27 100 -74t34 -114q0 -54 -23 -102q-22 -45 -62 -79
q-41 -35 -95 -53t-120 -18q-133 0 -216 74t-83 196h177q0 -50 34 -80q35 -30 91 -30q53 0 87 28q33 27 33 72q0 49 -36 75q-37 27 -99 27h-39v134h37zM506 0h-219l1038 1407h221zM1618 313h96v-149h-96v-164h-172v164h-387v125l344 506h215v-482zM1251 313h195v287z" />
    <glyph glyph-name="questiondown" unicode="&#xbf;" horiz-adv-x="1085" 
d="M403 879q0 62 43 105q44 44 109 44t109 -44q43 -43 43 -105q0 -63 -43 -106q-44 -44 -109 -44t-109 44q-43 43 -43 106zM92 -35q0 97 42 180q41 81 132 164q19 16 61 50q21 17 58 54q23 23 44 58q17 28 17 66v43h240v-64q0 -152 -197 -299q-153 -118 -153 -235
q0 -85 61 -142t158 -57q99 0 163 66t66 169h238q0 -100 -35 -187q-34 -85 -97 -146q-64 -63 -149 -97q-84 -34 -188 -34q-97 0 -183 30q-85 30 -147 86t-96 131q-35 78 -35 164z" />
    <glyph glyph-name="Agrave" unicode="&#xc0;" horiz-adv-x="1417" 
d="M813 1434l584 -1434h-258l-146 362h-577l-144 -362h-252l584 1434h209zM496 578h419l-210 532zM596 1546l-248 293h260l195 -293h-207z" />
    <glyph glyph-name="Aacute" unicode="&#xc1;" horiz-adv-x="1417" 
d="M813 1434l584 -1434h-258l-146 362h-577l-144 -362h-252l584 1434h209zM496 578h419l-210 532zM616 1546l197 293h260l-248 -293h-209z" />
    <glyph glyph-name="Acircumflex" unicode="&#xc2;" horiz-adv-x="1417" 
d="M813 1434l584 -1434h-258l-146 362h-577l-144 -362h-252l584 1434h209zM496 578h419l-210 532zM391 1546l227 293h185l225 -293h-217l-104 137l-103 -137h-213z" />
    <glyph glyph-name="Atilde" unicode="&#xc3;" horiz-adv-x="1417" 
d="M813 1434l584 -1434h-258l-146 362h-577l-144 -362h-252l584 1434h209zM496 578h419l-210 532zM367 1567q-2 125 57 184t149 59q51 0 89 -15q30 -12 65 -34q9 -6 27 -17.5t26 -16.5q24 -15 54 -15q36 0 56 25q19 23 19 65h148q1 -126 -59 -185q-59 -58 -148 -58
q-53 0 -89 15q-33 14 -65 34q-11 7 -29.5 18.5t-23.5 14.5q-26 16 -53 16q-39 0 -58 -25q-18 -24 -18 -65h-147z" />
    <glyph glyph-name="Adieresis" unicode="&#xc4;" horiz-adv-x="1417" 
d="M813 1434l584 -1434h-258l-146 362h-577l-144 -362h-252l584 1434h209zM496 578h419l-210 532zM641 1694q0 -52 -38 -90q-37 -37 -91 -37q-51 0 -88 37t-37 90q0 51 37 88t88 37q54 0 92 -38q37 -37 37 -87zM1032 1694q0 -53 -37 -90t-90 -37t-90 37t-37 90q0 51 37 88
t90 37q52 0 90 -38q37 -37 37 -87z" />
    <glyph glyph-name="Aring" unicode="&#xc5;" horiz-adv-x="1417" 
d="M813 1434l584 -1434h-258l-146 362h-577l-144 -362h-252l584 1434h209zM496 578h419l-210 532zM500 1706q0 44 16 80q15 35 45 63q28 27 68 42q42 16 82 16t82 -16q38 -15 67 -42q30 -28 45 -63q17 -39 17 -80t-17 -80q-15 -35 -45 -63q-29 -27 -67 -42q-42 -16 -82 -16
t-82 16q-40 15 -68 42q-30 28 -45 63q-16 36 -16 80zM633 1706q0 -33 22 -55q23 -23 56 -23q32 0 55 23q22 22 22 55t-22 55q-23 23 -55 23q-33 0 -56 -23q-22 -22 -22 -55z" />
    <glyph glyph-name="AE" unicode="&#xc6;" horiz-adv-x="1933" 
d="M1006 360h-500l-221 -360h-269l885 1434h924v-224h-576v-364h531v-217h-531v-406h580v-223h-823v360zM1006 573v617l-375 -617h375z" />
    <glyph glyph-name="Ccedilla" unicode="&#xc7;" horiz-adv-x="1316" 
d="M815 -96q79 0 129 -49q51 -49 51 -125q0 -86 -58 -138q-59 -53 -149 -53q-86 0 -141 49q-54 49 -65 121h143q5 -18 20 -33q16 -16 46 -16q31 0 49 18t18 48q0 28 -18 46q-17 17 -47 17q-36 0 -60 -29l-121 66l70 164q-127 24 -236 89q-107 64 -186 161t-122 217
q-44 123 -44 260q0 153 58 292q56 135 156 236q99 101 235 158q135 57 291 57q107 0 201 -29q96 -30 190 -88v-264q-96 73 -189 107q-96 35 -200 35q-106 0 -194 -39q-89 -39 -155 -107q-63 -64 -102 -160q-37 -90 -37 -198q0 -106 37 -196q38 -93 102 -160t155 -107
q88 -39 194 -39q103 0 200 35q98 35 193 102v-264q-96 -58 -199 -86q-100 -27 -199 -27h-18l-37 -77q4 3 18 5q8 1 21 1z" />
    <glyph glyph-name="Egrave" unicode="&#xc8;" horiz-adv-x="1095" 
d="M168 1434h819v-224h-573v-364h528v-217h-528v-406h577v-223h-823v1434zM532 1546l-247 293h260l194 -293h-207z" />
    <glyph glyph-name="Eacute" unicode="&#xc9;" horiz-adv-x="1095" 
d="M168 1434h819v-224h-573v-364h528v-217h-528v-406h577v-223h-823v1434zM444 1546l197 293h260l-248 -293h-209z" />
    <glyph glyph-name="Ecircumflex" unicode="&#xca;" horiz-adv-x="1095" 
d="M168 1434h819v-224h-573v-364h528v-217h-528v-406h577v-223h-823v1434zM260 1546l227 293h185l225 -293h-217l-105 137l-102 -137h-213z" />
    <glyph glyph-name="Edieresis" unicode="&#xcb;" horiz-adv-x="1095" 
d="M168 1434h819v-224h-573v-364h528v-217h-528v-406h577v-223h-823v1434zM512 1694q0 -52 -38 -90q-37 -37 -91 -37q-51 0 -88 37t-37 90q0 51 37 88t88 37q54 0 92 -38q37 -37 37 -87zM903 1694q0 -53 -37 -90t-90 -37t-90 37t-37 90q0 51 37 88t90 37q52 0 90 -38
q37 -37 37 -87z" />
    <glyph glyph-name="Igrave" unicode="&#xcc;" horiz-adv-x="581" 
d="M414 1434v-1434h-246v1434h246zM190 1546l-247 293h260l194 -293h-207z" />
    <glyph glyph-name="Iacute" unicode="&#xcd;" horiz-adv-x="581" 
d="M414 1434v-1434h-246v1434h246zM184 1546l197 293h260l-248 -293h-209z" />
    <glyph glyph-name="Icircumflex" unicode="&#xce;" horiz-adv-x="581" 
d="M414 1434v-1434h-246v1434h246zM-29 1546l228 293h184l225 -293h-217l-104 137l-103 -137h-213z" />
    <glyph glyph-name="Idieresis" unicode="&#xcf;" horiz-adv-x="581" 
d="M414 1434v-1434h-246v1434h246zM221 1694q0 -52 -38 -90q-37 -37 -91 -37q-51 0 -88 37t-37 90q0 51 37 88t88 37q54 0 92 -38q37 -37 37 -87zM612 1694q0 -53 -37 -90t-90 -37t-90 37t-37 90q0 51 37 88t90 37q52 0 90 -38q37 -37 37 -87z" />
    <glyph glyph-name="Eth" unicode="&#xd0;" horiz-adv-x="1482" 
d="M1389 717q0 -153 -57 -283q-59 -135 -154 -227q-100 -97 -230 -152q-129 -55 -280 -55h-469v618h-168v207h168v609h469q148 0 280 -56t230 -151q94 -92 154 -228q57 -131 57 -282zM809 618h-365v-389h218q101 0 189 38q86 37 150 104q65 68 100 154q36 88 36 192
q0 103 -36 191t-100 155q-62 65 -150 103t-189 38h-218v-379h365v-207z" />
    <glyph glyph-name="Ntilde" unicode="&#xd1;" horiz-adv-x="1585" 
d="M1417 1434v-1434h-239l-772 1053v-1053h-238v1434h250l762 -1051v1051h237zM483 1567q-1 125 58 184t149 59q51 0 88 -15q33 -13 66 -34q9 -6 27 -17.5t26 -16.5q24 -15 53 -15q37 0 57 25q19 23 19 65h148q1 -126 -59 -185q-59 -58 -148 -58q-53 0 -89 15q-33 14 -65 34
q-11 7 -29.5 18.5t-23.5 14.5q-26 16 -53 16q-39 0 -58 -25q-18 -24 -18 -65h-148z" />
    <glyph glyph-name="Ograve" unicode="&#xd2;" horiz-adv-x="1675" 
d="M94 717q0 155 59 291t158 235q101 101 237 159q135 58 290 58q154 0 289 -58q137 -58 237 -159q101 -101 159 -235t58 -291q0 -155 -58 -289t-159 -235q-100 -101 -237 -159q-138 -59 -289 -59q-152 0 -290 59q-136 58 -237 159q-99 99 -158 235t-59 289zM346 717
q0 -104 38 -197q38 -92 104 -160q63 -64 156 -107q87 -40 194 -40q106 0 193 40q93 43 156 107q66 68 104 160q38 93 38 197q0 103 -38 196q-37 91 -104 161q-64 67 -156 109q-87 40 -193 40q-107 0 -194 -40q-92 -42 -156 -109q-67 -70 -104 -161q-38 -93 -38 -196z
M743 1546l-247 293h260l194 -293h-207z" />
    <glyph glyph-name="Oacute" unicode="&#xd3;" horiz-adv-x="1675" 
d="M94 717q0 155 59 291t158 235q101 101 237 159q135 58 290 58q154 0 289 -58q137 -58 237 -159q101 -101 159 -235t58 -291q0 -155 -58 -289t-159 -235q-100 -101 -237 -159q-138 -59 -289 -59q-152 0 -290 59q-136 58 -237 159q-99 99 -158 235t-59 289zM346 717
q0 -104 38 -197q38 -92 104 -160q63 -64 156 -107q87 -40 194 -40q106 0 193 40q93 43 156 107q66 68 104 160q38 93 38 197q0 103 -38 196q-37 91 -104 161q-64 67 -156 109q-87 40 -193 40q-107 0 -194 -40q-92 -42 -156 -109q-67 -70 -104 -161q-38 -93 -38 -196z
M725 1546l197 293h260l-248 -293h-209z" />
    <glyph glyph-name="Ocircumflex" unicode="&#xd4;" horiz-adv-x="1675" 
d="M94 717q0 155 59 291t158 235q101 101 237 159q135 58 290 58q154 0 289 -58q137 -58 237 -159q101 -101 159 -235t58 -291q0 -155 -58 -289t-159 -235q-100 -101 -237 -159q-138 -59 -289 -59q-152 0 -290 59q-136 58 -237 159q-99 99 -158 235t-59 289zM346 717
q0 -104 38 -197q38 -92 104 -160q63 -64 156 -107q87 -40 194 -40q106 0 193 40q93 43 156 107q66 68 104 160q38 93 38 197q0 103 -38 196q-37 91 -104 161q-64 67 -156 109q-87 40 -193 40q-107 0 -194 -40q-92 -42 -156 -109q-67 -70 -104 -161q-38 -93 -38 -196z
M518 1546l227 293h185l225 -293h-217l-104 137l-103 -137h-213z" />
    <glyph glyph-name="Otilde" unicode="&#xd5;" horiz-adv-x="1675" 
d="M94 717q0 155 59 291t158 235q101 101 237 159q135 58 290 58q154 0 289 -58q137 -58 237 -159q101 -101 159 -235t58 -291q0 -155 -58 -289t-159 -235q-100 -101 -237 -159q-138 -59 -289 -59q-152 0 -290 59q-136 58 -237 159q-99 99 -158 235t-59 289zM346 717
q0 -104 38 -197q38 -92 104 -160q63 -64 156 -107q87 -40 194 -40q106 0 193 40q93 43 156 107q66 68 104 160q38 93 38 197q0 103 -38 196q-37 91 -104 161q-64 67 -156 109q-87 40 -193 40q-107 0 -194 -40q-92 -42 -156 -109q-67 -70 -104 -161q-38 -93 -38 -196z
M496 1567q-2 125 57 184t149 59q52 0 89 -15q30 -12 65 -34q9 -6 27 -17.5t26 -16.5q24 -15 54 -15q36 0 56 25q19 23 19 65h148q1 -126 -59 -185q-59 -58 -148 -58q-53 0 -89 15q-33 14 -65 34q-11 7 -29.5 18.5t-23.5 14.5q-26 16 -53 16q-38 0 -57 -25t-19 -65h-147z" />
    <glyph glyph-name="Odieresis" unicode="&#xd6;" horiz-adv-x="1675" 
d="M94 717q0 155 59 291t158 235q101 101 237 159q135 58 290 58q154 0 289 -58q137 -58 237 -159q101 -101 159 -235t58 -291q0 -155 -58 -289t-159 -235q-100 -101 -237 -159q-138 -59 -289 -59q-152 0 -290 59q-136 58 -237 159q-99 99 -158 235t-59 289zM346 717
q0 -104 38 -197q38 -92 104 -160q63 -64 156 -107q87 -40 194 -40q106 0 193 40q93 43 156 107q66 68 104 160q38 93 38 197q0 103 -38 196q-37 91 -104 161q-64 67 -156 109q-87 40 -193 40q-107 0 -194 -40q-92 -42 -156 -109q-67 -70 -104 -161q-38 -93 -38 -196z
M770 1694q0 -52 -38 -90q-37 -37 -91 -37q-51 0 -88 37t-37 90q0 51 37 88t88 37q54 0 92 -38q37 -37 37 -87zM1161 1694q0 -53 -37 -90t-90 -37t-90 37t-37 90q0 51 37 88t90 37q52 0 90 -38q37 -37 37 -87z" />
    <glyph glyph-name="multiply" unicode="&#xd7;" 
d="M276 1157l338 -338l338 338l140 -139l-338 -338l338 -336l-140 -139l-338 336l-338 -336l-139 139l338 336l-338 338z" />
    <glyph glyph-name="Oslash" unicode="&#xd8;" horiz-adv-x="1675" 
d="M94 717q0 155 59 291t158 235q101 101 237 159q135 58 290 58q126 0 240 -39q115 -40 208 -110l156 162l129 -123l-156 -164q79 -97 122 -215q44 -120 44 -254q0 -155 -58 -289t-159 -235q-100 -101 -237 -159q-138 -59 -289 -59q-126 0 -240 38q-111 37 -205 108
l-155 -162l-134 129l156 160q-79 97 -122 215q-44 120 -44 254zM342 717q0 -165 88 -293l688 715q-60 40 -131 64q-72 24 -149 24q-106 0 -195 -40q-90 -41 -158 -110q-66 -68 -105 -162q-38 -93 -38 -198zM1333 717q0 85 -23 155q-24 75 -65 138l-686 -715q122 -86 279 -86
q105 0 194 40q94 42 158 108q68 69 105 162q38 94 38 198z" />
    <glyph glyph-name="Ugrave" unicode="&#xd9;" horiz-adv-x="1421" 
d="M711 -25q-134 0 -238 43t-176 121q-73 79 -110 188q-37 108 -37 242v865h245v-854q0 -166 81 -267q81 -100 235 -100q153 0 234 100q81 101 81 267v854h246v-865q0 -131 -38 -242q-37 -109 -110 -188q-72 -78 -176 -121t-237 -43zM637 1546l-248 293h260l195 -293h-207z
" />
    <glyph glyph-name="Uacute" unicode="&#xda;" horiz-adv-x="1421" 
d="M711 -25q-134 0 -238 43t-176 121q-73 79 -110 188q-37 108 -37 242v865h245v-854q0 -166 81 -267q81 -100 235 -100q153 0 234 100q81 101 81 267v854h246v-865q0 -131 -38 -242q-37 -109 -110 -188q-72 -78 -176 -121t-237 -43zM571 1546l197 293h260l-248 -293h-209z
" />
    <glyph glyph-name="Ucircumflex" unicode="&#xdb;" horiz-adv-x="1421" 
d="M711 -25q-134 0 -238 43t-176 121q-73 79 -110 188q-37 108 -37 242v865h245v-854q0 -166 81 -267q81 -100 235 -100q153 0 234 100q81 101 81 267v854h246v-865q0 -131 -38 -242q-37 -109 -110 -188q-72 -78 -176 -121t-237 -43zM393 1546l228 293h184l225 -293h-217
l-104 137l-103 -137h-213z" />
    <glyph glyph-name="Udieresis" unicode="&#xdc;" horiz-adv-x="1421" 
d="M711 -25q-134 0 -238 43t-176 121q-73 79 -110 188q-37 108 -37 242v865h245v-854q0 -166 81 -267q81 -100 235 -100q153 0 234 100q81 101 81 267v854h246v-865q0 -131 -38 -242q-37 -109 -110 -188q-72 -78 -176 -121t-237 -43zM643 1694q0 -52 -38 -90
q-37 -37 -91 -37q-51 0 -88 37t-37 90q0 51 37 88t88 37q54 0 92 -38q37 -37 37 -87zM1034 1694q0 -53 -37 -90t-90 -37t-90 37t-37 90q0 51 37 88t90 37q52 0 90 -38q37 -37 37 -87z" />
    <glyph glyph-name="Yacute" unicode="&#xdd;" horiz-adv-x="1312" 
d="M780 0h-245v631l-519 803h283l360 -576l361 576h276l-516 -803v-631zM543 1546l196 293h260l-247 -293h-209z" />
    <glyph glyph-name="Thorn" unicode="&#xde;" horiz-adv-x="1177" 
d="M414 1434v-271h219q114 0 202 -29q90 -30 156 -85t102 -138q35 -80 35 -186t-35 -185q-36 -82 -102 -137t-156 -85q-88 -29 -202 -29h-219v-289h-246v1434h246zM414 508h223q109 0 177 56q69 57 69 161t-69 161q-68 56 -177 56h-223v-434z" />
    <glyph glyph-name="germandbls" unicode="&#xdf;" horiz-adv-x="1251" 
d="M147 1004q0 112 33 205q33 94 94 159q60 64 150 101q88 36 199 36q102 0 185 -29q85 -30 146 -82q63 -54 97 -125t34 -157q0 -110 -51 -190q-52 -81 -137 -127q120 -46 193 -149q71 -101 71 -230q0 -97 -35 -179t-97 -138t-151 -88q-87 -31 -198 -31q-42 0 -87 5
q-37 4 -79 17v197q30 -11 66 -14q38 -3 69 -3q56 0 108 19q49 18 87 51q37 33 58 79q22 49 22 101q0 54 -23 100t-62 79q-41 35 -95 53t-115 18h-51v199h40q102 0 168 59q68 60 68 154q0 46 -17 81q-18 37 -49 65t-72 44t-91 16q-117 0 -179 -77q-63 -78 -63 -209v-1014
h-236v1004z" />
    <glyph glyph-name="agrave" unicode="&#xe0;" horiz-adv-x="1294" 
d="M1145 1004v-1004h-234v145q-54 -76 -145 -123t-195 -47q-103 0 -193 41q-88 40 -155 112q-65 69 -103 167q-38 97 -38 207t38 207q38 98 103 167q66 70 155 111q90 41 193 41q105 0 195 -42q89 -42 145 -120v138h234zM319 502q0 -65 24 -122q24 -56 64 -98q43 -44 95 -67
q58 -25 119 -25q60 0 118 25q54 23 96 67q39 40 63 98q24 57 24 122t-24 122q-24 58 -63 98q-41 42 -96 66q-58 25 -118 25q-61 0 -119 -25q-54 -23 -95 -66q-40 -42 -64 -98q-24 -57 -24 -122zM567 1178l-248 292h261l194 -292h-207z" />
    <glyph glyph-name="aacute" unicode="&#xe1;" horiz-adv-x="1294" 
d="M1145 1004v-1004h-234v145q-54 -76 -145 -123t-195 -47q-103 0 -193 41q-88 40 -155 112q-65 69 -103 167q-38 97 -38 207t38 207q38 98 103 167q66 70 155 111q90 41 193 41q105 0 195 -42q89 -42 145 -120v138h234zM319 502q0 -65 24 -122q24 -56 64 -98q43 -44 95 -67
q58 -25 119 -25q60 0 118 25q54 23 96 67q39 40 63 98q24 57 24 122t-24 122q-24 58 -63 98q-41 42 -96 66q-58 25 -118 25q-61 0 -119 -25q-54 -23 -95 -66q-40 -42 -64 -98q-24 -57 -24 -122zM500 1178l196 292h260l-247 -292h-209z" />
    <glyph glyph-name="acircumflex" unicode="&#xe2;" horiz-adv-x="1294" 
d="M1145 1004v-1004h-234v145q-54 -76 -145 -123t-195 -47q-103 0 -193 41q-88 40 -155 112q-65 69 -103 167q-38 97 -38 207t38 207q38 98 103 167q66 70 155 111q90 41 193 41q105 0 195 -42q89 -42 145 -120v138h234zM319 502q0 -65 24 -122q24 -56 64 -98q43 -44 95 -67
q58 -25 119 -25q60 0 118 25q54 23 96 67q39 40 63 98q24 57 24 122t-24 122q-24 58 -63 98q-41 42 -96 66q-58 25 -118 25q-61 0 -119 -25q-54 -23 -95 -66q-40 -42 -64 -98q-24 -57 -24 -122zM307 1178l228 292h184l225 -292h-217l-104 139l-103 -139h-213z" />
    <glyph glyph-name="atilde" unicode="&#xe3;" horiz-adv-x="1294" 
d="M1145 1004v-1004h-234v145q-54 -76 -145 -123t-195 -47q-103 0 -193 41q-88 40 -155 112q-65 69 -103 167q-38 97 -38 207t38 207q38 98 103 167q66 70 155 111q90 41 193 41q105 0 195 -42q89 -42 145 -120v138h234zM319 502q0 -65 24 -122q24 -56 64 -98q43 -44 95 -67
q58 -25 119 -25q60 0 118 25q54 23 96 67q39 40 63 98q24 57 24 122t-24 122q-24 58 -63 98q-41 42 -96 66q-58 25 -118 25q-61 0 -119 -25q-54 -23 -95 -66q-40 -42 -64 -98q-24 -57 -24 -122zM297 1194q-2 125 57 184q60 60 150 60q48 0 88 -16q35 -14 65 -33
q38 -24 54 -34q26 -16 53 -16q36 0 56 25t20 66h147q2 -128 -58 -186q-59 -58 -149 -58q-53 0 -89 15q-30 12 -64 34q-38 24 -54 34q-24 15 -53 15q-39 0 -57 -24q-19 -25 -19 -66h-147z" />
    <glyph glyph-name="adieresis" unicode="&#xe4;" horiz-adv-x="1294" 
d="M1145 1004v-1004h-234v145q-54 -76 -145 -123t-195 -47q-103 0 -193 41q-88 40 -155 112q-65 69 -103 167q-38 97 -38 207t38 207q38 98 103 167q66 70 155 111q90 41 193 41q105 0 195 -42q89 -42 145 -120v138h234zM319 502q0 -65 24 -122q24 -56 64 -98q43 -44 95 -67
q58 -25 119 -25q60 0 118 25q54 23 96 67q39 40 63 98q24 57 24 122t-24 122q-24 58 -63 98q-41 42 -96 66q-58 25 -118 25q-61 0 -119 -25q-54 -23 -95 -66q-40 -42 -64 -98q-24 -57 -24 -122zM555 1296q0 -51 -38 -89t-91 -38q-51 0 -88 37t-37 90t37 90t88 37
q54 0 92 -38q37 -37 37 -89zM946 1296q0 -52 -37 -89q-38 -38 -90 -38q-53 0 -90 37t-37 90t37 90t90 37q52 0 90 -38q37 -37 37 -89z" />
    <glyph glyph-name="aring" unicode="&#xe5;" horiz-adv-x="1294" 
d="M1145 1004v-1004h-234v145q-54 -76 -145 -123t-195 -47q-103 0 -193 41q-88 40 -155 112q-65 69 -103 167q-38 97 -38 207t38 207q38 98 103 167q66 70 155 111q90 41 193 41q105 0 195 -42q89 -42 145 -120v138h234zM319 502q0 -65 24 -122q24 -56 64 -98q43 -44 95 -67
q58 -25 119 -25q60 0 118 25q54 23 96 67q39 40 63 98q24 57 24 122t-24 122q-24 58 -63 98q-41 42 -96 66q-58 25 -118 25q-61 0 -119 -25q-54 -23 -95 -66q-40 -42 -64 -98q-24 -57 -24 -122zM412 1337q0 44 16 80q16 37 45 64q28 27 68 42q39 15 82 15t82 -15
q38 -15 67 -42t45 -64q17 -39 17 -80t-17 -80q-15 -35 -45 -63q-29 -27 -67 -42q-39 -15 -82 -15t-82 15q-40 15 -68 42q-30 28 -45 63q-16 36 -16 80zM545 1337q0 -33 22 -55t56 -22q33 0 55 22t22 55q0 34 -22 56t-55 22q-34 0 -56 -22t-22 -56z" />
    <glyph glyph-name="ae" unicode="&#xe6;" horiz-adv-x="1765" 
d="M1659 236q-61 -120 -171 -190q-112 -71 -265 -71q-125 0 -229 52q-102 51 -167 149q-66 -107 -170 -153q-108 -48 -233 -48q-154 0 -247 81t-93 210q0 135 88 219q89 85 268 107l273 35v43q0 76 -48 120q-49 44 -130 44q-154 0 -199 -152l-217 55q38 136 149 213
q112 78 267 78q112 0 193 -42t128 -116q67 75 157 116q91 42 197 42q108 0 195 -40q90 -41 153 -110t100 -167q36 -96 36 -209q0 -14 -2 -72h-740q4 -56 27 -102q23 -48 59 -81t85 -53t102 -20q95 0 147 43q54 45 94 111zM1458 602q-10 99 -80 166q-69 66 -172 66
q-48 0 -92 -21q-43 -21 -77 -52q-33 -30 -55 -74q-22 -45 -28 -85h504zM715 451l-228 -31q-85 -11 -126 -47q-42 -37 -42 -90q0 -54 40 -85q41 -32 102 -32q116 0 184 67q70 68 70 183v35z" />
    <glyph glyph-name="ccedilla" unicode="&#xe7;" horiz-adv-x="966" 
d="M598 -96q79 0 129 -49q51 -49 51 -125q0 -86 -58 -138q-59 -53 -149 -53q-86 0 -141 49q-54 49 -65 121h143q5 -18 20 -33q16 -16 45 -16q32 0 50 18t18 48q0 28 -18 46q-17 17 -48 17q-35 0 -59 -29l-121 66l70 168q-91 22 -157 66q-73 48 -121 112q-50 67 -77 150
q-28 87 -28 180q0 113 39 209q40 98 109 167t168 110q96 40 214 40q150 0 269 -72v-235q-119 90 -248 90q-67 0 -124 -24t-98 -65q-43 -43 -66 -98t-23 -122t23 -122q23 -54 65 -98q40 -42 98 -66q55 -23 125 -23q74 0 135 26q68 29 117 64v-236q-127 -72 -275 -72h-14
l-37 -77q4 3 18 5q8 1 21 1z" />
    <glyph glyph-name="egrave" unicode="&#xe8;" horiz-adv-x="1163" 
d="M856 602q-6 47 -29 92q-23 44 -57 74q-34 29 -82 48q-47 18 -100 18q-54 0 -100 -21q-45 -20 -81 -52t-59 -74q-23 -43 -29 -85h537zM522 1178l-248 292h261l194 -292h-207zM1057 236q-63 -119 -178 -190t-275 -71q-115 0 -211 39q-94 38 -165 109q-67 67 -107 166
q-39 96 -39 213q0 113 39 209q40 99 107 167q67 69 162 110q92 40 202 40q112 0 202 -40q92 -41 157 -110q67 -71 104 -167q37 -95 37 -209q0 -14 -2 -72h-773q4 -53 29 -101q22 -43 64 -80q37 -33 90 -53q52 -20 106 -20q100 0 156 43q57 43 100 109z" />
    <glyph glyph-name="eacute" unicode="&#xe9;" horiz-adv-x="1163" 
d="M856 602q-6 47 -29 92q-23 44 -57 74q-34 29 -82 48q-47 18 -100 18q-54 0 -100 -21q-45 -20 -81 -52t-59 -74q-23 -43 -29 -85h537zM463 1178l196 292h261l-248 -292h-209zM1057 236q-63 -119 -178 -190t-275 -71q-115 0 -211 39q-94 38 -165 109q-67 67 -107 166
q-39 96 -39 213q0 113 39 209q40 99 107 167q67 69 162 110q92 40 202 40q112 0 202 -40q92 -41 157 -110q67 -71 104 -167q37 -95 37 -209q0 -14 -2 -72h-773q4 -53 29 -101q22 -43 64 -80q37 -33 90 -53q52 -20 106 -20q100 0 156 43q57 43 100 109z" />
    <glyph glyph-name="ecircumflex" unicode="&#xea;" horiz-adv-x="1163" 
d="M274 1178l228 292h184l225 -292h-217l-104 139l-103 -139h-213zM856 602q-6 47 -29 92q-23 44 -57 74q-34 29 -82 48q-47 18 -100 18q-54 0 -100 -21q-45 -20 -81 -52t-59 -74q-23 -43 -29 -85h537zM1057 236q-63 -119 -178 -190t-275 -71q-115 0 -211 39
q-94 38 -165 109q-67 67 -107 166q-39 96 -39 213q0 113 39 209q40 99 107 167q67 69 162 110q92 40 202 40q112 0 202 -40q92 -41 157 -110q67 -71 104 -167q37 -95 37 -209q0 -14 -2 -72h-773q4 -53 29 -101q22 -43 64 -80q37 -33 90 -53q52 -20 106 -20q100 0 156 43
q57 43 100 109z" />
    <glyph glyph-name="edieresis" unicode="&#xeb;" horiz-adv-x="1163" 
d="M856 602q-6 47 -29 92q-23 44 -57 74q-34 29 -82 48q-47 18 -100 18q-54 0 -100 -21q-45 -20 -81 -52t-59 -74q-23 -43 -29 -85h537zM915 1296q0 -53 -36 -89q-38 -38 -91 -38t-90 37t-37 90t37 90t90 37t91 -38q36 -36 36 -89zM524 1296q0 -51 -38 -89t-91 -38
q-51 0 -88 37t-37 90t37 90t88 37q54 0 92 -38q37 -37 37 -89zM1057 236q-63 -119 -178 -190t-275 -71q-115 0 -211 39q-94 38 -165 109q-67 67 -107 166q-39 96 -39 213q0 113 39 209q40 99 107 167q67 69 162 110q92 40 202 40q112 0 202 -40q92 -41 157 -110
q67 -71 104 -167q37 -95 37 -209q0 -14 -2 -72h-773q4 -53 29 -101q22 -43 64 -80q37 -33 90 -53q52 -20 106 -20q100 0 156 43q57 43 100 109z" />
    <glyph glyph-name="igrave" unicode="&#xec;" horiz-adv-x="532" 
d="M385 1004v-1004h-238v1004h238zM164 1178l-248 292h260l195 -292h-207z" />
    <glyph glyph-name="iacute" unicode="&#xed;" horiz-adv-x="532" 
d="M385 1004v-1004h-238v1004h238zM160 1178l196 292h260l-247 -292h-209z" />
    <glyph glyph-name="icircumflex" unicode="&#xee;" horiz-adv-x="532" 
d="M385 1004v-1004h-238v1004h238zM-53 1178l227 292h184l226 -292h-217l-105 139l-102 -139h-213z" />
    <glyph glyph-name="idieresis" unicode="&#xef;" horiz-adv-x="532" 
d="M385 1004v-1004h-238v1004h238zM197 1296q0 -51 -38 -89t-91 -38q-51 0 -88 37t-37 90t37 90t88 37q54 0 92 -38q37 -37 37 -89zM588 1296q0 -52 -37 -89q-38 -38 -90 -38q-53 0 -90 37t-37 90t37 90t90 37q52 0 90 -38q37 -37 37 -89z" />
    <glyph glyph-name="eth" unicode="&#xf0;" horiz-adv-x="1236" 
d="M1151 504q0 -116 -40 -211q-41 -97 -111 -167q-71 -71 -169 -111t-213 -40t-211 40q-97 41 -168 111q-71 72 -112 166q-41 96 -41 208q0 98 36 185t99 153q61 64 150 103q87 38 184 38q67 0 127 -15q57 -14 100 -51q-23 33 -33 46q-16 21 -52 67t-54 68q-9 11 -22.5 28
t-18.5 23l-12 14l-264 -108l-82 129l243 100l-172 207h271l102 -125l240 98l82 -129l-222 -90l60 -72q89 -110 144 -191q59 -88 93 -166q37 -86 51 -154q15 -75 15 -154zM911 492q0 62 -21 114t-61 92t-93 62t-118 22t-116 -22q-52 -22 -93 -63t-63 -93q-22 -51 -22 -112
q0 -63 22 -117q22 -55 63 -96t93 -65t116 -24t117 24t92 65q40 41 62 96q22 54 22 117z" />
    <glyph glyph-name="ntilde" unicode="&#xf1;" horiz-adv-x="1216" 
d="M385 0h-238v1004h238v-134q45 70 124 115q76 43 183 43q185 0 287 -114t102 -310v-604h-237v559q0 116 -58 183t-165 67t-171 -76q-65 -77 -65 -205v-528zM279 1194q-2 125 57 184q60 60 149 60q48 0 88 -16q37 -15 66 -33q9 -6 27 -17.5t26 -16.5q26 -16 53 -16
q37 0 57 25q19 23 19 66h148q1 -127 -59 -186q-59 -58 -148 -58q-53 0 -89 15q-33 14 -65 34q-9 6 -27 17.5t-26 16.5q-24 15 -53 15q-40 0 -58 -24t-18 -66h-147z" />
    <glyph glyph-name="ograve" unicode="&#xf2;" horiz-adv-x="1232" 
d="M616 1028q113 0 213 -41q97 -40 170 -111q71 -69 112 -167q40 -95 40 -207t-40 -207q-41 -98 -112 -167q-74 -73 -170 -112q-100 -41 -213 -41t-213 41q-96 39 -170 112q-69 68 -111 167q-40 95 -40 207t40 207q42 99 111 167q73 71 170 111q100 41 213 41zM616 811
q-61 0 -117 -25q-54 -24 -95 -65q-38 -38 -63 -98q-24 -57 -24 -121q0 -65 24 -122q25 -59 63 -97q43 -43 95 -66q54 -24 117 -24q64 0 118 24q50 22 94 66q40 40 64 97q23 55 23 122q0 66 -23 121q-25 59 -64 98q-42 42 -94 65q-56 25 -118 25zM520 1178l-248 292h260
l195 -292h-207z" />
    <glyph glyph-name="oacute" unicode="&#xf3;" horiz-adv-x="1232" 
d="M616 1028q113 0 213 -41q97 -40 170 -111q71 -69 112 -167q40 -95 40 -207t-40 -207q-41 -98 -112 -167q-74 -73 -170 -112q-100 -41 -213 -41t-213 41q-96 39 -170 112q-69 68 -111 167q-40 95 -40 207t40 207q42 99 111 167q73 71 170 111q100 41 213 41zM616 811
q-61 0 -117 -25q-54 -24 -95 -65q-38 -38 -63 -98q-24 -57 -24 -121q0 -65 24 -122q25 -59 63 -97q43 -43 95 -66q54 -24 117 -24q64 0 118 24q50 22 94 66q40 40 64 97q23 55 23 122q0 66 -23 121q-25 59 -64 98q-42 42 -94 65q-56 25 -118 25zM504 1178l196 292h261
l-248 -292h-209z" />
    <glyph glyph-name="ocircumflex" unicode="&#xf4;" horiz-adv-x="1232" 
d="M616 1028q113 0 213 -41q97 -40 170 -111q71 -69 112 -167q40 -95 40 -207t-40 -207q-41 -98 -112 -167q-74 -73 -170 -112q-100 -41 -213 -41t-213 41q-96 39 -170 112q-69 68 -111 167q-40 95 -40 207t40 207q42 99 111 167q73 71 170 111q100 41 213 41zM616 811
q-61 0 -117 -25q-54 -24 -95 -65q-38 -38 -63 -98q-24 -57 -24 -121q0 -65 24 -122q25 -59 63 -97q43 -43 95 -66q54 -24 117 -24q64 0 118 24q50 22 94 66q40 40 64 97q23 55 23 122q0 66 -23 121q-25 59 -64 98q-42 42 -94 65q-56 25 -118 25zM297 1178l227 292h185
l225 -292h-217l-105 139l-102 -139h-213z" />
    <glyph glyph-name="otilde" unicode="&#xf5;" horiz-adv-x="1232" 
d="M616 1028q113 0 213 -41q97 -40 170 -111q71 -69 112 -167q40 -95 40 -207t-40 -207q-41 -98 -112 -167q-74 -73 -170 -112q-100 -41 -213 -41t-213 41q-96 39 -170 112q-69 68 -111 167q-40 95 -40 207t40 207q42 99 111 167q73 71 170 111q100 41 213 41zM616 811
q-61 0 -117 -25q-54 -24 -95 -65q-38 -38 -63 -98q-24 -57 -24 -121q0 -65 24 -122q25 -59 63 -97q43 -43 95 -66q54 -24 117 -24q64 0 118 24q50 22 94 66q40 40 64 97q23 55 23 122q0 66 -23 121q-25 59 -64 98q-42 42 -94 65q-56 25 -118 25zM272 1194q-2 124 58 184
t149 60q48 0 88 -16q37 -15 66 -33q9 -6 27 -17.5t26 -16.5q26 -16 53 -16q37 0 57 25q19 23 19 66h148q1 -127 -59 -186q-59 -58 -148 -58q-53 0 -89 15q-33 14 -65 34q-9 6 -27 17.5t-26 16.5q-24 15 -53 15q-40 0 -58 -24t-18 -66h-148z" />
    <glyph glyph-name="odieresis" unicode="&#xf6;" horiz-adv-x="1232" 
d="M616 1028q113 0 213 -41q97 -40 170 -111q71 -69 112 -167q40 -95 40 -207t-40 -207q-41 -98 -112 -167q-74 -73 -170 -112q-100 -41 -213 -41t-213 41q-96 39 -170 112q-69 68 -111 167q-40 95 -40 207t40 207q42 99 111 167q73 71 170 111q100 41 213 41zM616 811
q-61 0 -117 -25q-54 -24 -95 -65q-38 -38 -63 -98q-24 -57 -24 -121q0 -65 24 -122q25 -59 63 -97q43 -43 95 -66q54 -24 117 -24q64 0 118 24q50 22 94 66q40 40 64 97q23 55 23 122q0 66 -23 121q-25 59 -64 98q-42 42 -94 65q-56 25 -118 25zM547 1296q0 -51 -38 -89
t-91 -38q-51 0 -88 37t-37 90t37 90t88 37q54 0 92 -38q37 -37 37 -89zM938 1296q0 -52 -37 -89q-38 -38 -90 -38q-53 0 -90 37t-37 90t37 90t90 37q52 0 90 -38q37 -37 37 -89z" />
    <glyph glyph-name="divide" unicode="&#xf7;" 
d="M475 309q0 58 40 98q39 39 99 39q61 0 100 -39q40 -40 40 -98q0 -57 -40 -97t-100 -40q-59 0 -99 40t-40 97zM475 1057q0 57 40 97t99 40q60 0 100 -40t40 -97q0 -58 -40 -98q-39 -39 -100 -39q-60 0 -99 39q-40 40 -40 98zM143 584v198h942v-198h-942z" />
    <glyph glyph-name="oslash" unicode="&#xf8;" horiz-adv-x="1236" 
d="M618 1028q88 0 165 -24q76 -24 143 -68l100 102l117 -114l-99 -101q53 -68 80 -147q29 -84 29 -174q0 -110 -41 -207q-41 -96 -113 -167q-74 -73 -169 -112q-99 -41 -212 -41q-88 0 -164 24q-79 25 -143 67l-100 -105l-117 117l99 100q-55 71 -81 150q-28 86 -28 174
q0 110 41 207q41 96 113 167t169 111q99 41 211 41zM618 819q-64 0 -120 -24t-97 -68q-40 -43 -64 -101t-24 -124q0 -84 39 -158l420 432q-31 19 -74 32q-36 11 -80 11zM924 502q0 82 -39 155l-418 -432q67 -41 151 -41q62 0 120 26t98 69t64 100t24 123z" />
    <glyph glyph-name="ugrave" unicode="&#xf9;" horiz-adv-x="1208" 
d="M823 1004h238v-1004h-238v133q-45 -70 -124 -115q-76 -43 -181 -43q-179 0 -281 114t-102 310v605h238v-560q0 -118 56 -183q57 -66 161 -66q108 0 170 75q63 77 63 205v529zM518 1178l-248 292h260l195 -292h-207z" />
    <glyph glyph-name="uacute" unicode="&#xfa;" horiz-adv-x="1208" 
d="M823 1004h238v-1004h-238v133q-45 -70 -124 -115q-76 -43 -181 -43q-179 0 -281 114t-102 310v605h238v-560q0 -118 56 -183q57 -66 161 -66q108 0 170 75q63 77 63 205v529zM465 1178l197 292h260l-248 -292h-209z" />
    <glyph glyph-name="ucircumflex" unicode="&#xfb;" horiz-adv-x="1208" 
d="M823 1004h238v-1004h-238v133q-45 -70 -124 -115q-76 -43 -181 -43q-179 0 -281 114t-102 310v605h238v-560q0 -118 56 -183q57 -66 161 -66q108 0 170 75q63 77 63 205v529zM279 1178l227 292h184l225 -292h-217l-104 139l-102 -139h-213z" />
    <glyph glyph-name="udieresis" unicode="&#xfc;" horiz-adv-x="1208" 
d="M823 1004h238v-1004h-238v133q-45 -70 -124 -115q-76 -43 -181 -43q-179 0 -281 114t-102 310v605h238v-560q0 -118 56 -183q57 -66 161 -66q108 0 170 75q63 77 63 205v529zM528 1296q0 -51 -38 -89t-91 -38q-51 0 -88 37t-37 90t37 90t88 37q55 0 93 -38q36 -36 36 -89
zM920 1296q0 -52 -37 -89q-38 -38 -90 -38q-54 0 -91 37q-36 36 -36 90t36 90q37 37 91 37q52 0 90 -38q37 -37 37 -89z" />
    <glyph glyph-name="yacute" unicode="&#xfd;" horiz-adv-x="1110" 
d="M238 -455q-43 0 -81 10q-39 10 -59 19v203q46 -21 105 -21q63 0 106 34t78 120l43 104l-401 990h252l274 -723l283 723h243l-465 -1125q-73 -178 -162 -256q-88 -78 -216 -78zM444 1178l197 292h260l-248 -292h-209z" />
    <glyph glyph-name="thorn" unicode="&#xfe;" horiz-adv-x="1294" 
d="M383 1434v-574q56 78 145 123q90 45 195 45q106 0 193 -40q91 -42 155 -110q67 -71 104 -167q37 -95 37 -209q0 -112 -37 -207q-37 -96 -104 -167q-67 -72 -155 -112q-90 -41 -193 -41q-105 0 -195 42q-89 42 -145 120v-563h-236v1860h236zM975 502q0 65 -24 122
q-24 58 -63 98q-41 43 -95 66q-58 25 -119 25t-119 -25q-54 -23 -95 -66q-40 -42 -64 -98q-23 -55 -23 -122t23 -122q24 -56 64 -98q43 -44 95 -67q58 -25 119 -25t119 25q52 23 95 67q39 40 63 98q24 57 24 122z" />
    <glyph glyph-name="ydieresis" unicode="&#xff;" horiz-adv-x="1110" 
d="M238 -455q-43 0 -81 10q-39 10 -59 19v203q46 -21 105 -21q63 0 106 34t78 120l43 104l-401 990h252l274 -723l283 723h243l-465 -1125q-73 -178 -162 -256q-88 -78 -216 -78zM487 1296q0 -52 -37 -89q-38 -38 -92 -38q-51 0 -88 37t-37 90t37 90t88 37q55 0 93 -38
q36 -36 36 -89zM879 1296q0 -52 -37 -89q-38 -38 -90 -38q-53 0 -90 37t-37 90t37 90t90 37q52 0 90 -38q37 -37 37 -89z" />
    <glyph glyph-name="Amacron" unicode="&#x100;" horiz-adv-x="1417" 
d="M813 1434l584 -1434h-258l-146 362h-577l-144 -362h-252l584 1434h209zM496 578h419l-210 532zM416 1581v158h590v-158h-590z" />
    <glyph glyph-name="amacron" unicode="&#x101;" horiz-adv-x="1294" 
d="M1145 1004v-1004h-234v145q-54 -76 -145 -123t-195 -47q-103 0 -193 41q-88 40 -155 112q-65 69 -103 167q-38 97 -38 207t38 207q38 98 103 167q66 70 155 111q90 41 193 41q105 0 195 -42q89 -42 145 -120v138h234zM319 502q0 -65 24 -122q24 -56 64 -98q43 -44 95 -67
q58 -25 119 -25q60 0 118 25q54 23 96 67q39 40 63 98q24 57 24 122t-24 122q-24 58 -63 98q-41 42 -96 66q-58 25 -118 25q-61 0 -119 -25q-54 -23 -95 -66q-40 -42 -64 -98q-24 -57 -24 -122zM334 1210v158h590v-158h-590z" />
    <glyph glyph-name="Abreve" unicode="&#x102;" horiz-adv-x="1417" 
d="M813 1434l584 -1434h-258l-146 362h-577l-144 -362h-252l584 1434h209zM496 578h419l-210 532zM711 1704q53 0 86 35q32 34 37 94h167q0 -130 -81 -207q-82 -78 -209 -78q-129 0 -211 78t-82 207h168q5 -61 38 -94q35 -35 87 -35z" />
    <glyph glyph-name="abreve" unicode="&#x103;" horiz-adv-x="1294" 
d="M1145 1004v-1004h-234v145q-54 -76 -145 -123t-195 -47q-103 0 -193 41q-88 40 -155 112q-65 69 -103 167q-38 97 -38 207t38 207q38 98 103 167q66 70 155 111q90 41 193 41q105 0 195 -42q89 -42 145 -120v138h234zM319 502q0 -65 24 -122q24 -56 64 -98q43 -44 95 -67
q58 -25 119 -25q60 0 118 25q54 23 96 67q39 40 63 98q24 57 24 122t-24 122q-24 58 -63 98q-41 42 -96 66q-58 25 -118 25q-61 0 -119 -25q-54 -23 -95 -66q-40 -42 -64 -98q-24 -57 -24 -122zM623 1331q53 0 86 35q31 33 36 94h168q0 -129 -82 -207q-81 -77 -208 -77
q-130 0 -211 77q-82 78 -82 207h168q5 -61 38 -94q35 -35 87 -35z" />
    <glyph glyph-name="Aogonek" unicode="&#x104;" horiz-adv-x="1417" 
d="M813 1434l584 -1434q-112 -18 -182 -75t-70 -120q0 -37 22 -55q23 -18 64 -18q55 0 94 26v-151q-63 -29 -137 -29q-104 0 -164 51q-59 50 -59 138q0 141 174 233l-146 362h-577l-144 -362h-252l584 1434h209zM496 578h419l-210 532z" />
    <glyph glyph-name="aogonek" unicode="&#x105;" horiz-adv-x="1294" 
d="M1145 1004v-1004q-46 -12 -88 -32q-44 -21 -72 -45q-31 -27 -49 -56q-18 -30 -18 -62q0 -37 22 -55t64 -18q55 0 94 26v-151q-63 -29 -137 -29q-104 0 -164 51t-60 138q0 141 174 233v145q-54 -76 -145 -123t-195 -47q-103 0 -193 41q-88 40 -155 112q-65 69 -103 167
q-38 97 -38 207t38 207q38 98 103 167q66 70 155 111q90 41 193 41q105 0 195 -42q89 -42 145 -120v138h234zM319 502q0 -65 24 -122q24 -56 64 -98q43 -44 95 -67q58 -25 119 -25q60 0 118 25q54 23 96 67q39 40 63 98q24 57 24 122t-24 122q-24 58 -63 98q-41 42 -96 66
q-58 25 -118 25q-61 0 -119 -25q-54 -23 -95 -66q-40 -42 -64 -98q-24 -57 -24 -122z" />
    <glyph glyph-name="Cacute" unicode="&#x106;" horiz-adv-x="1316" 
d="M94 717q0 153 58 292q56 135 156 236q99 101 235 158q135 57 291 57q107 0 201 -29q96 -30 190 -88v-264q-96 73 -189 107q-96 35 -200 35q-106 0 -194 -39q-89 -39 -155 -107q-63 -64 -102 -160q-37 -90 -37 -198q0 -106 37 -196q38 -93 102 -160t155 -107
q88 -39 194 -39q103 0 200 35q98 35 193 102v-264q-96 -58 -199 -86q-100 -27 -199 -27q-155 0 -289 57q-139 59 -234 156q-99 100 -156 236q-58 137 -58 293zM670 1546l196 293h260l-247 -293h-209z" />
    <glyph glyph-name="cacute" unicode="&#x107;" horiz-adv-x="966" 
d="M82 502q0 113 39 209q40 98 109 167t168 110q96 40 214 40q150 0 269 -72v-235q-119 90 -248 90q-67 0 -124 -24t-98 -65q-43 -43 -66 -98t-23 -122t23 -122q23 -54 65 -98q40 -42 98 -66q55 -23 125 -23q74 0 135 26q68 29 117 64v-236q-127 -72 -275 -72
q-116 0 -214 39t-167 110q-69 70 -108 167q-39 96 -39 211zM451 1178l196 292h260l-248 -292h-208z" />
    <glyph glyph-name="Ccircumflex" unicode="&#x108;" horiz-adv-x="1316" 
d="M94 717q0 153 58 292q56 135 156 236q99 101 235 158q135 57 291 57q107 0 201 -29q96 -30 190 -88v-264q-96 73 -189 107q-96 35 -200 35q-106 0 -194 -39q-89 -39 -155 -107q-63 -64 -102 -160q-37 -90 -37 -198q0 -106 37 -196q38 -93 102 -160t155 -107
q88 -39 194 -39q103 0 200 35q98 35 193 102v-264q-96 -58 -199 -86q-100 -27 -199 -27q-155 0 -289 57q-139 59 -234 156q-99 100 -156 236q-58 137 -58 293zM496 1546l227 293h184l226 -293h-218l-104 137l-102 -137h-213z" />
    <glyph glyph-name="ccircumflex" unicode="&#x109;" horiz-adv-x="966" 
d="M82 502q0 113 39 209q40 98 109 167t168 110q96 40 214 40q150 0 269 -72v-235q-119 90 -248 90q-67 0 -124 -24t-98 -65q-43 -43 -66 -98t-23 -122t23 -122q23 -54 65 -98q40 -42 98 -66q55 -23 125 -23q74 0 135 26q68 29 117 64v-236q-127 -72 -275 -72
q-116 0 -214 39t-167 110q-69 70 -108 167q-39 96 -39 211zM266 1178l228 292h184l225 -292h-217l-104 139l-103 -139h-213z" />
    <glyph glyph-name="Cdotaccent" unicode="&#x10a;" horiz-adv-x="1316" 
d="M94 717q0 153 58 292q56 135 156 236q99 101 235 158q135 57 291 57q107 0 201 -29q96 -30 190 -88v-264q-96 73 -189 107q-96 35 -200 35q-106 0 -194 -39q-89 -39 -155 -107q-63 -64 -102 -160q-37 -90 -37 -198q0 -106 37 -196q38 -93 102 -160t155 -107
q88 -39 194 -39q103 0 200 35q98 35 193 102v-264q-96 -58 -199 -86q-100 -27 -199 -27q-155 0 -289 57q-139 59 -234 156q-99 100 -156 236q-58 137 -58 293zM961 1704q0 -57 -41 -98t-101 -41q-58 0 -98 40q-41 41 -41 99q0 59 41 100t98 41q61 0 101 -42q41 -43 41 -99z
" />
    <glyph glyph-name="cdotaccent" unicode="&#x10b;" horiz-adv-x="966" 
d="M82 502q0 113 39 209q40 98 109 167t168 110q96 40 214 40q150 0 269 -72v-235q-119 90 -248 90q-67 0 -124 -24t-98 -65q-43 -43 -66 -98t-23 -122t23 -122q23 -54 65 -98q40 -42 98 -66q55 -23 125 -23q74 0 135 26q68 29 117 64v-236q-127 -72 -275 -72
q-116 0 -214 39t-167 110q-69 70 -108 167q-39 96 -39 211zM748 1296q0 -58 -42 -102q-42 -43 -106 -43q-59 0 -102 43t-43 102q0 62 43 105t102 43q64 0 106 -44t42 -104z" />
    <glyph glyph-name="Ccaron" unicode="&#x10c;" horiz-adv-x="1316" 
d="M94 717q0 153 58 292q56 135 156 236q99 101 235 158q135 57 291 57q107 0 201 -29q96 -30 190 -88v-264q-96 73 -189 107q-96 35 -200 35q-106 0 -194 -39q-89 -39 -155 -107q-63 -64 -102 -160q-37 -90 -37 -198q0 -106 37 -196q38 -93 102 -160t155 -107
q88 -39 194 -39q103 0 200 35q98 35 193 102v-264q-96 -58 -199 -86q-100 -27 -199 -27q-155 0 -289 57q-139 59 -234 156q-99 100 -156 236q-58 137 -58 293zM1133 1839l-226 -293h-184l-227 293h217l104 -139l105 139h211z" />
    <glyph glyph-name="ccaron" unicode="&#x10d;" horiz-adv-x="966" 
d="M82 502q0 113 39 209q40 98 109 167t168 110q96 40 214 40q150 0 269 -72v-235q-119 90 -248 90q-67 0 -124 -24t-98 -65q-43 -43 -66 -98t-23 -122t23 -122q23 -54 65 -98q40 -42 98 -66q55 -23 125 -23q74 0 135 26q68 29 117 64v-236q-127 -72 -275 -72
q-116 0 -214 39t-167 110q-69 70 -108 167q-39 96 -39 211zM911 1470l-225 -292h-184l-228 292h218l104 -139l104 139h211z" />
    <glyph glyph-name="Dcaron" unicode="&#x10e;" horiz-adv-x="1452" 
d="M1358 717q0 -155 -56 -283q-58 -133 -155 -227q-100 -97 -229 -152t-281 -55h-469v1434h469q149 0 281 -56q131 -56 229 -151q96 -93 155 -228q56 -128 56 -282zM1106 717q0 103 -36 191q-36 89 -99 155q-61 64 -151 103q-88 38 -189 38h-217v-975h217q101 0 189 38
t151 104t99 154t36 192zM985 1839l-225 -293h-185l-227 293h217l105 -139l104 139h211z" />
    <glyph glyph-name="dcaron" unicode="&#x10f;" horiz-adv-x="1294" 
d="M911 0v143q-56 -78 -145 -123q-90 -45 -195 -45q-106 0 -193 40q-89 41 -155 111q-65 69 -103 167q-38 97 -38 209q0 110 38 207q38 98 103 167q66 70 155 111q90 41 193 41q105 0 195 -42q89 -42 145 -120v568h236v-1434h-236zM319 502q0 -65 24 -122q24 -56 64 -98
q43 -44 95 -67q58 -25 119 -25q60 0 118 25q54 23 96 67q39 40 63 98q24 57 24 122t-24 122q-24 58 -63 98q-41 42 -96 66q-58 25 -118 25q-61 0 -119 -25q-54 -23 -95 -66q-40 -42 -64 -98q-24 -57 -24 -122zM1229 1116l61 342h236l-99 -342h-198z" />
    <glyph glyph-name="Dcroat" unicode="&#x110;" horiz-adv-x="1482" 
d="M1389 717q0 -153 -57 -283q-59 -135 -154 -227q-100 -97 -230 -152q-129 -55 -280 -55h-469v618h-168v207h168v609h469q148 0 280 -56t230 -151q94 -92 154 -228q57 -131 57 -282zM809 618h-365v-389h218q101 0 189 38q86 37 150 104q65 68 100 154q36 88 36 192
q0 103 -36 191t-100 155q-62 65 -150 103t-189 38h-218v-379h365v-207z" />
    <glyph glyph-name="dcroat" unicode="&#x111;" horiz-adv-x="1302" 
d="M907 0v143q-56 -78 -145 -123q-90 -45 -195 -45q-104 0 -191 40q-89 41 -155 110q-62 65 -102 165q-37 93 -37 206q0 109 37 202q39 98 102 164q66 69 155 110q87 40 191 40q105 0 195 -39q89 -39 145 -111v264h-420v162h420v146h236v-146h133v-162h-133v-1126h-236z
M319 496q0 -62 23 -119q23 -56 62 -97q40 -42 96 -66t118 -24q64 0 118 24q53 24 94 66q40 41 64 97t24 119q0 62 -24 119q-25 59 -64 98q-40 40 -94 64t-118 24q-62 0 -118 -24t-96 -64q-39 -39 -62 -98q-23 -58 -23 -119z" />
    <glyph glyph-name="Emacron" unicode="&#x112;" horiz-adv-x="1095" 
d="M168 1434h819v-224h-573v-364h528v-217h-528v-406h577v-223h-823v1434zM285 1581v158h589v-158h-589z" />
    <glyph glyph-name="emacron" unicode="&#x113;" horiz-adv-x="1163" 
d="M856 602q-6 47 -29 92q-23 44 -57 74q-34 29 -82 48q-47 18 -100 18q-54 0 -100 -21q-45 -20 -81 -52t-59 -74q-23 -43 -29 -85h537zM297 1208v158h590v-158h-590zM1057 236q-63 -119 -178 -190t-275 -71q-115 0 -211 39q-94 38 -165 109q-67 67 -107 166q-39 96 -39 213
q0 113 39 209q40 99 107 167q67 69 162 110q92 40 202 40q112 0 202 -40q92 -41 157 -110q67 -71 104 -167q37 -95 37 -209q0 -14 -2 -72h-773q4 -53 29 -101q22 -43 64 -80q37 -33 90 -53q52 -20 106 -20q100 0 156 43q57 43 100 109z" />
    <glyph glyph-name="Ebreve" unicode="&#x114;" horiz-adv-x="1095" 
d="M168 1434h819v-224h-573v-364h528v-217h-528v-406h577v-223h-823v1434zM580 1704q53 0 86 35q31 33 36 94h168q0 -129 -82 -207t-208 -78q-128 0 -211 78q-82 78 -82 207h168q5 -61 38 -94q35 -35 87 -35z" />
    <glyph glyph-name="ebreve" unicode="&#x115;" horiz-adv-x="1163" 
d="M592 1331q53 0 86 35q32 34 37 94h168q0 -129 -82 -207q-81 -77 -209 -77q-130 0 -211 77q-82 78 -82 207h168q5 -61 38 -94q35 -35 87 -35zM856 602q-6 47 -29 92q-23 44 -57 74q-34 29 -82 48q-47 18 -100 18q-54 0 -100 -21q-45 -20 -81 -52t-59 -74q-23 -43 -29 -85
h537zM1057 236q-63 -119 -178 -190t-275 -71q-115 0 -211 39q-94 38 -165 109q-67 67 -107 166q-39 96 -39 213q0 113 39 209q40 99 107 167q67 69 162 110q92 40 202 40q112 0 202 -40q92 -41 157 -110q67 -71 104 -167q37 -95 37 -209q0 -14 -2 -72h-773q4 -53 29 -101
q22 -43 64 -80q37 -33 90 -53q52 -20 106 -20q100 0 156 43q57 43 100 109z" />
    <glyph glyph-name="Edotaccent" unicode="&#x116;" horiz-adv-x="1095" 
d="M168 1434h819v-224h-573v-364h528v-217h-528v-406h577v-223h-823v1434zM721 1704q0 -57 -41 -98t-100 -41t-99 40q-41 41 -41 99q0 59 41 100t99 41q60 0 100 -42q41 -43 41 -99z" />
    <glyph glyph-name="edotaccent" unicode="&#x117;" horiz-adv-x="1163" 
d="M856 602q-6 47 -29 92q-23 44 -57 74q-34 29 -82 48q-47 18 -100 18q-54 0 -100 -21q-45 -20 -81 -52t-59 -74q-23 -43 -29 -85h537zM739 1296q0 -58 -42 -102q-42 -43 -105 -43q-60 0 -103 43t-43 102q0 62 43 105t103 43q63 0 105 -44t42 -104zM1057 236
q-63 -119 -178 -190t-275 -71q-115 0 -211 39q-94 38 -165 109q-67 67 -107 166q-39 96 -39 213q0 113 39 209q40 99 107 167q67 69 162 110q92 40 202 40q112 0 202 -40q92 -41 157 -110q67 -71 104 -167q37 -95 37 -209q0 -14 -2 -72h-773q4 -53 29 -101q22 -43 64 -80
q37 -33 90 -53q52 -20 106 -20q100 0 156 43q57 43 100 109z" />
    <glyph glyph-name="Eogonek" unicode="&#x118;" horiz-adv-x="1095" 
d="M168 1434h819v-224h-573v-364h528v-217h-528v-406h577v-223h-26q-46 -12 -88 -32q-44 -21 -72 -45q-31 -27 -49 -56q-19 -32 -19 -62q0 -37 23 -55q22 -18 63 -18q56 0 95 26v-151q-63 -29 -138 -29q-104 0 -164 51q-59 50 -59 138q0 141 174 233h-563v1434z" />
    <glyph glyph-name="eogonek" unicode="&#x119;" horiz-adv-x="1163" 
d="M1057 236q-30 -56 -75 -108q-44 -50 -97 -97q-52 -46 -83 -99q-30 -51 -30 -108q0 -92 86 -92q53 0 96 26v-151q-64 -29 -145 -29q-102 0 -161 53q-58 52 -58 138q0 63 24 114q25 53 68 99q-47 -7 -78 -7q-115 0 -211 39q-94 38 -165 109q-67 67 -107 166q-39 96 -39 213
q0 113 39 209q40 99 107 167q67 69 162 110q92 40 202 40q112 0 202 -40q92 -41 157 -110q67 -71 104 -167q37 -95 37 -209q0 -14 -2 -72h-773q4 -53 29 -101q22 -43 64 -80q37 -33 90 -53q52 -20 106 -20q100 0 156 43q57 43 100 109zM856 602q-6 47 -29 92q-23 44 -57 74
q-34 29 -82 48q-47 18 -100 18q-54 0 -100 -21q-45 -20 -81 -52t-59 -74q-23 -43 -29 -85h537z" />
    <glyph glyph-name="Ecaron" unicode="&#x11a;" horiz-adv-x="1095" 
d="M168 1434h819v-224h-573v-364h528v-217h-528v-406h577v-223h-823v1434zM897 1839l-225 -293h-185l-227 293h217l105 -139l104 139h211z" />
    <glyph glyph-name="ecaron" unicode="&#x11b;" horiz-adv-x="1163" 
d="M909 1470l-225 -292h-184l-228 292h217l105 -139l104 139h211zM856 602q-6 47 -29 92q-23 44 -57 74q-34 29 -82 48q-47 18 -100 18q-54 0 -100 -21q-45 -20 -81 -52t-59 -74q-23 -43 -29 -85h537zM1057 236q-63 -119 -178 -190t-275 -71q-115 0 -211 39q-94 38 -165 109
q-67 67 -107 166q-39 96 -39 213q0 113 39 209q40 99 107 167q67 69 162 110q92 40 202 40q112 0 202 -40q92 -41 157 -110q67 -71 104 -167q37 -95 37 -209q0 -14 -2 -72h-773q4 -53 29 -101q22 -43 64 -80q37 -33 90 -53q52 -20 106 -20q100 0 156 43q57 43 100 109z" />
    <glyph glyph-name="Gcircumflex" unicode="&#x11c;" horiz-adv-x="1615" 
d="M1245 983q-60 118 -167 180q-110 64 -244 64q-105 0 -192 -40q-90 -41 -156 -110t-104 -162t-38 -198q0 -104 38 -198t104 -163q64 -67 156 -109q87 -40 194 -40q89 0 158 26q71 27 129 74q55 45 94 112q37 64 49 142h-467v215h729v-92q0 -150 -51 -280
q-50 -128 -144 -225q-92 -95 -219 -149q-130 -55 -280 -55q-153 0 -289 59t-236 159t-157 235q-58 137 -58 289q0 153 59 289t159 236q101 101 236 160q132 58 288 58q106 0 199 -25q94 -25 176 -74q81 -48 146 -116q63 -66 107 -151zM512 1546l227 293h185l225 -293h-217
l-105 137l-102 -137h-213z" />
    <glyph glyph-name="gcircumflex" unicode="&#x11d;" horiz-adv-x="1273" 
d="M893 172q-51 -72 -138 -117t-192 -45q-101 0 -190 39q-88 39 -153 107q-63 66 -101 159q-37 90 -37 201q0 110 37 202q39 97 101 163q64 69 153 108t190 39q106 0 192 -43q87 -43 138 -117v136h233v-943q0 -120 -35 -213q-35 -94 -104 -164q-68 -70 -165 -107
q-99 -38 -220 -38q-166 0 -294 70q-124 68 -191 194l188 119q46 -85 124 -131q77 -45 173 -45q135 0 213 83t78 230v113zM903 516q0 63 -22 117q-21 53 -62 95q-38 39 -92 64q-50 23 -115 23q-64 0 -114 -23q-54 -25 -92 -64q-41 -42 -62 -95q-22 -54 -22 -117
q0 -65 22 -118q22 -54 62 -95q38 -39 92 -64q52 -24 114 -24t115 24q54 25 92 64q40 41 62 95q22 53 22 118zM303 1178l227 292h185l225 -292h-217l-105 139l-102 -139h-213z" />
    <glyph glyph-name="Gbreve" unicode="&#x11e;" horiz-adv-x="1615" 
d="M1245 983q-60 118 -167 180q-110 64 -244 64q-105 0 -192 -40q-90 -41 -156 -110t-104 -162t-38 -198q0 -104 38 -198t104 -163q64 -67 156 -109q87 -40 194 -40q89 0 158 26q71 27 129 74q55 45 94 112q37 64 49 142h-467v215h729v-92q0 -150 -51 -280
q-50 -128 -144 -225q-92 -95 -219 -149q-130 -55 -280 -55q-153 0 -289 59t-236 159t-157 235q-58 137 -58 289q0 153 59 289t159 236q101 101 236 160q132 58 288 58q106 0 199 -25q94 -25 176 -74q81 -48 146 -116q63 -66 107 -151zM834 1704q53 0 86 35q31 33 36 94h168
q0 -129 -82 -207t-208 -78q-128 0 -211 78q-82 78 -82 207h168q5 -62 37 -94q35 -35 88 -35z" />
    <glyph glyph-name="gbreve" unicode="&#x11f;" horiz-adv-x="1273" 
d="M893 172q-51 -72 -138 -117t-192 -45q-101 0 -190 39q-88 39 -153 107q-63 66 -101 159q-37 90 -37 201q0 110 37 202q39 97 101 163q64 69 153 108t190 39q106 0 192 -43q87 -43 138 -117v136h233v-943q0 -120 -35 -213q-35 -94 -104 -164q-68 -70 -165 -107
q-99 -38 -220 -38q-166 0 -294 70q-124 68 -191 194l188 119q46 -85 124 -131q77 -45 173 -45q135 0 213 83t78 230v113zM903 516q0 63 -22 117q-21 53 -62 95q-38 39 -92 64q-50 23 -115 23q-64 0 -114 -23q-54 -25 -92 -64q-41 -42 -62 -95q-22 -54 -22 -117
q0 -65 22 -118q22 -54 62 -95q38 -39 92 -64q52 -24 114 -24t115 24q54 25 92 64q40 41 62 95q22 53 22 118zM621 1331q53 0 86 35q31 33 36 94h168q0 -129 -82 -207q-81 -77 -208 -77q-130 0 -211 77q-82 78 -82 207h168q5 -61 38 -94q35 -35 87 -35z" />
    <glyph glyph-name="Gdotaccent" unicode="&#x120;" horiz-adv-x="1615" 
d="M1245 983q-60 118 -167 180q-110 64 -244 64q-105 0 -192 -40q-90 -41 -156 -110t-104 -162t-38 -198q0 -104 38 -198t104 -163q64 -67 156 -109q87 -40 194 -40q89 0 158 26q71 27 129 74q55 45 94 112q37 64 49 142h-467v215h729v-92q0 -150 -51 -280
q-50 -128 -144 -225q-92 -95 -219 -149q-130 -55 -280 -55q-153 0 -289 59t-236 159t-157 235q-58 137 -58 289q0 153 59 289t159 236q101 101 236 160q132 58 288 58q106 0 199 -25q94 -25 176 -74q81 -48 146 -116q63 -66 107 -151zM977 1704q0 -57 -41 -98t-100 -41
t-99 40q-41 41 -41 99q0 59 41 100t99 41q60 0 100 -42q41 -43 41 -99z" />
    <glyph glyph-name="gdotaccent" unicode="&#x121;" horiz-adv-x="1273" 
d="M893 172q-51 -72 -138 -117t-192 -45q-101 0 -190 39q-88 39 -153 107q-63 66 -101 159q-37 90 -37 201q0 110 37 202q39 97 101 163q64 69 153 108t190 39q106 0 192 -43q87 -43 138 -117v136h233v-943q0 -120 -35 -213q-35 -94 -104 -164q-68 -70 -165 -107
q-99 -38 -220 -38q-166 0 -294 70q-124 68 -191 194l188 119q46 -85 124 -131q77 -45 173 -45q135 0 213 83t78 230v113zM903 516q0 63 -22 117q-21 53 -62 95q-38 39 -92 64q-50 23 -115 23q-64 0 -114 -23q-54 -25 -92 -64q-41 -42 -62 -95q-22 -54 -22 -117
q0 -65 22 -118q22 -54 62 -95q38 -39 92 -64q52 -24 114 -24t115 24q54 25 92 64q40 41 62 95q22 53 22 118zM768 1296q0 -58 -42 -102q-42 -43 -105 -43q-60 0 -103 43t-43 102q0 62 43 105t103 43q63 0 105 -44t42 -104z" />
    <glyph glyph-name="Gcommaaccent" unicode="&#x122;" horiz-adv-x="1615" 
d="M1245 983q-60 118 -167 180q-110 64 -244 64q-105 0 -192 -40q-90 -41 -156 -110t-104 -162t-38 -198q0 -104 38 -198t104 -163q64 -67 156 -109q87 -40 194 -40q89 0 158 26q71 27 129 74q55 45 94 112q37 64 49 142h-467v215h729v-92q0 -150 -51 -280
q-50 -128 -144 -225q-92 -95 -219 -149q-130 -55 -280 -55q-153 0 -289 59t-236 159t-157 235q-58 137 -58 289q0 153 59 289t159 236q101 101 236 160q132 58 288 58q106 0 199 -25q94 -25 176 -74q81 -48 146 -116q63 -66 107 -151zM807 -342h-4q-42 1 -74 33
q-31 31 -31 76q0 59 40 95t93 36q61 0 98 -36q38 -36 38 -93q0 -26 -10 -58q-8 -27 -21 -55l-72 -148h-135z" />
    <glyph glyph-name="gcommaaccent" unicode="&#x123;" horiz-adv-x="1273" 
d="M893 172q-51 -72 -138 -117t-192 -45q-101 0 -190 39q-88 39 -153 107q-63 66 -101 159q-37 90 -37 201q0 110 37 202q39 97 101 163q64 69 153 108t190 39q106 0 192 -43q87 -43 138 -117v136h233v-943q0 -120 -35 -213q-35 -94 -104 -164q-68 -70 -165 -107
q-99 -38 -220 -38q-166 0 -294 70q-124 68 -191 194l188 119q46 -85 124 -131q77 -45 173 -45q135 0 213 83t78 230v113zM903 516q0 63 -22 117q-21 53 -62 95q-38 39 -92 64q-50 23 -115 23q-64 0 -114 -23q-54 -25 -92 -64q-41 -42 -62 -95q-22 -54 -22 -117
q0 -65 22 -118q22 -54 62 -95q38 -39 92 -64q52 -24 114 -24t115 24q54 25 92 64q40 41 62 95q22 53 22 118zM715 1540l-76 -147h2q43 -1 74 -34q30 -31 30 -79q0 -57 -37 -93q-38 -36 -94 -36q-55 0 -95 37t-40 92q0 34 10 61q12 33 27 64l68 135h131z" />
    <glyph glyph-name="Hcircumflex" unicode="&#x124;" horiz-adv-x="1499" 
d="M168 1434h246v-580h671v580h246v-1434h-246v621h-671v-621h-246v1434zM432 1546l227 293h185l225 -293h-217l-104 137l-103 -137h-213z" />
    <glyph glyph-name="hcircumflex" unicode="&#x125;" horiz-adv-x="1216" 
d="M385 0h-238v1434h238v-564q45 70 124 115q76 43 183 43q185 0 287 -114t102 -310v-604h-237v559q0 116 -58 183t-165 67t-171 -76q-65 -77 -65 -205v-528zM-49 1546l227 293h184l226 -293h-217l-105 137l-102 -137h-213z" />
    <glyph glyph-name="Hbar" unicode="&#x126;" horiz-adv-x="1560" 
d="M199 1034h-152v205h152v195h245v-195h672v195h246v-195h151v-205h-151v-1034h-246v621h-672v-621h-245v1034zM1116 854v180h-672v-180h672z" />
    <glyph glyph-name="hbar" unicode="&#x127;" 
d="M160 1288v146h237v-146h404v-162h-404v-274q45 70 124 115q76 43 184 43q184 0 286 -114q103 -115 103 -310v-586h-238v541q0 117 -57 183q-58 67 -166 67q-107 0 -171 -76q-65 -77 -65 -205v-510h-237v1126h-135v162h135z" />
    <glyph glyph-name="Itilde" unicode="&#x128;" horiz-adv-x="581" 
d="M414 1434v-1434h-246v1434h246zM-57 1567q-2 125 57 184t150 59q50 0 88 -15q30 -12 65 -34q9 -6 27 -17.5t26 -16.5q24 -15 54 -15q36 0 56 25q19 23 19 65h148q1 -126 -59 -185q-59 -58 -148 -58q-53 0 -89 15q-33 14 -65 34q-11 7 -29.5 18.5t-23.5 14.5
q-26 16 -53 16q-38 0 -57 -25t-19 -65h-147z" />
    <glyph glyph-name="itilde" unicode="&#x129;" horiz-adv-x="532" 
d="M385 1004v-1004h-238v1004h238zM-84 1194q-2 125 57 184q60 60 150 60q48 0 88 -16q35 -14 65 -33q38 -24 54 -34q26 -16 53 -16q36 0 56 25t20 66h147q2 -128 -58 -186q-59 -58 -149 -58q-53 0 -89 15q-30 12 -64 34q-9 6 -27 17.5t-26 16.5q-24 15 -54 15
q-39 0 -57 -24q-19 -25 -19 -66h-147z" />
    <glyph glyph-name="Imacron" unicode="&#x12a;" horiz-adv-x="581" 
d="M414 1434v-1434h-246v1434h246zM-4 1581v158h590v-158h-590z" />
    <glyph glyph-name="imacron" unicode="&#x12b;" horiz-adv-x="532" 
d="M385 1004v-1004h-238v1004h238zM-29 1208v158h590v-158h-590z" />
    <glyph glyph-name="Ibreve" unicode="&#x12c;" horiz-adv-x="581" 
d="M414 1434v-1434h-246v1434h246zM291 1704q53 0 86 35q32 34 37 94h168q0 -129 -82 -207t-209 -78q-129 0 -211 78t-82 207h168q5 -61 38 -94q35 -35 87 -35z" />
    <glyph glyph-name="ibreve" unicode="&#x12d;" horiz-adv-x="532" 
d="M385 1004v-1004h-238v1004h238zM266 1331q53 0 86 35q32 34 37 94h168q0 -129 -82 -207q-81 -77 -209 -77q-130 0 -211 77q-82 78 -82 207h168q5 -61 38 -94q35 -35 87 -35z" />
    <glyph glyph-name="Iogonek" unicode="&#x12e;" horiz-adv-x="581" 
d="M414 1434v-1434q-92 -24 -141 -76q-48 -51 -48 -110q0 -41 22 -63q21 -21 58 -21q22 0 49 6t49 22v-151q-63 -29 -139 -29q-102 0 -161 54q-58 54 -58 145q0 67 32 123q31 55 91 100v1434h246z" />
    <glyph glyph-name="iogonek" unicode="&#x12f;" horiz-adv-x="532" 
d="M385 0q-87 -27 -139 -77q-51 -49 -51 -109q0 -42 22 -63q23 -21 62 -21q22 0 49 6t49 22v-151q-63 -29 -139 -29q-102 0 -161 54t-59 145q0 68 34 123q35 56 95 100v1004h238v-1004zM412 1296q0 -58 -42 -102q-42 -43 -106 -43q-59 0 -102 43t-43 102q0 62 43 105t102 43
q64 0 106 -44t42 -104z" />
    <glyph glyph-name="Idotaccent" unicode="&#x130;" horiz-adv-x="581" 
d="M414 1434v-1434h-246v1434h246zM430 1704q0 -57 -41 -98t-100 -41t-99 40t-40 99q0 60 40 100q41 41 99 41q59 0 100 -42q41 -43 41 -99z" />
    <glyph glyph-name="dotlessi" unicode="&#x131;" horiz-adv-x="532" 
d="M385 1004v-1004h-238v1004h238z" />
    <glyph glyph-name="IJ" unicode="&#x132;" horiz-adv-x="1601" 
d="M414 1434v-1434h-246v1434h246zM1452 444q0 -105 -31 -195q-30 -87 -88 -148q-57 -60 -140 -93t-185 -33q-158 0 -271 79q-117 81 -168 218l209 115q38 -87 94 -134q57 -48 136 -48q96 0 147 63t51 178v988h246v-990z" />
    <glyph glyph-name="ij" unicode="&#x133;" horiz-adv-x="1071" 
d="M147 0v1004h238v-1004h-238zM412 1296q0 -58 -42 -102q-42 -43 -106 -43q-59 0 -102 43t-43 102q0 62 43 105t102 43q64 0 106 -44t42 -104zM686 1004h238v-1067q0 -193 -94 -293q-93 -99 -250 -99q-45 0 -79 8q-40 9 -57 17v207q40 -19 95 -19q69 0 108 48t39 139v1059z
M950 1296q0 -58 -42 -102q-42 -43 -105 -43q-60 0 -103 43t-43 102q0 62 43 105t103 43q63 0 105 -44t42 -104z" />
    <glyph glyph-name="Jcircumflex" unicode="&#x134;" horiz-adv-x="1058" 
d="M909 444q0 -108 -30 -195t-88 -148q-56 -59 -141 -93q-82 -33 -185 -33q-157 0 -270 79q-117 81 -168 218l209 115q38 -87 94 -134q57 -48 135 -48q96 0 147 63q52 64 52 178v988h245v-990zM469 1546l227 293h185l225 -293h-217l-105 137l-102 -137h-213z" />
    <glyph glyph-name="jcircumflex" unicode="&#x135;" horiz-adv-x="538" 
d="M154 1004h237v-1067q0 -194 -93 -293t-251 -99q-45 0 -79 8q-38 9 -56 17v209q18 -10 43 -15q21 -4 51 -4q70 0 109 47t39 138v1059zM-47 1178l227 292h185l225 -292h-217l-105 139l-102 -139h-213z" />
    <glyph glyph-name="Kcommaaccent" unicode="&#x136;" horiz-adv-x="1318" 
d="M414 836l540 598h299l-600 -656l647 -778h-309l-499 612l-78 -86v-526h-246v1434h246v-598zM662 -342h-5q-41 1 -73 33q-31 31 -31 76q0 59 40 95q41 36 93 36q60 0 97 -36q38 -36 38 -93q0 -29 -9 -58q-8 -27 -21 -55l-72 -148h-135z" />
    <glyph glyph-name="kcommaaccent" unicode="&#x137;" horiz-adv-x="1097" 
d="M1051 1004l-437 -437l469 -567h-290l-359 444l-51 -47v-397h-236v1434h236v-809l377 379h291zM553 -342h-4q-42 1 -74 33q-31 31 -31 76q0 59 40 95t94 36q60 0 97 -36q38 -36 38 -93q0 -26 -10 -58q-8 -27 -21 -55l-72 -148h-135z" />
    <glyph glyph-name="kgreenlandic" unicode="&#x138;" horiz-adv-x="1097" 
d="M383 1004v-379l377 379h291l-437 -437l469 -567h-290l-363 449l-47 -43v-406h-236v1004h236z" />
    <glyph glyph-name="Lacute" unicode="&#x139;" horiz-adv-x="960" 
d="M184 1546l197 293h260l-248 -293h-209zM414 1434v-1205h504v-229h-750v1434h246z" />
    <glyph glyph-name="lacute" unicode="&#x13a;" horiz-adv-x="532" 
d="M385 1434v-1434h-238v1434h238zM160 1546l196 293h260l-247 -293h-209z" />
    <glyph glyph-name="Lcommaaccent" unicode="&#x13b;" horiz-adv-x="960" 
d="M414 1434v-1205h504v-229h-750v1434h246zM516 -342h-4q-42 1 -74 33q-30 30 -30 76q0 60 39 95q40 36 94 36q59 0 97 -36t38 -93q0 -29 -9 -58q-6 -19 -22 -55l-72 -148h-135z" />
    <glyph glyph-name="lcommaaccent" unicode="&#x13c;" horiz-adv-x="532" 
d="M385 1434v-1434h-238v1434h238zM244 -342h-4q-42 1 -74 33q-31 31 -31 76q0 59 40 95q41 36 93 36q60 0 98 -36q37 -36 37 -93q0 -29 -9 -58q-8 -27 -21 -55l-72 -148h-135z" />
    <glyph glyph-name="Lcaron" unicode="&#x13d;" horiz-adv-x="960" 
d="M414 1434v-1205h504v-229h-750v1434h246zM553 1116l61 342h236l-98 -342h-199z" />
    <glyph glyph-name="lcaron" unicode="&#x13e;" horiz-adv-x="532" 
d="M385 1434v-1434h-238v1434h238zM465 1116l61 342h236l-98 -342h-199z" />
    <glyph glyph-name="Ldot" unicode="&#x13f;" horiz-adv-x="960" 
d="M414 1434v-1205h504v-229h-750v1434h246zM907 723q0 -59 -42 -102t-105 -43q-60 0 -103 43t-43 102q0 61 43 104t103 43q63 0 105 -44t42 -103z" />
    <glyph glyph-name="ldot" unicode="&#x140;" horiz-adv-x="751" 
d="M788 682q0 -58 -42 -102q-42 -43 -105 -43q-59 0 -102 43t-43 102q0 61 43 104t102 43q63 0 105 -44q42 -43 42 -103zM385 1434v-1434h-238v1434h238z" />
    <glyph glyph-name="Lslash" unicode="&#x141;" horiz-adv-x="991" 
d="M444 1434v-603l316 152v-205l-316 -151v-398h504v-229h-749v508l-174 -84v205l174 84v721h245z" />
    <glyph glyph-name="lslash" unicode="&#x142;" horiz-adv-x="624" 
d="M430 1434v-521l174 93v-203l-174 -92v-711h-237v584l-168 -88v204l168 88v646h237z" />
    <glyph glyph-name="Nacute" unicode="&#x143;" horiz-adv-x="1585" 
d="M1417 1434v-1434h-239l-772 1053v-1053h-238v1434h250l762 -1051v1051h237zM705 1546l196 293h260l-248 -293h-208z" />
    <glyph glyph-name="nacute" unicode="&#x144;" horiz-adv-x="1216" 
d="M385 0h-238v1004h238v-134q45 70 124 115q76 43 183 43q185 0 287 -114t102 -310v-604h-237v559q0 116 -58 183t-165 67t-171 -76q-65 -77 -65 -205v-528zM489 1178l197 292h260l-248 -292h-209z" />
    <glyph glyph-name="Ncommaaccent" unicode="&#x145;" horiz-adv-x="1585" 
d="M1417 1434v-1434h-239l-772 1053v-1053h-238v1434h250l762 -1051v1051h237zM752 -342h-4q-42 1 -74 33q-31 31 -31 76q0 59 40 95q41 36 93 36q60 0 97 -36q38 -36 38 -93q0 -29 -9 -58q-8 -27 -21 -55l-72 -148h-135z" />
    <glyph glyph-name="ncommaaccent" unicode="&#x146;" horiz-adv-x="1216" 
d="M385 0h-238v1004h238v-134q45 70 124 115q76 43 183 43q185 0 287 -114t102 -310v-604h-237v559q0 116 -58 183t-165 67t-171 -76q-65 -77 -65 -205v-528zM592 -342h-4q-42 1 -74 33q-31 31 -31 76q0 59 40 95q41 36 93 36q60 0 98 -36t38 -93q0 -26 -10 -58
q-8 -27 -21 -55l-72 -148h-135z" />
    <glyph glyph-name="Ncaron" unicode="&#x147;" horiz-adv-x="1585" 
d="M1417 1434v-1434h-239l-772 1053v-1053h-238v1434h250l762 -1051v1051h237zM1124 1839l-225 -293h-184l-228 293h218l104 -139l104 139h211z" />
    <glyph glyph-name="ncaron" unicode="&#x148;" horiz-adv-x="1216" 
d="M385 0h-238v1004h238v-134q45 70 124 115q76 43 183 43q185 0 287 -114t102 -310v-604h-237v559q0 116 -58 183t-165 67t-171 -76q-65 -77 -65 -205v-528zM936 1470l-225 -292h-185l-227 292h217l105 -139l104 139h211z" />
    <glyph glyph-name="Eng" unicode="&#x14a;" horiz-adv-x="1585" 
d="M1417 1434v-1444q0 -214 -108 -329q-108 -116 -305 -116q-66 0 -112 11q-47 11 -71 18v217q23 -8 53 -15q31 -7 87 -7q100 0 155 58q56 59 60 171v4l-770 1051v-1053h-238v1434h250l762 -1051v1051h237z" />
    <glyph glyph-name="eng" unicode="&#x14b;" horiz-adv-x="1216" 
d="M385 0h-238v1004h238v-134q45 70 124 115q76 43 183 43q185 0 287 -114t102 -310v-667q0 -194 -93 -293t-251 -99q-45 0 -79 8q-38 9 -56 17v207q40 -19 94 -19q70 0 109 48t39 139v614q0 116 -58 183t-165 67t-171 -76q-65 -77 -65 -205v-528z" />
    <glyph glyph-name="Omacron" unicode="&#x14c;" horiz-adv-x="1675" 
d="M94 717q0 155 59 291t158 235q101 101 237 159q135 58 290 58q154 0 289 -58q137 -58 237 -159q101 -101 159 -235t58 -291q0 -155 -58 -289t-159 -235q-100 -101 -237 -159q-138 -59 -289 -59q-152 0 -290 59q-136 58 -237 159q-99 99 -158 235t-59 289zM346 717
q0 -104 38 -197q38 -92 104 -160q63 -64 156 -107q87 -40 194 -40q106 0 193 40q93 43 156 107q66 68 104 160q38 93 38 197q0 103 -38 196q-37 91 -104 161q-64 67 -156 109q-87 40 -193 40q-107 0 -194 -40q-92 -42 -156 -109q-67 -70 -104 -161q-38 -93 -38 -196z
M543 1581v158h590v-158h-590z" />
    <glyph glyph-name="omacron" unicode="&#x14d;" horiz-adv-x="1232" 
d="M616 1028q113 0 213 -41q97 -40 170 -111q71 -69 112 -167q40 -95 40 -207t-40 -207q-41 -98 -112 -167q-74 -73 -170 -112q-100 -41 -213 -41t-213 41q-96 39 -170 112q-69 68 -111 167q-40 95 -40 207t40 207q42 99 111 167q73 71 170 111q100 41 213 41zM616 811
q-61 0 -117 -25q-54 -24 -95 -65q-38 -38 -63 -98q-24 -57 -24 -121q0 -65 24 -122q25 -59 63 -97q43 -43 95 -66q54 -24 117 -24q64 0 118 24q50 22 94 66q40 40 64 97q23 55 23 122q0 66 -23 121q-25 59 -64 98q-42 42 -94 65q-56 25 -118 25zM322 1208v158h589v-158h-589
z" />
    <glyph glyph-name="Obreve" unicode="&#x14e;" horiz-adv-x="1675" 
d="M94 717q0 155 59 291t158 235q101 101 237 159q135 58 290 58q154 0 289 -58q137 -58 237 -159q101 -101 159 -235t58 -291q0 -155 -58 -289t-159 -235q-100 -101 -237 -159q-138 -59 -289 -59q-152 0 -290 59q-136 58 -237 159q-99 99 -158 235t-59 289zM346 717
q0 -104 38 -197q38 -92 104 -160q63 -64 156 -107q87 -40 194 -40q106 0 193 40q93 43 156 107q66 68 104 160q38 93 38 197q0 103 -38 196q-37 91 -104 161q-64 67 -156 109q-87 40 -193 40q-107 0 -194 -40q-92 -42 -156 -109q-67 -70 -104 -161q-38 -93 -38 -196z
M838 1704q53 0 86 35q32 34 37 94h167q0 -130 -81 -207q-83 -78 -209 -78q-128 0 -211 78q-82 78 -82 207h168q5 -61 38 -94q35 -35 87 -35z" />
    <glyph glyph-name="obreve" unicode="&#x14f;" horiz-adv-x="1232" 
d="M616 1028q113 0 213 -41q97 -40 170 -111q71 -69 112 -167q40 -95 40 -207t-40 -207q-41 -98 -112 -167q-74 -73 -170 -112q-100 -41 -213 -41t-213 41q-96 39 -170 112q-69 68 -111 167q-40 95 -40 207t40 207q42 99 111 167q73 71 170 111q100 41 213 41zM616 811
q-61 0 -117 -25q-54 -24 -95 -65q-38 -38 -63 -98q-24 -57 -24 -121q0 -65 24 -122q25 -59 63 -97q43 -43 95 -66q54 -24 117 -24q64 0 118 24q50 22 94 66q40 40 64 97q23 55 23 122q0 66 -23 121q-25 59 -64 98q-42 42 -94 65q-56 25 -118 25zM616 1331q53 0 86 35
q32 34 37 94h168q0 -129 -82 -207q-81 -77 -209 -77q-129 0 -210 77q-82 78 -82 207h168q5 -62 37 -94q35 -35 87 -35z" />
    <glyph glyph-name="Ohungarumlaut" unicode="&#x150;" horiz-adv-x="1675" 
d="M94 717q0 155 59 291t158 235q101 101 237 159q135 58 290 58q154 0 289 -58q137 -58 237 -159q101 -101 159 -235t58 -291q0 -155 -58 -289t-159 -235q-100 -101 -237 -159q-138 -59 -289 -59q-152 0 -290 59q-136 58 -237 159q-99 99 -158 235t-59 289zM346 717
q0 -104 38 -197q38 -92 104 -160q63 -64 156 -107q87 -40 194 -40q106 0 193 40q93 43 156 107q66 68 104 160q38 93 38 197q0 103 -38 196q-37 91 -104 161q-64 67 -156 109q-87 40 -193 40q-107 0 -194 -40q-92 -42 -156 -109q-67 -70 -104 -161q-38 -93 -38 -196z
M565 1546l178 293h230l-219 -293h-189zM920 1546l176 293h229l-219 -293h-186z" />
    <glyph glyph-name="ohungarumlaut" unicode="&#x151;" horiz-adv-x="1232" 
d="M616 1028q113 0 213 -41q97 -40 170 -111q71 -69 112 -167q40 -95 40 -207t-40 -207q-41 -98 -112 -167q-74 -73 -170 -112q-100 -41 -213 -41t-213 41q-96 39 -170 112q-69 68 -111 167q-40 95 -40 207t40 207q42 99 111 167q73 71 170 111q100 41 213 41zM616 811
q-61 0 -117 -25q-54 -24 -95 -65q-38 -38 -63 -98q-24 -57 -24 -121q0 -65 24 -122q25 -59 63 -97q43 -43 95 -66q54 -24 117 -24q64 0 118 24q50 22 94 66q40 40 64 97q23 55 23 122q0 66 -23 121q-25 59 -64 98q-42 42 -94 65q-56 25 -118 25zM350 1171l176 291h230
l-219 -291h-187zM702 1171l177 291h227l-217 -291h-187z" />
    <glyph glyph-name="OE" unicode="&#x152;" horiz-adv-x="1964" 
d="M94 717q0 151 57 282q60 136 154 228q98 95 230 151t280 56h1040v-224h-575v-364h530v-217h-530v-406h580v-223h-1045q-151 0 -280 55q-130 55 -230 152q-95 92 -154 227q-57 130 -57 283zM346 717q0 -103 36 -193q35 -88 99 -155q63 -66 151 -104t189 -38h215v979h-215
q-101 0 -189 -38t-151 -104q-62 -65 -99 -156q-36 -88 -36 -191z" />
    <glyph glyph-name="oe" unicode="&#x153;" horiz-adv-x="1968" 
d="M1862 236q-63 -120 -175 -190q-115 -71 -270 -71q-126 0 -231 51q-101 49 -168 142q-69 -90 -173 -141q-106 -52 -229 -52q-113 0 -213 41q-96 39 -170 112q-69 68 -111 167q-40 95 -40 207t40 207q42 99 111 167q73 71 170 111q100 41 213 41q128 0 231 -52
q105 -53 173 -142q67 92 165 143q99 51 220 51q108 0 198 -40q91 -40 155 -110t102 -167q36 -92 36 -209q0 -14 -2 -72h-755q5 -58 27 -101q23 -44 62 -80q36 -33 87 -53t104 -20q97 0 152 43q56 44 96 109zM616 811q-61 0 -117 -25q-54 -24 -95 -65q-38 -38 -63 -98
q-24 -57 -24 -121q0 -65 24 -122q25 -59 63 -97q43 -43 95 -66q54 -24 117 -24q64 0 118 24q50 22 94 66q40 40 64 97q23 55 23 122q0 66 -23 121q-25 59 -64 98q-42 42 -94 65q-56 25 -118 25zM1661 602q-4 47 -26 92q-21 44 -56 74t-81 48t-97 18t-96 -21q-47 -22 -80 -52
q-37 -34 -57 -74q-21 -42 -27 -85h520z" />
    <glyph glyph-name="Racute" unicode="&#x154;" horiz-adv-x="1239" 
d="M412 0h-244v1434h448q107 0 199 -29q91 -29 156 -85t101 -137t36 -186q0 -159 -90 -264q-89 -104 -234 -145l422 -588h-288l-396 567h-110v-567zM412 774h204q108 0 178 59q68 58 68 162q0 105 -68 161t-178 56h-204v-438zM446 1546l197 293h260l-248 -293h-209z" />
    <glyph glyph-name="racute" unicode="&#x155;" horiz-adv-x="774" 
d="M725 776q-18 8 -61 8q-131 0 -206 -93t-75 -249v-442h-236v1004h234v-173q38 89 119 141q82 52 180 52q39 0 45 -6v-242zM289 1178l196 292h260l-247 -292h-209z" />
    <glyph glyph-name="Rcommaaccent" unicode="&#x156;" horiz-adv-x="1239" 
d="M412 0h-244v1434h448q107 0 199 -29q91 -29 156 -85t101 -137t36 -186q0 -159 -90 -264q-89 -104 -234 -145l422 -588h-288l-396 567h-110v-567zM412 774h204q108 0 178 59q68 58 68 162q0 105 -68 161t-178 56h-204v-438zM639 -342h-4q-42 1 -74 33q-31 31 -31 76
q0 59 40 95t94 36q60 0 97 -36q38 -36 38 -93q0 -29 -9 -58q-6 -19 -22 -55l-72 -148h-135z" />
    <glyph glyph-name="rcommaaccent" unicode="&#x157;" horiz-adv-x="774" 
d="M725 776q-18 8 -61 8q-131 0 -206 -93t-75 -249v-442h-236v1004h234v-173q38 89 119 141q82 52 180 52q39 0 45 -6v-242zM244 -342h-4q-42 1 -74 33q-31 31 -31 76q0 59 40 95q41 36 93 36q60 0 98 -36q37 -36 37 -93q0 -29 -9 -58q-8 -27 -21 -55l-72 -148h-135z" />
    <glyph glyph-name="Rcaron" unicode="&#x158;" horiz-adv-x="1239" 
d="M412 0h-244v1434h448q107 0 199 -29q91 -29 156 -85t101 -137t36 -186q0 -159 -90 -264q-89 -104 -234 -145l422 -588h-288l-396 567h-110v-567zM412 774h204q108 0 178 59q68 58 68 162q0 105 -68 161t-178 56h-204v-438zM920 1839l-226 -293h-184l-227 293h217
l104 -139l105 139h211z" />
    <glyph glyph-name="rcaron" unicode="&#x159;" horiz-adv-x="774" 
d="M725 776q-18 8 -61 8q-131 0 -206 -93t-75 -249v-442h-236v1004h234v-173q38 89 119 141q82 52 180 52q39 0 45 -6v-242zM756 1470l-226 -292h-184l-227 292h217l104 -139l105 139h211z" />
    <glyph glyph-name="Sacute" unicode="&#x15a;" horiz-adv-x="1138" 
d="M285 436q39 -104 115 -167q75 -62 186 -62q92 0 159 48q68 48 68 140q0 133 -180 199l-170 61q-158 57 -248 154q-88 95 -88 244q0 93 34 168q35 77 94 129q62 54 141 82q80 28 175 28q154 -1 279 -85q122 -82 182 -232l-211 -107q-33 82 -94 139q-60 56 -154 56
q-85 0 -141 -45q-55 -45 -55 -119q0 -66 45 -108q44 -41 133 -76l176 -68q169 -67 251 -163q83 -98 83 -240q0 -103 -39 -184t-104 -137q-64 -56 -154 -86q-88 -30 -186 -30q-180 0 -318 94q-136 93 -196 265zM455 1546l196 293h260l-247 -293h-209z" />
    <glyph glyph-name="sacute" unicode="&#x15b;" horiz-adv-x="878" 
d="M250 332q27 -70 80 -112q52 -42 121 -42q54 0 95 26q40 25 40 79q0 40 -28 65q-29 26 -87 43l-121 39q-256 82 -256 291q0 68 28 127q26 54 75 97q48 42 109 62q63 21 134 21q123 0 220 -61q99 -63 145 -166l-191 -103q-28 59 -72 97q-42 36 -102 36q-52 0 -86 -24
q-35 -24 -35 -68q0 -70 113 -108l119 -39q140 -46 203 -120q61 -71 61 -173q0 -77 -30 -137q-31 -61 -80 -102q-50 -41 -118 -63q-69 -22 -141 -22q-140 0 -243 70q-103 69 -146 186zM307 1178l197 292h260l-248 -292h-209z" />
    <glyph glyph-name="Scircumflex" unicode="&#x15c;" horiz-adv-x="1138" 
d="M285 436q39 -104 115 -167q75 -62 186 -62q92 0 159 48q68 48 68 140q0 133 -180 199l-170 61q-158 57 -248 154q-88 95 -88 244q0 93 34 168q35 77 94 129q62 54 141 82q80 28 175 28q154 -1 279 -85q122 -82 182 -232l-211 -107q-33 82 -94 139q-60 56 -154 56
q-85 0 -141 -45q-55 -45 -55 -119q0 -66 45 -108q44 -41 133 -76l176 -68q169 -67 251 -163q83 -98 83 -240q0 -103 -39 -184t-104 -137q-64 -56 -154 -86q-88 -30 -186 -30q-180 0 -318 94q-136 93 -196 265zM248 1546l227 293h184l226 -293h-217l-105 137l-102 -137h-213z
" />
    <glyph glyph-name="scircumflex" unicode="&#x15d;" horiz-adv-x="878" 
d="M250 332q27 -70 80 -112q52 -42 121 -42q54 0 95 26q40 25 40 79q0 40 -28 65q-29 26 -87 43l-121 39q-256 82 -256 291q0 68 28 127q26 54 75 97q48 42 109 62q63 21 134 21q123 0 220 -61q99 -63 145 -166l-191 -103q-28 59 -72 97q-42 36 -102 36q-52 0 -86 -24
q-35 -24 -35 -68q0 -70 113 -108l119 -39q140 -46 203 -120q61 -71 61 -173q0 -77 -30 -137q-31 -61 -80 -102q-50 -41 -118 -63q-69 -22 -141 -22q-140 0 -243 70q-103 69 -146 186zM117 1178l227 292h184l226 -292h-217l-105 139l-102 -139h-213z" />
    <glyph glyph-name="Scedilla" unicode="&#x15e;" horiz-adv-x="1138" 
d="M623 -96q79 0 129 -49q51 -49 51 -125q0 -85 -59 -138t-148 -53q-86 0 -141 49q-56 50 -66 121h143q4 -17 21 -33q16 -16 45 -16q31 0 49 18q19 19 19 48q0 27 -19 46q-17 17 -47 17q-35 0 -59 -29l-121 66l65 158q-148 23 -257 112q-108 89 -160 238l217 102
q39 -104 115 -167q75 -62 186 -62q92 0 159 48q68 48 68 140q0 133 -180 199l-170 61q-158 57 -248 154q-88 95 -88 244q0 93 34 168q35 77 94 129q62 54 141 82q80 28 175 28q154 -1 279 -85q122 -82 182 -232l-211 -107q-33 82 -94 139q-60 56 -154 56q-85 0 -141 -45
q-55 -45 -55 -119q0 -66 45 -108q44 -41 133 -76l176 -68q169 -67 251 -163q83 -98 83 -240q0 -95 -35 -174q-34 -77 -95 -135q-59 -56 -141 -88t-173 -38l-37 -79q5 3 17 5q8 1 22 1z" />
    <glyph glyph-name="scedilla" unicode="&#x15f;" horiz-adv-x="878" 
d="M479 -96q79 0 129 -49q51 -49 51 -125q0 -86 -58 -138q-59 -53 -148 -53q-87 0 -142 49q-54 49 -65 121h143q5 -17 21 -33t45 -16q31 0 49 18t18 48q0 28 -18 46q-17 17 -47 17q-36 0 -60 -29l-121 66l68 160q-104 22 -178 86q-75 64 -109 159l193 101q27 -70 80 -112
q52 -42 121 -42q54 0 95 26q40 25 40 79q0 40 -28 65q-29 26 -87 43l-121 39q-256 82 -256 291q0 68 28 127q26 54 75 97q48 42 109 62q63 21 134 21q123 0 220 -61q99 -63 145 -166l-191 -103q-28 59 -72 97q-42 36 -102 36q-52 0 -86 -24q-35 -24 -35 -68q0 -70 113 -108
l119 -39q140 -46 203 -120q61 -71 61 -173q0 -74 -27 -131q-28 -60 -72 -98q-48 -41 -108 -65q-60 -23 -131 -28l-37 -79q4 3 18 5q8 1 21 1z" />
    <glyph glyph-name="Scaron" unicode="&#x160;" horiz-adv-x="1138" 
d="M285 436q39 -104 115 -167q75 -62 186 -62q92 0 159 48q68 48 68 140q0 133 -180 199l-170 61q-158 57 -248 154q-88 95 -88 244q0 93 34 168q35 77 94 129q62 54 141 82q80 28 175 28q154 -1 279 -85q122 -82 182 -232l-211 -107q-33 82 -94 139q-60 56 -154 56
q-85 0 -141 -45q-55 -45 -55 -119q0 -66 45 -108q44 -41 133 -76l176 -68q169 -67 251 -163q83 -98 83 -240q0 -103 -39 -184t-104 -137q-64 -56 -154 -86q-88 -30 -186 -30q-180 0 -318 94q-136 93 -196 265zM885 1839l-226 -293h-184l-227 293h217l104 -139l105 139h211z
" />
    <glyph glyph-name="scaron" unicode="&#x161;" horiz-adv-x="878" 
d="M250 332q27 -70 80 -112q52 -42 121 -42q54 0 95 26q40 25 40 79q0 40 -28 65q-29 26 -87 43l-121 39q-256 82 -256 291q0 68 28 127q26 54 75 97q48 42 109 62q63 21 134 21q123 0 220 -61q99 -63 145 -166l-191 -103q-28 59 -72 97q-42 36 -102 36q-52 0 -86 -24
q-35 -24 -35 -68q0 -70 113 -108l119 -39q140 -46 203 -120q61 -71 61 -173q0 -77 -30 -137q-31 -61 -80 -102q-50 -41 -118 -63q-69 -22 -141 -22q-140 0 -243 70q-103 69 -146 186zM754 1470l-226 -292h-184l-227 292h217l104 -139l105 139h211z" />
    <glyph glyph-name="Tcommaaccent" unicode="&#x162;" horiz-adv-x="1120" 
d="M39 1434h1042v-228h-397v-1206h-248v1206h-397v228zM539 -342h-4q-42 1 -74 33q-31 31 -31 76q0 59 40 95t93 36q59 0 97 -36t38 -93q0 -29 -9 -58q-8 -27 -21 -55l-72 -148h-135z" />
    <glyph glyph-name="tcommaaccent" unicode="&#x163;" horiz-adv-x="753" 
d="M426 1300v-296h266v-201h-266v-451q0 -84 38 -122q37 -37 118 -37q30 0 58 7q31 8 52 23v-211q-25 -15 -74 -26q-47 -11 -106 -11q-152 0 -237 88t-85 246v494h-149v201h149v296h236zM399 -342h-4q-41 1 -73 33q-31 31 -31 76q0 59 40 95q41 36 93 36q60 0 97 -36
q38 -36 38 -93q0 -29 -9 -58q-6 -19 -22 -55l-71 -148h-135z" />
    <glyph glyph-name="Tcaron" unicode="&#x164;" horiz-adv-x="1120" 
d="M39 1434h1042v-228h-397v-1206h-248v1206h-397v228zM881 1839l-226 -293h-184l-227 293h217l104 -139l105 139h211z" />
    <glyph glyph-name="tcaron" unicode="&#x165;" horiz-adv-x="753" 
d="M426 1300v-296h266v-201h-266v-451q0 -84 38 -122q37 -37 118 -37q30 0 58 7q31 8 52 23v-211q-25 -15 -74 -26q-47 -11 -106 -11q-152 0 -237 88t-85 246v494h-149v201h149v296h236zM537 1116l61 342h236l-99 -342h-198z" />
    <glyph glyph-name="Tbar" unicode="&#x166;" horiz-adv-x="1120" 
d="M39 1434h1042v-228h-397v-381h242v-215h-242v-610h-248v610h-241v215h241v381h-397v228z" />
    <glyph glyph-name="tbar" unicode="&#x167;" horiz-adv-x="763" 
d="M432 1300v-296h266v-201h-266v-166h266v-184h-266v-101q0 -84 38 -122q37 -37 118 -37q30 0 58 7q31 8 52 23v-211q-26 -15 -73 -26t-107 -11q-151 0 -236 88t-85 246v144h-144v184h144v166h-150v201h150v296h235z" />
    <glyph glyph-name="Utilde" unicode="&#x168;" horiz-adv-x="1421" 
d="M711 -25q-134 0 -238 43t-176 121q-73 79 -110 188q-37 108 -37 242v865h245v-854q0 -166 81 -267q81 -100 235 -100q153 0 234 100q81 101 81 267v854h246v-865q0 -131 -38 -242q-37 -109 -110 -188q-72 -78 -176 -121t-237 -43zM373 1567q-2 125 57 184t150 59
q50 0 88 -15q30 -12 65 -34q9 -6 27 -17.5t26 -16.5q24 -15 54 -15q36 0 56 25q19 23 19 65h148q1 -127 -58 -185t-149 -58q-53 0 -89 15q-33 14 -65 34q-11 7 -29.5 18.5t-23.5 14.5q-26 16 -53 16q-38 0 -57 -25t-19 -65h-147z" />
    <glyph glyph-name="utilde" unicode="&#x169;" horiz-adv-x="1208" 
d="M823 1004h238v-1004h-238v133q-45 -70 -124 -115q-76 -43 -181 -43q-179 0 -281 114t-102 310v605h238v-560q0 -118 56 -183q57 -66 161 -66q108 0 170 75q63 77 63 205v529zM260 1194q-2 125 57 184q60 60 150 60q48 0 88 -16q37 -15 66 -33q9 -6 27 -17.5t26 -16.5
q26 -16 53 -16q36 0 56 25t20 66h147q2 -128 -58 -186q-59 -58 -149 -58q-53 0 -89 15q-30 12 -64 34q-9 6 -27 17.5t-26 16.5q-24 15 -54 15q-39 0 -57 -24t-18 -66h-148z" />
    <glyph glyph-name="Umacron" unicode="&#x16a;" horiz-adv-x="1421" 
d="M711 -25q-134 0 -238 43t-176 121q-73 79 -110 188q-37 108 -37 242v865h245v-854q0 -166 81 -267q81 -100 235 -100q153 0 234 100q81 101 81 267v854h246v-865q0 -131 -38 -242q-37 -109 -110 -188q-72 -78 -176 -121t-237 -43zM416 1581v158h590v-158h-590z" />
    <glyph glyph-name="umacron" unicode="&#x16b;" horiz-adv-x="1208" 
d="M823 1004h238v-1004h-238v133q-45 -70 -124 -115q-76 -43 -181 -43q-179 0 -281 114t-102 310v605h238v-560q0 -118 56 -183q57 -66 161 -66q108 0 170 75q63 77 63 205v529zM303 1208v158h590v-158h-590z" />
    <glyph glyph-name="Ubreve" unicode="&#x16c;" horiz-adv-x="1421" 
d="M711 -25q-134 0 -238 43t-176 121q-73 79 -110 188q-37 108 -37 242v865h245v-854q0 -166 81 -267q81 -100 235 -100q153 0 234 100q81 101 81 267v854h246v-865q0 -131 -38 -242q-37 -109 -110 -188q-72 -78 -176 -121t-237 -43zM711 1704q53 0 86 35q32 34 37 94h167
q0 -130 -81 -207q-82 -78 -209 -78q-129 0 -211 78t-82 207h168q5 -61 38 -94q35 -35 87 -35z" />
    <glyph glyph-name="ubreve" unicode="&#x16d;" horiz-adv-x="1208" 
d="M823 1004h238v-1004h-238v133q-45 -70 -124 -115q-76 -43 -181 -43q-179 0 -281 114t-102 310v605h238v-560q0 -118 56 -183q57 -66 161 -66q108 0 170 75q63 77 63 205v529zM600 1331q53 0 86 35q32 34 37 94h168q0 -129 -82 -207q-81 -77 -209 -77q-130 0 -211 77
q-82 78 -82 207h168q5 -61 38 -94q35 -35 87 -35z" />
    <glyph glyph-name="Uring" unicode="&#x16e;" horiz-adv-x="1421" 
d="M711 -25q-134 0 -238 43t-176 121q-73 79 -110 188q-37 108 -37 242v865h245v-854q0 -166 81 -267q81 -100 235 -100q153 0 234 100q81 101 81 267v854h246v-865q0 -131 -38 -242q-37 -109 -110 -188q-72 -78 -176 -121t-237 -43zM500 1706q0 44 16 80q15 35 45 63
q28 27 68 42q42 16 82 16t82 -16q38 -15 67 -42q30 -28 45 -63q17 -39 17 -80t-17 -80q-15 -35 -45 -63q-29 -27 -67 -42q-42 -16 -82 -16t-82 16q-40 15 -68 42q-30 28 -45 63q-16 36 -16 80zM633 1706q0 -33 22 -55q23 -23 56 -23q32 0 55 23q22 22 22 55t-22 55
q-23 23 -55 23q-33 0 -56 -23q-22 -22 -22 -55z" />
    <glyph glyph-name="uring" unicode="&#x16f;" horiz-adv-x="1208" 
d="M823 1004h238v-1004h-238v133q-45 -70 -124 -115q-76 -43 -181 -43q-179 0 -281 114t-102 310v605h238v-560q0 -118 56 -183q57 -66 161 -66q108 0 170 75q63 77 63 205v529zM385 1337q0 44 16 80q16 37 45 64q28 27 68 42q39 15 82 15t82 -15q38 -15 67 -42
q31 -29 46 -64q16 -36 16 -80t-16 -80q-15 -33 -46 -63q-29 -27 -67 -42q-39 -15 -82 -15t-82 15q-40 15 -68 42q-30 28 -45 63q-16 36 -16 80zM518 1337q0 -32 23 -55q22 -22 55 -22t55 22q23 23 23 55q0 33 -23 56q-22 22 -55 22t-55 -22q-23 -23 -23 -56z" />
    <glyph glyph-name="Uhungarumlaut" unicode="&#x170;" horiz-adv-x="1421" 
d="M711 -25q-134 0 -238 43t-176 121q-73 79 -110 188q-37 108 -37 242v865h245v-854q0 -166 81 -267q81 -100 235 -100q153 0 234 100q81 101 81 267v854h246v-865q0 -131 -38 -242q-37 -109 -110 -188q-72 -78 -176 -121t-237 -43zM416 1546l178 293h229l-219 -293h-188z
M770 1546l176 293h230l-220 -293h-186z" />
    <glyph glyph-name="uhungarumlaut" unicode="&#x171;" horiz-adv-x="1208" 
d="M823 1004h238v-1004h-238v133q-45 -70 -124 -115q-76 -43 -181 -43q-179 0 -281 114t-102 310v605h238v-560q0 -118 56 -183q57 -66 161 -66q108 0 170 75q63 77 63 205v529zM307 1171l176 291h230l-219 -291h-187zM659 1171l177 291h227l-217 -291h-187z" />
    <glyph glyph-name="Uogonek" unicode="&#x172;" horiz-adv-x="1421" 
d="M561 -233q0 124 127 208q-122 1 -227 47q-102 44 -170 121q-70 79 -106 187q-35 105 -35 239v865h245v-854q0 -166 81 -267q81 -100 235 -100q153 0 234 100q81 101 81 267v854h246v-865q0 -203 -84 -344q-84 -142 -234 -209q-37 -17 -78 -41q-39 -23 -67 -50
q-30 -28 -47 -57q-19 -32 -19 -63q0 -37 23 -55q22 -18 61 -18q56 0 95 26v-151q-63 -29 -136 -29q-104 0 -164 51q-61 52 -61 138z" />
    <glyph glyph-name="uogonek" unicode="&#x173;" horiz-adv-x="1208" 
d="M823 1004h238v-1004q-45 -12 -89 -32q-42 -20 -75 -45q-32 -25 -51 -56q-19 -32 -19 -62q0 -37 23 -55q22 -18 63 -18q56 0 95 26v-151q-63 -29 -138 -29q-103 0 -163 51t-60 138q0 141 176 233v133q-45 -70 -124 -115q-76 -43 -181 -43q-179 0 -281 114t-102 310v605
h238v-560q0 -118 56 -183q57 -66 161 -66q108 0 170 75q63 77 63 205v529z" />
    <glyph glyph-name="Wcircumflex" unicode="&#x174;" horiz-adv-x="2072" 
d="M510 0l-487 1434h253l330 -1022l342 1022h180l340 -1022l332 1022h250l-489 -1434h-185l-342 1024l-340 -1024h-184zM719 1546l227 293h184l226 -293h-217l-105 137l-102 -137h-213z" />
    <glyph glyph-name="wcircumflex" unicode="&#x175;" horiz-adv-x="1654" 
d="M1063 0l-236 678l-237 -678h-191l-364 1004h244l229 -680l235 680h175l235 -680l229 680h238l-365 -1004h-192zM514 1178l227 292h185l225 -292h-217l-105 139l-102 -139h-213z" />
    <glyph glyph-name="Ycircumflex" unicode="&#x176;" horiz-adv-x="1312" 
d="M780 0h-245v631l-519 803h283l360 -576l361 576h276l-516 -803v-631zM340 1546l227 293h185l225 -293h-217l-105 137l-102 -137h-213z" />
    <glyph glyph-name="ycircumflex" unicode="&#x177;" horiz-adv-x="1110" 
d="M238 -455q-43 0 -81 10q-39 10 -59 19v203q46 -21 105 -21q63 0 106 34t78 120l43 104l-401 990h252l274 -723l283 723h243l-465 -1125q-73 -178 -162 -256q-88 -78 -216 -78zM240 1178l227 292h184l226 -292h-218l-104 139l-102 -139h-213z" />
    <glyph glyph-name="Ydieresis" unicode="&#x178;" horiz-adv-x="1312" 
d="M780 0h-245v631l-519 803h283l360 -576l361 576h276l-516 -803v-631zM590 1694q0 -52 -38 -90q-37 -37 -91 -37q-51 0 -88 37t-37 90q0 51 37 88t88 37q54 0 92 -38q37 -37 37 -87zM981 1694q0 -53 -37 -90t-90 -37t-90 37t-37 90q0 51 37 88t90 37q52 0 90 -38
q37 -37 37 -87z" />
    <glyph glyph-name="Zacute" unicode="&#x179;" horiz-adv-x="1251" 
d="M401 221h783v-221h-1118v160l774 1052h-725v222h1061v-160zM520 1546l197 293h260l-248 -293h-209z" />
    <glyph glyph-name="zacute" unicode="&#x17a;" horiz-adv-x="960" 
d="M899 860l-534 -661h542v-199h-852v147l531 658h-498v199h811v-144zM373 1178l196 292h260l-247 -292h-209z" />
    <glyph glyph-name="Zdotaccent" unicode="&#x17b;" horiz-adv-x="1251" 
d="M401 221h783v-221h-1118v160l774 1052h-725v222h1061v-160zM807 1704q0 -57 -41 -98t-100 -41t-99 40q-41 41 -41 99q0 59 41 100t99 41q60 0 100 -42q41 -43 41 -99z" />
    <glyph glyph-name="zdotaccent" unicode="&#x17c;" horiz-adv-x="960" 
d="M899 860l-534 -661h542v-199h-852v147l531 658h-498v199h811v-144zM659 1296q0 -58 -42 -102q-42 -43 -105 -43q-59 0 -102 43t-43 102q0 62 43 105t102 43q63 0 105 -44t42 -104z" />
    <glyph glyph-name="Zcaron" unicode="&#x17d;" horiz-adv-x="1251" 
d="M401 221h783v-221h-1118v160l774 1052h-725v222h1061v-160zM983 1839l-225 -293h-185l-227 293h217l105 -139l104 139h211z" />
    <glyph glyph-name="zcaron" unicode="&#x17e;" horiz-adv-x="960" 
d="M899 860l-534 -661h542v-199h-852v147l531 658h-498v199h811v-144zM831 1470l-225 -292h-184l-227 292h217l104 -139l105 139h210z" />
    <glyph glyph-name="florin" unicode="&#x192;" horiz-adv-x="1095" 
d="M217 852h234l47 262q30 176 134 271q105 96 267 96q45 0 88 -8q33 -6 74 -21v-215q-64 29 -133 29q-81 0 -130 -43q-51 -45 -67 -129l-43 -242h252v-205h-287l-110 -631q-30 -176 -134 -271t-268 -95q-45 0 -88 8q-37 7 -73 20v216q64 -29 133 -29q81 0 130 43
q49 44 66 129l107 610h-199v205z" />
    <glyph glyph-name="AEacute" unicode="&#x1fc;" horiz-adv-x="1933" 
d="M1006 360h-500l-221 -360h-269l885 1434h924v-224h-576v-364h531v-217h-531v-406h580v-223h-823v360zM1006 573v617l-375 -617h375zM1081 1546l197 293h260l-248 -293h-209z" />
    <glyph glyph-name="aeacute" unicode="&#x1fd;" horiz-adv-x="1763" 
d="M1659 236q-61 -120 -171 -190q-112 -71 -265 -71q-125 0 -229 52q-102 51 -167 149q-66 -107 -170 -153q-108 -48 -233 -48q-154 0 -247 81t-93 210q0 135 88 219q89 85 268 107l273 35v43q0 76 -48 120q-49 44 -130 44q-154 0 -199 -152l-217 55q38 136 149 213
q112 78 267 78q112 0 193 -42t128 -116q67 75 157 116q91 42 197 42q108 0 195 -40q90 -41 153 -110t100 -167q36 -96 36 -209q0 -14 -2 -72h-740q4 -56 27 -102q23 -48 59 -81t85 -53t102 -20q95 0 147 43q54 45 94 111zM1458 602q-10 99 -80 166q-69 66 -172 66
q-48 0 -92 -21q-43 -21 -77 -52q-33 -30 -55 -74q-22 -45 -28 -85h504zM715 451l-228 -31q-85 -11 -126 -47q-42 -37 -42 -90q0 -54 40 -85q41 -32 102 -32q116 0 184 67q70 68 70 183v35zM786 1178l197 292h260l-248 -292h-209z" />
    <glyph glyph-name="Oslashacute" unicode="&#x1fe;" horiz-adv-x="1675" 
d="M94 717q0 155 59 291t158 235q101 101 237 159q135 58 290 58q126 0 240 -39q115 -40 208 -110l156 162l129 -123l-156 -164q79 -97 122 -215q44 -120 44 -254q0 -155 -58 -289t-159 -235q-100 -101 -237 -159q-138 -59 -289 -59q-126 0 -240 38q-111 37 -205 108
l-155 -162l-134 129l156 160q-79 97 -122 215q-44 120 -44 254zM342 717q0 -165 88 -293l688 715q-60 40 -131 64q-72 24 -149 24q-106 0 -195 -40q-90 -41 -158 -110q-66 -68 -105 -162q-38 -93 -38 -198zM1333 717q0 85 -23 155q-24 75 -65 138l-686 -715q122 -86 279 -86
q105 0 194 40q94 42 158 108q68 69 105 162q38 94 38 198zM725 1546l197 293h260l-248 -293h-209z" />
    <glyph glyph-name="oslashacute" unicode="&#x1ff;" horiz-adv-x="1236" 
d="M618 1028q88 0 165 -24q76 -24 143 -68l100 102l117 -114l-99 -101q53 -68 80 -147q29 -84 29 -174q0 -110 -41 -207q-41 -96 -113 -167q-74 -73 -169 -112q-99 -41 -212 -41q-88 0 -164 24q-79 25 -143 67l-100 -105l-117 117l99 100q-55 71 -81 150q-28 86 -28 174
q0 110 41 207q41 96 113 167t169 111q99 41 211 41zM618 819q-64 0 -120 -24t-97 -68q-40 -43 -64 -101t-24 -124q0 -84 39 -158l420 432q-31 19 -74 32q-36 11 -80 11zM924 502q0 82 -39 155l-418 -432q67 -41 151 -41q62 0 120 26t98 69t64 100t24 123zM504 1178l196 292
h261l-248 -292h-209z" />
    <glyph glyph-name="Scommaaccent" unicode="&#x218;" horiz-adv-x="1138" 
d="M285 436q39 -104 115 -167q75 -62 186 -62q92 0 159 48q68 48 68 140q0 133 -180 199l-170 61q-158 57 -248 154q-88 95 -88 244q0 93 34 168q35 77 94 129q62 54 141 82q80 28 175 28q154 -1 279 -85q122 -82 182 -232l-211 -107q-33 82 -94 139q-60 56 -154 56
q-85 0 -141 -45q-55 -45 -55 -119q0 -66 45 -108q44 -41 133 -76l176 -68q169 -67 251 -163q83 -98 83 -240q0 -103 -39 -184t-104 -137q-64 -56 -154 -86q-88 -30 -186 -30q-180 0 -318 94q-136 93 -196 265zM555 -342h-4q-42 1 -74 33q-31 31 -31 76q0 59 40 95t94 36
q60 0 97 -36q38 -36 38 -93q0 -29 -9 -58q-6 -19 -22 -55l-72 -148h-135z" />
    <glyph glyph-name="scommaaccent" unicode="&#x219;" horiz-adv-x="878" 
d="M250 332q27 -70 80 -112q52 -42 121 -42q54 0 95 26q40 25 40 79q0 40 -28 65q-29 26 -87 43l-121 39q-256 82 -256 291q0 68 28 127q26 54 75 97q48 42 109 62q63 21 134 21q123 0 220 -61q99 -63 145 -166l-191 -103q-28 59 -72 97q-42 36 -102 36q-52 0 -86 -24
q-35 -24 -35 -68q0 -70 113 -108l119 -39q140 -46 203 -120q61 -71 61 -173q0 -77 -30 -137q-31 -61 -80 -102q-50 -41 -118 -63q-69 -22 -141 -22q-140 0 -243 70q-103 69 -146 186zM422 -342h-4q-42 1 -74 33q-31 31 -31 76q0 59 40 95q41 36 93 36q60 0 98 -36t38 -93
q0 -26 -10 -58q-8 -27 -21 -55l-72 -148h-135z" />
    <glyph glyph-name="dotlessj" unicode="&#x237;" horiz-adv-x="538" 
d="M154 1004h237v-1067q0 -194 -93 -293t-251 -99q-45 0 -79 8q-38 9 -56 17v209q18 -10 43 -15q21 -4 51 -4q70 0 109 47t39 138v1059z" />
    <glyph glyph-name="circumflex" unicode="&#x2c6;" horiz-adv-x="1024" 
d="M193 1178l227 292h184l225 -292h-217l-104 139l-102 -139h-213z" />
    <glyph glyph-name="caron" unicode="&#x2c7;" horiz-adv-x="1024" 
d="M829 1470l-225 -292h-184l-227 292h217l104 -139l104 139h211z" />
    <glyph glyph-name="breve" unicode="&#x2d8;" horiz-adv-x="1024" 
d="M512 1331q53 0 86 35q32 34 37 94h168q0 -129 -82 -207q-81 -77 -209 -77q-130 0 -211 77q-82 78 -82 207h168q5 -61 38 -94q35 -35 87 -35z" />
    <glyph glyph-name="dotaccent" unicode="&#x2d9;" horiz-adv-x="1024" 
d="M657 1296q0 -58 -42 -102q-42 -43 -105 -43q-59 0 -102 43t-43 102q0 62 43 105t102 43q63 0 105 -44t42 -104z" />
    <glyph glyph-name="ring" unicode="&#x2da;" horiz-adv-x="1024" 
d="M301 1337q0 44 16 80q16 37 45 64q28 27 68 42q39 15 82 15t82 -15q40 -15 68 -42q29 -27 45 -64q16 -36 16 -80t-16 -80q-15 -35 -45 -63q-28 -27 -68 -42q-39 -15 -82 -15t-82 15q-40 15 -68 42q-30 28 -45 63q-16 36 -16 80zM434 1337q0 -32 23 -55q22 -22 55 -22
t55 22q23 23 23 55q0 33 -23 56q-22 22 -55 22t-55 -22q-23 -23 -23 -56z" />
    <glyph glyph-name="ogonek" unicode="&#x2db;" horiz-adv-x="1024" 
d="M717 0q-46 -12 -88 -32q-44 -21 -72 -45q-31 -27 -49 -56q-19 -32 -19 -62q0 -37 23 -55q22 -18 63 -18q56 0 95 26v-151q-63 -29 -138 -29q-103 0 -163 51t-60 138q0 141 174 233h234z" />
    <glyph glyph-name="tilde" unicode="&#x2dc;" horiz-adv-x="1024" 
d="M166 1194q-2 125 57 184q60 60 150 60q48 0 88 -16q35 -14 65 -33q38 -24 54 -34q26 -16 53 -16q36 0 56 25t20 66h147q2 -128 -58 -186q-59 -58 -149 -58q-53 0 -89 15q-30 12 -64 34q-38 24 -54 34q-24 15 -53 15q-39 0 -57 -24q-19 -25 -19 -66h-147z" />
    <glyph glyph-name="hungarumlaut" unicode="&#x2dd;" horiz-adv-x="1024" 
d="M170 1171l176 291h229l-219 -291h-186zM522 1171l176 291h228l-217 -291h-187z" />
    <glyph glyph-name="uni0312" unicode="&#x312;" horiz-adv-x="1024" 
d="M614 1540l-75 -147h2q42 -1 73 -34t31 -79q0 -57 -38 -93q-37 -36 -93 -36q-55 0 -95 37t-40 92q0 34 10 61q12 33 27 64l67 135h131z" />
    <glyph glyph-name="mu" unicode="&#x3bc;" horiz-adv-x="1220" 
d="M385 1004v-560q0 -118 56 -183q57 -66 161 -66q108 0 170 75q64 78 64 205v529h237v-1004h-237v133q-45 -70 -124 -115q-76 -43 -182 -43q-76 0 -145 27v-428h-238v1430h238z" />
    <glyph glyph-name="pi" unicode="&#x3c0;" horiz-adv-x="1269" 
d="M45 1004h1180v-211h-170v-793h-238v793h-364v-793h-238v793h-170v211z" />
    <glyph glyph-name="Wgrave" unicode="&#x1e80;" horiz-adv-x="2072" 
d="M510 0l-487 1434h253l330 -1022l342 1022h180l340 -1022l332 1022h250l-489 -1434h-185l-342 1024l-340 -1024h-184zM936 1546l-248 293h260l195 -293h-207z" />
    <glyph glyph-name="wgrave" unicode="&#x1e81;" horiz-adv-x="1654" 
d="M1063 0l-236 678l-237 -678h-191l-364 1004h244l229 -680l235 680h175l235 -680l229 680h238l-365 -1004h-192zM721 1178l-248 292h260l195 -292h-207z" />
    <glyph glyph-name="Wacute" unicode="&#x1e82;" horiz-adv-x="2072" 
d="M510 0l-487 1434h253l330 -1022l342 1022h180l340 -1022l332 1022h250l-489 -1434h-185l-342 1024l-340 -1024h-184zM932 1546l196 293h261l-248 -293h-209z" />
    <glyph glyph-name="wacute" unicode="&#x1e83;" horiz-adv-x="1654" 
d="M1063 0l-236 678l-237 -678h-191l-364 1004h244l229 -680l235 680h175l235 -680l229 680h238l-365 -1004h-192zM731 1178l197 292h260l-248 -292h-209z" />
    <glyph glyph-name="Wdieresis" unicode="&#x1e84;" horiz-adv-x="2072" 
d="M510 0l-487 1434h253l330 -1022l342 1022h180l340 -1022l332 1022h250l-489 -1434h-185l-342 1024l-340 -1024h-184zM971 1694q0 -52 -38 -90q-37 -37 -91 -37q-51 0 -88 37t-37 90q0 51 37 88t88 37q54 0 92 -38q37 -37 37 -87zM1362 1694q0 -53 -37 -90t-90 -37t-90 37
t-37 90q0 51 37 88t90 37q52 0 90 -38q37 -37 37 -87z" />
    <glyph glyph-name="wdieresis" unicode="&#x1e85;" horiz-adv-x="1654" 
d="M1063 0l-236 678l-237 -678h-191l-364 1004h244l229 -680l235 680h175l235 -680l229 680h238l-365 -1004h-192zM762 1296q0 -51 -38 -89t-91 -38q-51 0 -88 37t-37 90t37 90t88 37q54 0 92 -38q37 -37 37 -89zM1153 1296q0 -52 -37 -89q-38 -38 -90 -38q-53 0 -90 37
t-37 90t37 90t90 37q52 0 90 -38q37 -37 37 -89z" />
    <glyph glyph-name="Ygrave" unicode="&#x1ef2;" horiz-adv-x="1312" 
d="M780 0h-245v631l-519 803h283l360 -576l361 576h276l-516 -803v-631zM567 1546l-248 293h261l194 -293h-207z" />
    <glyph glyph-name="ygrave" unicode="&#x1ef3;" horiz-adv-x="1110" 
d="M238 -455q-43 0 -81 10q-39 10 -59 19v203q46 -21 105 -21q63 0 106 34t78 120l43 104l-401 990h252l274 -723l283 723h243l-465 -1125q-73 -178 -162 -256q-88 -78 -216 -78zM465 1178l-248 292h260l195 -292h-207z" />
    <glyph glyph-name="thinspace" unicode="&#x2009;" horiz-adv-x="225" 
 />
    <glyph glyph-name="figuredash" unicode="&#x2012;" 
d="M117 643h995v-201h-995v201z" />
    <glyph glyph-name="endash" unicode="&#x2013;" horiz-adv-x="1157" 
d="M117 643h923v-201h-923v201z" />
    <glyph glyph-name="emdash" unicode="&#x2014;" horiz-adv-x="1771" 
d="M117 643h1538v-201h-1538v201z" />
    <glyph glyph-name="quoteleft" unicode="&#x2018;" horiz-adv-x="442" 
d="M354 1434l-108 -209h2q50 0 84 -36q35 -37 35 -87q0 -64 -43 -104t-103 -40t-103 41q-42 41 -42 103q0 37 11 66q13 34 30 71l96 195h141z" />
    <glyph glyph-name="quoteright" unicode="&#x2019;" horiz-adv-x="442" 
d="M88 985l109 209h-2q-49 0 -84 36q-35 37 -35 87q0 63 43 103t102 40q61 0 104 -41q42 -41 42 -102q0 -35 -12 -67q-16 -41 -29 -70l-97 -195h-141z" />
    <glyph glyph-name="quotesinglbase" unicode="&#x201a;" horiz-adv-x="442" 
d="M88 -211l109 209h-2q-49 0 -84 36q-35 37 -35 87q0 63 43 103t102 40q61 0 104 -41q42 -41 42 -102q0 -35 -12 -67q-16 -41 -29 -70l-97 -195h-141z" />
    <glyph glyph-name="quotedblleft" unicode="&#x201c;" horiz-adv-x="815" 
d="M354 1434l-108 -209h2q50 0 84 -36q35 -37 35 -87q0 -64 -43 -104t-103 -40t-103 41q-42 41 -42 103q0 37 11 66q13 34 30 71l96 195h141zM727 1434l-109 -209h3q49 0 84 -36q34 -35 34 -87q0 -64 -43 -104t-102 -40q-61 0 -104 41q-41 40 -41 103q0 37 11 66
q18 47 29 71l97 195h141z" />
    <glyph glyph-name="quotedblright" unicode="&#x201d;" horiz-adv-x="815" 
d="M88 985l109 209h-2q-49 0 -84 36q-35 37 -35 87q0 63 43 103t102 40q61 0 104 -41q42 -41 42 -102q0 -35 -12 -67q-16 -41 -29 -70l-97 -195h-141zM461 985l108 209h-2q-49 0 -84 36q-34 35 -34 87q0 63 43 103t102 40q60 0 103 -41q42 -41 42 -102q0 -38 -11 -67
t-30 -70l-96 -195h-141z" />
    <glyph glyph-name="quotedblbase" unicode="&#x201e;" horiz-adv-x="815" 
d="M88 -211l109 209h-2q-49 0 -84 36q-35 37 -35 87q0 63 43 103t102 40q61 0 104 -41q42 -41 42 -102q0 -35 -12 -67q-16 -41 -29 -70l-97 -195h-141zM461 -211l108 209h-2q-49 0 -84 36q-34 35 -34 87q0 63 43 103t102 40q60 0 103 -41q42 -41 42 -102q0 -38 -11 -67
t-30 -70l-96 -195h-141z" />
    <glyph glyph-name="dagger" unicode="&#x2020;" horiz-adv-x="964" 
d="M80 965h287v469h233v-469h287v-209h-287v-977h-233v977h-287v209z" />
    <glyph glyph-name="daggerdbl" unicode="&#x2021;" horiz-adv-x="964" 
d="M80 1008h287v426h233v-426h287v-209h-287v-367h287v-209h-287v-444h-233v444h-287v209h287v367h-287v209z" />
    <glyph glyph-name="bullet" unicode="&#x2022;" horiz-adv-x="651" 
d="M549 543q0 -45 -18 -85q-18 -41 -48 -71t-71 -48q-38 -17 -86 -17t-86 17q-43 19 -72 48q-30 30 -48 71q-18 40 -18 85t18 85t48 70q29 29 72 48q40 18 86 18t86 -18q41 -18 71 -48t48 -70t18 -85z" />
    <glyph glyph-name="ellipsis" unicode="&#x2026;" horiz-adv-x="1761" 
d="M121 129q0 64 44 108t109 44q66 0 110 -44t44 -108q0 -63 -44 -107q-45 -45 -110 -45q-64 0 -109 45q-44 44 -44 107zM727 129q0 64 44 108t110 44q65 0 109 -44t44 -108q0 -63 -44 -107q-45 -45 -109 -45q-65 0 -110 45q-44 44 -44 107zM1333 129q0 64 44 108t110 44
q65 0 109 -44t44 -108q0 -63 -44 -107q-45 -45 -109 -45q-65 0 -110 45q-44 44 -44 107z" />
    <glyph glyph-name="perthousand" unicode="&#x2030;" horiz-adv-x="2484" 
d="M760 1092q0 -73 -27 -133q-27 -59 -74 -105q-48 -46 -109 -71q-62 -25 -134 -25t-134 25q-63 25 -110 71t-74 105q-26 58 -26 133q0 72 26 130q27 59 74 105t110 71q62 25 134 25t134 -25q61 -25 109 -71q47 -46 74 -105q27 -60 27 -130zM416 934q66 0 109 45
q44 46 44 113q0 64 -44 110q-43 45 -109 45t-110 -45q-44 -46 -44 -110q0 -67 44 -113q44 -45 110 -45zM440 0h-239l1040 1407h240zM920 315q0 72 26 131q27 62 74 107q48 46 109 71q62 25 135 25q72 0 134 -25q61 -25 109 -71q47 -45 74 -107t27 -131q0 -70 -27 -130
q-27 -59 -74 -105q-48 -46 -109 -71q-62 -25 -134 -25q-73 0 -135 25q-61 25 -109 71q-47 46 -74 105q-26 58 -26 130zM1110 315q0 -64 44 -110q44 -45 110 -45t109 45q44 46 44 110q0 67 -44 113q-43 45 -109 45t-110 -45q-44 -46 -44 -113zM1726 315q0 69 27 131
q28 63 73 107q48 47 108 71q62 25 134 25q74 0 136 -25q61 -25 109 -71q45 -44 73 -107q27 -61 27 -131t-27 -130q-27 -61 -73 -105q-48 -46 -109 -71q-62 -25 -136 -25q-72 0 -134 25q-60 24 -108 71q-46 44 -73 105q-27 60 -27 130zM1915 315q0 -64 44 -110
q43 -45 109 -45t111 45t45 110q0 68 -45 113t-111 45t-109 -45q-44 -46 -44 -113z" />
    <glyph glyph-name="guilsinglleft" unicode="&#x2039;" horiz-adv-x="628" 
d="M82 541l272 413h224l-271 -413l273 -414h-228z" />
    <glyph glyph-name="guilsinglright" unicode="&#x203a;" horiz-adv-x="628" 
d="M547 541l-273 -414h-223l271 414l-273 413h227z" />
    <glyph glyph-name="fraction" unicode="&#x2044;" horiz-adv-x="401" 
d="M-209 0h-219l1038 1407h221z" />
    <glyph glyph-name="uni2070" unicode="&#x2070;" horiz-adv-x="765" 
d="M694 1010q0 -193 -82 -303q-82 -111 -229 -111t-229 111q-82 110 -82 303t82 303t229 110t229 -110t82 -303zM518 1010q0 122 -35 186t-100 64t-100 -64t-35 -186q0 -123 35 -187q34 -63 100 -63q65 0 100 63q35 64 35 187z" />
    <glyph glyph-name="uni2074" unicode="&#x2074;" horiz-adv-x="724" 
d="M598 926h96v-150h-96v-164h-172v164h-387v125l344 506h215v-481zM231 926h195v286z" />
    <glyph glyph-name="uni2075" unicode="&#x2075;" horiz-adv-x="714" 
d="M86 987l57 420h465v-150h-332l-20 -151q27 24 66 36q36 11 81 11q57 0 104 -19t84 -56q35 -35 55 -84t20 -103q0 -63 -23 -117q-23 -52 -63 -93q-40 -40 -97 -63q-54 -22 -121 -22q-128 0 -211 72q-84 73 -88 188h175q5 -47 38 -73q34 -27 86 -27q55 0 92 37q38 38 38 90
q0 55 -37 91q-38 36 -95 36q-32 0 -64 -16q-30 -15 -48 -42z" />
    <glyph glyph-name="uni2076" unicode="&#x2076;" horiz-adv-x="739" 
d="M680 891q0 -65 -24 -117q-24 -53 -64 -93q-41 -41 -97 -63t-122 -22q-68 0 -124 22t-97 63q-43 43 -64 94q-22 53 -22 118q0 114 81 233l183 281h200l-182 -262q27 12 66 12q57 0 103 -20t85 -56q35 -32 57 -84q21 -49 21 -106zM508 885q0 55 -38 93t-97 38
q-57 0 -97 -38q-38 -37 -38 -91q0 -56 38 -93q40 -38 97 -38q58 0 96 37q39 37 39 92z" />
    <glyph glyph-name="uni2077" unicode="&#x2077;" horiz-adv-x="679" 
d="M104 612l326 635h-381v160h588v-129l-332 -666h-201z" />
    <glyph glyph-name="uni2078" unicode="&#x2078;" horiz-adv-x="714" 
d="M356 596q-62 0 -118 18q-55 18 -96 53q-40 34 -62 79q-23 48 -23 100q0 67 37 119q38 53 101 77q-103 52 -103 160q0 45 20 87q19 40 55 70q34 28 84 47q45 17 105 17t107 -17q51 -18 85 -47q35 -29 56 -70t21 -87q0 -108 -103 -160q61 -24 99 -77q36 -50 36 -119
q0 -55 -22 -100q-20 -42 -64 -79q-41 -35 -96 -53t-119 -18zM356 748q55 0 91 30t36 78t-36 78q-37 31 -91 31q-52 0 -88 -31q-35 -30 -35 -78t35 -78q34 -30 88 -30zM356 1100q48 0 76 24q29 24 29 64q0 38 -29 64t-76 26q-44 0 -73 -26t-29 -64q0 -40 29 -64
q28 -24 73 -24z" />
    <glyph glyph-name="uni2079" unicode="&#x2079;" horiz-adv-x="739" 
d="M57 1128q0 64 24 117t64 93t98 63q56 22 122 22q67 0 123 -22q58 -23 98 -63q41 -41 63 -94q23 -55 23 -118q0 -112 -82 -233l-182 -281h-201l182 262q-29 -12 -65 -12q-56 0 -104 21t-85 55q-35 32 -57 84q-21 50 -21 106zM229 1135q0 -56 38 -94q37 -37 98 -37
q58 0 96 37q39 37 39 92t-39 93q-40 38 -96 38q-59 0 -97 -37q-39 -37 -39 -92z" />
    <glyph glyph-name="uni207A" unicode="&#x207a;" horiz-adv-x="702" 
d="M78 1085h198v199h152v-199h199v-151h-199v-199h-152v199h-198v151z" />
    <glyph glyph-name="uni207B" unicode="&#x207b;" horiz-adv-x="702" 
d="M78 1085h549v-151h-549v151z" />
    <glyph glyph-name="uni207C" unicode="&#x207c;" horiz-adv-x="702" 
d="M78 958h549v-149h-549v149zM78 1212h549v-149h-549v149z" />
    <glyph glyph-name="uni207D" unicode="&#x207d;" horiz-adv-x="454" 
d="M68 1010q0 128 47 257q47 128 145 228h158q-94 -116 -139 -241q-46 -127 -46 -244q0 -120 46 -247q45 -125 139 -241h-158q-98 98 -145 229q-47 132 -47 259z" />
    <glyph glyph-name="uni207E" unicode="&#x207e;" horiz-adv-x="454" 
d="M387 1010q0 -127 -47 -259q-46 -131 -145 -229h-158q94 116 139 241t45 247q0 120 -45 244q-45 125 -139 241h158q98 -100 145 -228q47 -129 47 -257z" />
    <glyph glyph-name="n.superior" unicode="&#x207f;" horiz-adv-x="954" 
d="M315 612h-188v754h188v-102q33 54 94 88q57 32 138 32q138 0 214 -85q77 -86 77 -230v-457h-191v418q0 86 -41 133t-119 47q-79 0 -125 -54q-47 -55 -47 -146v-398z" />
    <glyph glyph-name="uni2080" unicode="&#x2080;" horiz-adv-x="765" 
d="M694 397q0 -193 -82 -303t-229 -110t-229 110t-82 303t82 303q82 111 229 111t229 -111q82 -110 82 -303zM518 397q0 123 -35 187q-35 63 -100 63t-100 -63q-35 -64 -35 -187q0 -122 35 -186t100 -64t100 64t35 186z" />
    <glyph glyph-name="uni2081" unicode="&#x2081;" horiz-adv-x="489" 
d="M190 0v631h-137v164h316v-795h-179z" />
    <glyph glyph-name="uni2082" unicode="&#x2082;" horiz-adv-x="700" 
d="M649 0h-586v139l297 242q107 86 107 160q0 49 -30 77q-31 29 -81 29q-54 0 -85 -36q-32 -36 -33 -95h-172q0 66 21 120q21 53 59 93q38 39 92 61q53 21 116 21q127 0 208 -72t81 -188q0 -79 -43 -144q-46 -71 -141 -145l-131 -104h321v-158z" />
    <glyph glyph-name="uni2083" unicode="&#x2083;" horiz-adv-x="708" 
d="M348 479q47 0 78 26t31 64t-29 62q-28 24 -72 24q-47 0 -75 -28q-29 -30 -31 -70h-168q0 58 20 102q21 47 58 81q39 36 88 53q51 18 110 18q60 0 108 -16q51 -17 86 -46q34 -28 56 -71q21 -40 21 -88q0 -106 -101 -166q65 -27 100 -75q34 -47 34 -113q0 -54 -23 -102
q-22 -46 -62 -80q-39 -33 -95 -52q-54 -18 -120 -18q-134 0 -216 73q-83 74 -83 197h177q0 -50 34 -80q36 -31 91 -31q52 0 87 29q33 27 33 72q0 48 -36 74q-39 28 -99 28h-39v133h37z" />
    <glyph glyph-name="uni2084" unicode="&#x2084;" horiz-adv-x="724" 
d="M598 313h96v-149h-96v-164h-172v164h-387v125l344 506h215v-482zM231 313h195v287z" />
    <glyph glyph-name="uni2085" unicode="&#x2085;" horiz-adv-x="714" 
d="M86 375l57 420h465v-150h-332l-20 -151q25 22 66 35q39 12 81 12q55 0 104 -20t84 -55t55 -84t20 -103q0 -63 -23 -117q-23 -52 -63 -93q-40 -40 -97 -63q-54 -22 -121 -22q-130 0 -211 71q-84 73 -88 189h175q5 -47 38 -73q36 -28 86 -28q55 0 92 37q38 38 38 90
q0 55 -37 91q-38 36 -95 36q-34 0 -64 -15t-48 -42z" />
    <glyph glyph-name="uni2086" unicode="&#x2086;" horiz-adv-x="739" 
d="M680 279q0 -65 -24 -117q-24 -53 -64 -93q-41 -41 -97 -63t-122 -22q-68 0 -124 22t-97 63q-43 43 -64 94q-22 53 -22 118q0 114 81 233l183 281h200l-182 -263q29 13 66 13q55 0 103 -21t85 -55q35 -32 57 -84q21 -49 21 -106zM508 272q0 56 -38 94q-37 37 -97 37
q-59 0 -97 -37t-38 -92q0 -56 38 -93q40 -38 97 -38q58 0 96 37q39 38 39 92z" />
    <glyph glyph-name="uni2087" unicode="&#x2087;" horiz-adv-x="679" 
d="M104 0l326 635h-381v160h588v-129l-332 -666h-201z" />
    <glyph glyph-name="uni2088" unicode="&#x2088;" horiz-adv-x="714" 
d="M356 -16q-62 0 -118 18t-96 52t-62 80q-23 48 -23 99q0 67 37 119q39 54 101 78q-103 52 -103 160q0 45 20 87q19 39 55 69t84 48q45 17 105 17t107 -17q49 -18 85 -48t56 -69q21 -41 21 -87q0 -108 -103 -160q60 -23 99 -78q36 -50 36 -119q0 -54 -22 -99
q-21 -43 -64 -80q-40 -34 -96 -52q-55 -18 -119 -18zM356 135q54 0 91 31q36 30 36 78t-36 78t-91 30q-54 0 -88 -30q-35 -30 -35 -78t35 -78q36 -31 88 -31zM356 487q46 0 76 25q29 24 29 63t-29 65t-76 26q-44 0 -73 -26t-29 -65t29 -63q30 -25 73 -25z" />
    <glyph glyph-name="uni2089" unicode="&#x2089;" horiz-adv-x="739" 
d="M57 516q0 64 24 117t64 93q39 39 98 62q58 23 122 23q65 0 123 -23q59 -23 98 -62q41 -41 63 -94q23 -55 23 -118q0 -112 -82 -233l-182 -281h-201l182 262q-29 -12 -65 -12q-58 0 -104 20t-85 56q-35 32 -57 84q-21 50 -21 106zM229 522q0 -55 38 -93t98 -38q56 0 96 38
q39 37 39 91q0 56 -39 93q-40 38 -96 38q-59 0 -97 -37q-39 -38 -39 -92z" />
    <glyph glyph-name="uni208A" unicode="&#x208a;" horiz-adv-x="702" 
d="M78 473h198v199h152v-199h199v-151h-199v-199h-152v199h-198v151z" />
    <glyph glyph-name="uni208B" unicode="&#x208b;" horiz-adv-x="702" 
d="M78 473h549v-151h-549v151z" />
    <glyph glyph-name="uni208C" unicode="&#x208c;" horiz-adv-x="702" 
d="M78 346h549v-149h-549v149zM78 600h549v-149h-549v149z" />
    <glyph glyph-name="uni208D" unicode="&#x208d;" horiz-adv-x="454" 
d="M68 397q0 128 47 257q47 130 145 229h158q-94 -116 -139 -241q-46 -127 -46 -245q0 -119 46 -246q45 -125 139 -241h-158q-99 99 -145 228q-47 132 -47 259z" />
    <glyph glyph-name="uni208E" unicode="&#x208e;" horiz-adv-x="454" 
d="M387 397q0 -127 -47 -259q-46 -129 -145 -228h-158q94 116 139 241t45 246t-45 245q-45 125 -139 241h158q98 -99 145 -229q47 -129 47 -257z" />
    <glyph glyph-name="Euro" unicode="&#x20ac;" horiz-adv-x="1232" 
d="M911 492h-448q50 -123 150 -195q103 -74 233 -74q84 0 156 23t143 63v-233q-72 -39 -153 -57q-76 -17 -158 -17q-111 0 -213 35q-101 35 -183 99q-80 62 -140 155q-59 91 -89 201h-174v157h149q-2 30 -2 53q0 28 2 56h-149v160h176q30 108 89 197q61 92 140 154
q81 63 182 100q99 36 212 36q74 0 160 -19q80 -18 149 -53v-237q-70 41 -139 65q-72 25 -158 25q-128 0 -231 -74q-101 -73 -152 -194h446v-160h-485q-2 -28 -2 -56q0 -29 2 -53h487v-157z" />
    <glyph glyph-name="afii61289" unicode="&#x2113;" horiz-adv-x="878" 
d="M61 573q72 22 146 56v434q0 175 84 270q84 94 231 94q133 0 214 -82q81 -83 81 -223q0 -173 -99 -326t-280 -266v-180q0 -84 44 -122t122 -38q71 0 119 31v-211q-64 -35 -170 -35q-167 0 -256 88q-90 89 -90 261v96q-67 -27 -146 -45v198zM438 782q75 70 121 152
q47 83 47 174q0 55 -20 84q-22 31 -62 31q-86 0 -86 -142v-299z" />
    <glyph glyph-name="trademark" unicode="&#x2122;" horiz-adv-x="1648" 
d="M403 733h-161v545h-199v156h559v-156h-199v-545zM1536 1434v-701h-158v438l-196 -438h-105l-194 436v-436h-158v701h197l213 -473l211 473h190z" />
    <glyph glyph-name="ohm" unicode="&#x2126;" horiz-adv-x="1644" 
d="M727 0h-620v225h245q-52 44 -93 103q-43 61 -72 130t-46 148q-16 76 -16 160q0 144 55 267q54 122 151 214q95 91 222 143q126 52 270 52q145 0 271 -52q127 -52 222 -143q95 -90 150 -214q56 -126 56 -267q0 -80 -17 -160q-16 -75 -47 -148q-29 -68 -74 -130
q-43 -60 -94 -103h248v-225h-618v184q74 23 140 77q63 51 112 125t76 163q28 93 28 192t-36 185q-37 87 -97 149q-62 64 -144 101q-79 36 -176 36t-176 -36q-80 -36 -143 -101q-60 -62 -97 -149q-36 -86 -36 -185q0 -102 27 -192q27 -89 76 -163q48 -72 113 -125
q66 -54 140 -77v-184z" />
    <glyph glyph-name="estimated" unicode="&#x212e;" horiz-adv-x="1574" 
d="M1415 367q-43 -90 -106 -159q-69 -75 -148 -124q-84 -52 -177 -80q-96 -29 -196 -29q-145 0 -274 56q-128 55 -219 150q-93 96 -145 223q-54 131 -54 274q0 146 52 274q53 130 145 225q91 95 219 150q126 55 276 55q152 0 276 -56q128 -58 218 -155q92 -99 144 -229
q53 -132 53 -280h-1121v-383q80 -94 188 -147q110 -54 242 -54q159 0 292 80q132 80 206 209h129zM788 1280q-136 0 -243 -52q-108 -53 -187 -145v-319h850v326q-78 88 -184 139t-236 51z" />
    <glyph glyph-name="uni2153" unicode="&#x2153;" horiz-adv-x="1640" 
d="M190 612v631h-137v164h316v-795h-179zM322 0h-220l1039 1407h221zM1280 479q47 0 78 26t31 64t-29 62q-28 24 -72 24q-48 0 -76 -28t-30 -70h-168q0 58 20 102q21 47 58 81q39 36 88 53q51 18 110 18q60 0 108 -16q51 -17 86 -46q34 -28 56 -71q21 -40 21 -88
q0 -106 -101 -166q65 -27 100 -75q33 -46 33 -113q0 -57 -22 -102t-63 -80q-40 -34 -94 -52t-120 -18q-134 0 -216 73q-83 74 -83 197h176q0 -50 35 -80q36 -31 90 -31q52 0 87 29q34 28 34 72q0 47 -37 74q-39 28 -98 28h-39v133h37z" />
    <glyph glyph-name="uni2154" unicode="&#x2154;" horiz-adv-x="1882" 
d="M649 612h-586v140l297 241q107 86 107 160q0 49 -30 78q-31 29 -81 29q-54 0 -85 -36t-33 -96h-172q0 66 21 120q21 53 59 93q38 39 92 61q53 21 116 21q128 0 208 -71q81 -72 81 -189q0 -79 -43 -144q-46 -71 -141 -145l-131 -104h321v-158zM563 0h-219l1038 1407h222z
M1522 479q46 0 77 26t31 64t-28 62t-72 24q-48 0 -76 -28q-30 -30 -31 -70h-168q0 55 21 102q22 49 57 81q39 36 88 53q51 18 111 18q59 0 107 -16q51 -17 86 -46q36 -30 57 -71q20 -39 20 -88q0 -106 -100 -166q64 -26 99 -75q34 -47 34 -113q0 -54 -23 -102
q-22 -46 -62 -80t-94 -52t-120 -18q-134 0 -216 73q-83 74 -83 197h176q0 -50 35 -80q36 -31 90 -31q52 0 87 29q34 28 34 72q0 47 -37 74q-39 28 -98 28h-39v133h37z" />
    <glyph glyph-name="uni2155" unicode="&#x2155;" horiz-adv-x="1652" 
d="M190 612v631h-137v164h316v-795h-179zM322 0h-220l1039 1407h221zM1024 375l57 420h465v-150h-332l-20 -151q25 22 66 35q39 12 81 12q55 0 104 -20t84 -55t55 -84t20 -103q0 -63 -23 -117q-23 -52 -63 -93q-40 -40 -97 -63q-54 -22 -121 -22q-130 0 -211 71
q-84 73 -88 189h175q5 -47 38 -73q36 -28 86 -28q55 0 92 37q38 38 38 90q0 55 -37 91t-95 36q-34 0 -64 -15t-48 -42z" />
    <glyph glyph-name="uni2156" unicode="&#x2156;" horiz-adv-x="1894" 
d="M649 612h-586v140l297 241q107 86 107 160q0 49 -30 78q-31 29 -81 29q-54 0 -85 -36t-33 -96h-172q0 66 21 120q21 53 59 93q38 39 92 61q53 21 116 21q128 0 208 -71q81 -72 81 -189q0 -79 -43 -144q-46 -71 -141 -145l-131 -104h321v-158zM563 0h-219l1038 1407h222z
M1266 375l57 420h465v-150h-332l-20 -151q26 23 65 35t82 12q55 0 104 -20t84 -55t55 -84q19 -47 19 -103q0 -66 -22 -117t-64 -93q-41 -41 -96 -63q-54 -22 -121 -22q-131 0 -212 71q-82 72 -87 189h174q5 -46 39 -73q36 -28 86 -28q54 0 91 37q38 38 38 90q0 55 -37 91
q-38 36 -94 36q-34 0 -64 -15q-32 -16 -49 -42z" />
    <glyph glyph-name="uni2157" unicode="&#x2157;" horiz-adv-x="1837" 
d="M348 1092q49 0 78 25q31 26 31 65q0 37 -29 61q-30 25 -72 25q-46 0 -75 -29t-31 -70h-168q0 59 20 103q21 47 58 81t88 52t110 18q60 0 108 -16q51 -17 86 -46q34 -28 56 -71q21 -41 21 -88q0 -106 -101 -166q66 -27 100 -74t34 -114q0 -54 -23 -102q-22 -45 -62 -79
q-41 -35 -95 -53t-120 -18q-133 0 -216 74t-83 196h177q0 -50 34 -80q35 -30 91 -30q53 0 87 28q33 27 33 72q0 49 -36 75q-37 27 -99 27h-39v134h37zM506 0h-219l1038 1407h221zM1208 375l58 420h465v-150h-332l-21 -151q25 22 66 35q39 12 82 12q54 0 103 -20t84 -55
t55 -84t20 -103q0 -63 -23 -117q-23 -52 -63 -93t-96 -63q-54 -22 -121 -22q-131 0 -212 71q-83 72 -87 189h174q5 -46 39 -73q36 -28 86 -28q54 0 91 37q38 38 38 90q0 55 -37 91t-94 36q-35 0 -65 -15t-48 -42z" />
    <glyph glyph-name="uni2158" unicode="&#x2158;" horiz-adv-x="1888" 
d="M598 926h96v-150h-96v-164h-172v164h-387v125l344 506h215v-481zM231 926h195v286zM557 0h-219l1038 1407h221zM1260 375l57 420h465v-150h-332l-20 -151q26 23 65 35t82 12q54 0 103 -20t84 -55q37 -37 56 -84t19 -103q0 -66 -22 -117t-64 -93q-41 -41 -96 -63
q-54 -22 -121 -22q-131 0 -212 71q-82 72 -87 189h174q5 -46 39 -73q36 -28 86 -28q54 0 91 37q38 38 38 90q0 55 -37 91q-38 36 -94 36q-35 0 -65 -15t-48 -42z" />
    <glyph glyph-name="uni2159" unicode="&#x2159;" horiz-adv-x="1579" 
d="M190 612v631h-137v164h316v-795h-179zM322 0h-220l1039 1407h221zM1520 279q0 -65 -24 -117q-24 -53 -64 -93t-98 -63q-56 -22 -122 -22q-67 0 -123 22q-58 23 -98 63q-41 41 -63 94q-23 55 -23 118q0 112 82 233l182 281h201l-182 -263q29 13 65 13q56 0 104 -21t85 -55
q35 -32 57 -84q21 -50 21 -106zM1348 272q0 56 -38 94q-37 37 -98 37q-58 0 -96 -37q-39 -38 -39 -92q0 -56 39 -93q40 -38 96 -38q59 0 97 37q39 38 39 92z" />
    <glyph glyph-name="uni215A" unicode="&#x215a;" horiz-adv-x="1759" 
d="M86 987l57 420h465v-150h-332l-20 -151q27 24 66 36q36 11 81 11q57 0 104 -19t84 -56q35 -35 55 -84t20 -103q0 -63 -23 -117q-23 -52 -63 -93q-40 -40 -97 -63q-54 -22 -121 -22q-128 0 -211 72q-84 73 -88 188h175q5 -47 38 -73q34 -27 86 -27q55 0 92 37q38 38 38 90
q0 55 -37 91q-38 36 -95 36q-32 0 -64 -16q-30 -15 -48 -42zM502 0h-219l1038 1407h221zM1700 279q0 -65 -24 -117q-24 -53 -64 -93t-98 -63q-56 -22 -121 -22q-68 0 -124 22q-58 23 -98 63q-41 41 -63 94q-23 55 -23 118q0 112 82 233l183 281h200l-182 -263q29 13 66 13
q55 0 103 -21t85 -55q35 -32 57 -84q21 -50 21 -106zM1528 272q0 56 -38 94q-37 37 -97 37q-59 0 -97 -37q-39 -38 -39 -92q0 -56 39 -93q40 -38 97 -38q58 0 96 37q39 38 39 92z" />
    <glyph glyph-name="uni215B" unicode="&#x215b;" horiz-adv-x="1636" 
d="M190 612v631h-137v164h316v-795h-179zM322 0h-220l1039 1407h221zM1278 -16q-64 0 -119 18t-95 52q-41 35 -63 80t-22 99q0 67 37 119q39 55 100 78q-102 51 -102 160q0 48 19 87q18 37 56 69q37 31 83 48q45 17 106 17q59 0 106 -17q49 -18 85 -48q37 -31 57 -69
q20 -39 20 -87q0 -109 -102 -160q59 -23 98 -78q37 -52 37 -119q0 -51 -23 -99q-22 -45 -63 -80q-40 -34 -96 -52q-55 -18 -119 -18zM1278 135q54 0 91 31q36 30 36 78t-36 78t-91 30q-54 0 -88 -30q-35 -30 -35 -78t35 -78q36 -31 88 -31zM1278 487q46 0 76 25q28 24 28 63
q0 40 -28 65q-29 26 -76 26q-45 0 -74 -26q-28 -25 -28 -65q0 -39 28 -63q30 -25 74 -25z" />
    <glyph glyph-name="uni215C" unicode="&#x215c;" horiz-adv-x="1820" 
d="M348 1092q49 0 78 25q31 26 31 65q0 37 -29 61q-30 25 -72 25q-46 0 -75 -29t-31 -70h-168q0 59 20 103q21 47 58 81t88 52t110 18q60 0 108 -16q51 -17 86 -46q34 -28 56 -71q21 -41 21 -88q0 -106 -101 -166q66 -27 100 -74t34 -114q0 -54 -23 -102q-22 -45 -62 -79
q-41 -35 -95 -53t-120 -18q-133 0 -216 74t-83 196h177q0 -50 34 -80q35 -30 91 -30q53 0 87 28q33 27 33 72q0 49 -36 75q-37 27 -99 27h-39v134h37zM506 0h-219l1038 1407h221zM1462 -16q-64 0 -119 18t-95 52t-62 80q-23 48 -23 99q0 67 37 119q39 55 100 78
q-102 51 -102 160q0 45 20 87q19 39 55 69t84 48q45 17 105 17t107 -17q49 -18 85 -48t56 -69q21 -41 21 -87q0 -108 -103 -160q59 -23 98 -78q37 -52 37 -119q0 -54 -22 -99q-21 -43 -64 -80q-40 -34 -96 -52q-55 -18 -119 -18zM1462 135q54 0 91 31q36 30 36 78t-36 78
t-91 30q-53 0 -88 -30t-35 -78t35 -78q36 -31 88 -31zM1462 487q46 0 76 25q29 24 29 63t-29 65t-76 26q-44 0 -73 -26t-29 -65t29 -63q30 -25 73 -25z" />
    <glyph glyph-name="uni215D" unicode="&#x215d;" horiz-adv-x="1816" 
d="M86 987l57 420h465v-150h-332l-20 -151q27 24 66 36q36 11 81 11q57 0 104 -19t84 -56q35 -35 55 -84t20 -103q0 -63 -23 -117q-23 -52 -63 -93q-40 -40 -97 -63q-54 -22 -121 -22q-128 0 -211 72q-84 73 -88 188h175q5 -47 38 -73q34 -27 86 -27q55 0 92 37q38 38 38 90
q0 55 -37 91q-38 36 -95 36q-32 0 -64 -16q-30 -15 -48 -42zM502 0h-219l1038 1407h221zM1458 -16q-64 0 -119 18t-95 52t-62 80q-23 48 -23 99q0 67 37 119q39 55 100 78q-102 51 -102 160q0 48 19 87q18 37 56 69q36 30 84 48q45 17 105 17t107 -17q49 -18 85 -48t56 -69
t20 -87q0 -109 -102 -160q59 -23 98 -78q37 -52 37 -119q0 -54 -22 -99q-21 -43 -64 -80q-40 -34 -96 -52q-55 -18 -119 -18zM1458 135q54 0 91 31q36 30 36 78t-36 78t-91 30q-54 0 -88 -30q-35 -30 -35 -78t35 -78q36 -31 88 -31zM1458 487q46 0 76 25q29 24 29 63t-29 65
t-76 26q-45 0 -74 -26q-28 -25 -28 -65q0 -39 28 -63q30 -25 74 -25z" />
    <glyph glyph-name="uni215E" unicode="&#x215e;" horiz-adv-x="1679" 
d="M104 612l326 635h-381v160h588v-129l-332 -666h-201zM365 0h-220l1039 1407h221zM1321 -16q-63 0 -119 18q-55 18 -95 52q-41 35 -63 80t-22 99q0 67 37 119q39 55 100 78q-102 51 -102 160q0 48 19 87q18 37 56 69q37 31 83 48q45 17 106 17q59 0 106 -17q49 -18 85 -48
q37 -31 57 -69q20 -39 20 -87q0 -109 -102 -160q59 -23 98 -78q37 -52 37 -119q0 -51 -23 -99q-22 -45 -63 -80q-40 -34 -96 -52t-119 -18zM1321 135q54 0 91 31q36 30 36 78t-36 78t-91 30q-53 0 -88 -30t-35 -78t35 -78q36 -31 88 -31zM1321 487q46 0 76 25q28 24 28 63
q0 40 -28 65q-29 26 -76 26q-45 0 -74 -26q-28 -25 -28 -65q0 -39 28 -63q30 -25 74 -25z" />
    <glyph glyph-name="uni215F" unicode="&#x215f;" horiz-adv-x="931" 
d="M190 612v631h-137v164h316v-795h-179zM322 0h-220l1039 1407h221z" />
    <glyph glyph-name="arrowleft" unicode="&#x2190;" horiz-adv-x="1740" 
d="M1587 618h-1081l407 -409l-137 -137l-647 645l647 645l137 -137l-407 -410h1081v-197z" />
    <glyph glyph-name="arrowup" unicode="&#x2191;" horiz-adv-x="1638" 
d="M721 0v1098l-410 -408l-137 137l645 646l645 -646l-137 -137l-409 408v-1098h-197z" />
    <glyph glyph-name="arrowright" unicode="&#x2192;" horiz-adv-x="1740" 
d="M154 815h1081l-408 410l138 137l647 -645l-647 -645l-138 137l408 409h-1081v197z" />
    <glyph glyph-name="arrowdown" unicode="&#x2193;" horiz-adv-x="1638" 
d="M918 1434v-1098l409 407l137 -137l-645 -645l-645 645l137 137l410 -407v1098h197z" />
    <glyph glyph-name="uni2196" unicode="&#x2196;" horiz-adv-x="1536" 
d="M1155 1239h-577l794 -797l-137 -139l-795 797v-580h-196v914h911v-195z" />
    <glyph glyph-name="uni2197" unicode="&#x2197;" horiz-adv-x="1536" 
d="M381 1434h911v-914h-196v580l-795 -797l-137 139l794 797h-577v195z" />
    <glyph glyph-name="uni2198" unicode="&#x2198;" horiz-adv-x="1536" 
d="M1155 0h-911v913h196v-579l795 796l137 -139l-794 -796h577v-195z" />
    <glyph glyph-name="uni2199" unicode="&#x2199;" horiz-adv-x="1536" 
d="M381 195h577l-794 796l137 139l795 -796v579h196v-913h-911v195z" />
    <glyph glyph-name="partialdiff" unicode="&#x2202;" horiz-adv-x="1253" 
d="M582 938q108 0 195 -35q84 -34 132 -88q-1 87 -27 164q-25 74 -75 132q-49 57 -118 88q-70 32 -157 32q-65 0 -143 -18q-79 -18 -151 -58v217q71 34 153 52q83 18 162 18q126 0 234 -46q110 -47 191 -135t128 -224q47 -135 47 -308q0 -159 -36 -295q-36 -137 -108 -239
q-71 -101 -182 -161q-109 -59 -252 -59q-100 0 -190 32q-89 31 -153 93q-64 61 -102 149t-38 197q0 108 37 198q38 92 103 156q63 62 156 101q87 37 194 37zM616 729q-66 0 -118 -21q-50 -20 -90 -60q-36 -36 -58 -89q-20 -49 -20 -110q0 -118 72 -187t184 -69q69 0 126 30
q53 28 96 82q39 49 64 118t31 136q-40 76 -118 124q-76 46 -169 46z" />
    <glyph glyph-name="Delta" unicode="&#x2206;" horiz-adv-x="1482" 
d="M66 0l575 1430h199l577 -1430h-1351zM395 221h686l-344 862z" />
    <glyph glyph-name="product" unicode="&#x220f;" horiz-adv-x="1454" 
d="M168 1419h1118v-1419h-244v1192h-630v-1192h-244v1419z" />
    <glyph glyph-name="summation" unicode="&#x2211;" horiz-adv-x="1181" 
d="M92 180l449 529l-449 530v180h995v-221h-657l373 -446v-84l-375 -445h659v-223h-995v180z" />
    <glyph glyph-name="minus" unicode="&#x2212;" 
d="M143 782h942v-198h-942v198z" />
    <glyph glyph-name="radical" unicode="&#x221a;" horiz-adv-x="1460" 
d="M1397 1421l-613 -1421h-194l-322 766h-196v209h360l260 -651l467 1097h238z" />
    <glyph glyph-name="infinity" unicode="&#x221e;" horiz-adv-x="1648" 
d="M819 514q-68 -87 -147 -137q-80 -51 -187 -51q-79 0 -147 27q-65 26 -117 75q-50 47 -77 113t-27 139t27 139t77 113q52 49 117 75q68 27 147 27q107 0 192 -52q84 -52 152 -136q66 82 149 136q80 52 185 52q80 0 148 -27q63 -25 116 -75q50 -47 77 -113q28 -68 28 -139
t-28 -139q-27 -66 -77 -113q-53 -50 -116 -75q-68 -27 -148 -27q-106 0 -191 52q-86 53 -153 136zM1319 680q0 66 -48 112q-47 46 -116 46q-35 0 -65 -15q-35 -17 -58 -38q-27 -24 -49 -52q-28 -35 -41 -55q18 -28 41 -56q28 -34 49 -50q22 -17 58 -35q30 -15 65 -15
q69 0 116 46q48 46 48 112zM330 680q0 -66 48 -112q47 -46 116 -46q37 0 67 15q36 18 56 37q26 25 49 52q15 18 43 56q-28 36 -43 55q-22 28 -49 50q-25 20 -56 36q-30 15 -67 15q-69 0 -116 -46q-48 -46 -48 -112z" />
    <glyph glyph-name="integral" unicode="&#x222b;" horiz-adv-x="864" 
d="M551 -70q0 -190 -97 -287q-98 -98 -255 -98q-51 0 -93 8t-65 17v209q46 -19 113 -19q69 0 114 39t45 138v1120q0 191 99 288q98 97 256 97q56 0 92 -7q39 -7 63 -18v-209q-35 12 -48 14q-28 5 -62 5q-69 0 -116 -39q-46 -39 -46 -137v-1121z" />
    <glyph glyph-name="approxequal" unicode="&#x2248;" 
d="M166 348q0 70 21 123q21 52 59 90q37 37 87 55q52 19 107 19q75 0 124 -19q45 -18 79 -42q33 -24 60 -42t69 -18q47 0 76 32q30 33 31 79h186q0 -68 -22 -123q-21 -53 -58 -90q-38 -38 -87 -56q-50 -18 -107 -18q-79 0 -125 18q-48 18 -80 42q-22 16 -61 42
q-29 19 -66 19q-47 0 -76 -32q-30 -33 -31 -79h-186zM166 741q0 71 21 123t59 90t87 56q50 18 107 18q78 0 124 -18q45 -18 79 -42q33 -24 60 -42q28 -19 69 -19q47 0 76 32q30 33 31 79h186q0 -68 -22 -123q-21 -53 -58 -90t-87 -55q-52 -19 -107 -19q-76 0 -125 19
q-48 18 -80 42q-22 16 -61 42q-27 18 -66 18q-47 0 -76 -32q-30 -33 -31 -79h-186z" />
    <glyph glyph-name="notequal" unicode="&#x2260;" 
d="M143 989h512l80 174h211l-80 -174h219v-196h-311l-100 -220h411v-196h-501l-82 -180h-211l82 180h-230v196h320l100 220h-420v196z" />
    <glyph glyph-name="equivalence" unicode="&#x2261;" 
d="M143 379h942v-197h-942v197zM143 780h942v-196h-942v196zM143 1182h942v-197h-942v197z" />
    <glyph glyph-name="lessequal" unicode="&#x2264;" 
d="M176 287h877v-195h-877v195zM176 995l877 344v-213l-623 -243l623 -244v-221l-877 344v233z" />
    <glyph glyph-name="greaterequal" unicode="&#x2265;" 
d="M1053 92h-877v195h877v-195zM1053 762l-877 -344v217l621 242l-621 241v221l877 -344v-233z" />
    <glyph glyph-name="lozenge" unicode="&#x25ca;" horiz-adv-x="1198" 
d="M690 0h-182l-447 713l447 708h182l447 -708zM596 1151l-274 -434l280 -447l277 437z" />
    <glyph glyph-name="anglebracketleft" unicode="&#x3008;" horiz-adv-x="714" 
d="M51 596l416 946h229l-409 -940l413 -940h-237z" />
    <glyph glyph-name="anglebracketright" unicode="&#x3009;" horiz-adv-x="714" 
d="M664 608l-414 -946h-232l410 940l-412 940h236z" />
    <glyph glyph-name="commaaccent" unicode="&#xf6c3;" horiz-adv-x="1024" 
d="M485 -342h-4q-41 1 -73 33q-31 31 -31 76q0 59 40 95q41 36 93 36q60 0 97 -36q38 -36 38 -93q0 -29 -9 -58q-6 -19 -22 -55l-71 -148h-135z" />
    <glyph glyph-name="fi" unicode="&#xfb01;" horiz-adv-x="1277" 
d="M432 1004h270v-201h-270v-803h-237v803h-150v201h150v59q0 99 27 176q26 74 79 127q50 50 121 78q66 26 156 26q49 0 89 -8q35 -7 64 -20v-209q-25 13 -52 20q-36 9 -67 9q-78 0 -129 -45t-51 -152v-61zM893 0v1004h237v-1004h-237zM1157 1296q0 -58 -42 -102
q-42 -43 -105 -43q-60 0 -103 43t-43 102q0 62 43 105t103 43q63 0 105 -44t42 -104z" />
    <glyph glyph-name="fl" unicode="&#xfb02;" horiz-adv-x="1275" 
d="M432 1004h270v-201h-270v-803h-237v803h-150v201h150v59q0 99 27 176q26 74 79 127q50 50 121 78q66 26 156 26q49 0 89 -8q35 -7 64 -20v-209q-25 13 -52 20q-36 9 -67 9q-78 0 -129 -45t-51 -152v-61zM1128 1434v-1434h-237v1434h237z" />
    <glyph glyph-name="Adieresis.square" horiz-adv-x="1417" 
d="M813 1434l584 -1434h-258l-146 362h-577l-144 -362h-252l584 1434h209zM496 578h419l-210 532zM401 1573v237h222v-237h-222zM797 1573v237h221v-237h-221z" />
    <glyph glyph-name="Anocross" horiz-adv-x="1417" 
d="M272 0h-252l584 1434h205l584 -1434h-258l-433 1094z" />
    <glyph glyph-name="Cdotaccent.square" horiz-adv-x="1316" 
d="M94 717q0 153 58 292q56 135 156 236q99 101 235 158q135 57 291 57q107 0 201 -29q96 -30 190 -88v-264q-96 73 -189 107q-96 35 -200 35q-106 0 -194 -39q-89 -39 -155 -107q-63 -64 -102 -160q-37 -90 -37 -198q0 -106 37 -196q38 -93 102 -160t155 -107
q88 -39 194 -39q103 0 200 35q98 35 193 102v-264q-96 -58 -199 -86q-100 -27 -199 -27q-155 0 -289 57q-139 59 -234 156q-99 100 -156 236q-58 137 -58 293zM702 1575v246h238v-246h-238z" />
    <glyph glyph-name="Edieresis.square" horiz-adv-x="1095" 
d="M168 1434h819v-224h-573v-364h528v-217h-528v-406h577v-223h-823v1434zM272 1573v237h222v-237h-222zM668 1573v237h221v-237h-221z" />
    <glyph glyph-name="Edotaccent.square" horiz-adv-x="1095" 
d="M168 1434h819v-224h-573v-364h528v-217h-528v-406h577v-223h-823v1434zM463 1575v246h237v-246h-237z" />
    <glyph glyph-name="Gcommaaccent.square" horiz-adv-x="1615" 
d="M1245 983q-60 118 -167 180q-110 64 -244 64q-105 0 -192 -40q-90 -41 -156 -110t-104 -162t-38 -198q0 -104 38 -198t104 -163q64 -67 156 -109q87 -40 194 -40q89 0 158 26q71 27 129 74q55 45 94 112q37 64 49 142h-467v215h729v-92q0 -150 -51 -280
q-50 -128 -144 -225q-92 -95 -219 -149q-130 -55 -280 -55q-153 0 -289 59t-236 159t-157 235q-58 137 -58 289q0 153 59 289t159 236q101 101 236 160q132 58 288 58q106 0 199 -25q94 -25 176 -74q81 -48 146 -116q63 -66 107 -151zM723 -111h223v-221q0 -88 -46 -134
t-138 -48q-13 0 -35 2v106q10 -2 18 -2q34 1 56 19q20 16 20 47v14h-98v217z" />
    <glyph glyph-name="Gdotaccent.square" horiz-adv-x="1615" 
d="M1245 983q-60 118 -167 180q-110 64 -244 64q-105 0 -192 -40q-90 -41 -156 -110t-104 -162t-38 -198q0 -104 38 -198t104 -163q64 -67 156 -109q87 -40 194 -40q89 0 158 26q71 27 129 74q55 45 94 112q37 64 49 142h-467v215h729v-92q0 -150 -51 -280
q-50 -128 -144 -225q-92 -95 -219 -149q-130 -55 -280 -55q-153 0 -289 59t-236 159t-157 235q-58 137 -58 289q0 153 59 289t159 236q101 101 236 160q132 58 288 58q106 0 199 -25q94 -25 176 -74q81 -48 146 -116q63 -66 107 -151zM717 1575v246h237v-246h-237z" />
    <glyph glyph-name="Idieresis.square" horiz-adv-x="581" 
d="M414 1434v-1434h-246v1434h246zM-18 1573v237h221v-237h-221zM377 1573v237h221v-237h-221z" />
    <glyph glyph-name="Idotaccent.square" horiz-adv-x="581" 
d="M414 1434v-1434h-246v1434h246zM172 1575v246h238v-246h-238z" />
    <glyph glyph-name="Kcommaaccent.square" horiz-adv-x="1318" 
d="M414 836l540 598h299l-600 -656l647 -778h-309l-499 612l-78 -86v-526h-246v1434h246v-598zM580 -111h223v-221q0 -88 -46 -134t-139 -48q-12 0 -34 2v106q10 -2 18 -2q33 1 55 19q21 17 21 47v14h-98v217z" />
    <glyph glyph-name="Lcommaaccent.square" horiz-adv-x="960" 
d="M414 1434v-1205h504v-229h-750v1434h246zM428 -111h223v-221q0 -88 -46 -134q-47 -46 -138 -48q-13 0 -35 2v106q10 -2 19 -2q33 1 55 19q20 16 20 47v14h-98v217z" />
    <glyph glyph-name="Ldot.square" horiz-adv-x="960" 
d="M414 1434v-1205h504v-229h-750v1434h246zM643 596v252h238v-252h-238z" />
    <glyph glyph-name="Ncommaaccent.square" horiz-adv-x="1585" 
d="M1417 1434v-1434h-239l-772 1053v-1053h-238v1434h250l762 -1051v1051h237zM672 -111h223v-221q0 -88 -46 -134q-47 -46 -138 -48q-13 0 -35 2v106q10 -2 18 -2q34 1 56 19q20 16 20 47v14h-98v217z" />
    <glyph glyph-name="Odieresis.square" horiz-adv-x="1675" 
d="M94 717q0 155 59 291t158 235q101 101 237 159q135 58 290 58q154 0 289 -58q137 -58 237 -159q101 -101 159 -235t58 -291q0 -155 -58 -289t-159 -235q-100 -101 -237 -159q-138 -59 -289 -59q-152 0 -290 59q-136 58 -237 159q-99 99 -158 235t-59 289zM346 717
q0 -104 38 -197q38 -92 104 -160q63 -64 156 -107q87 -40 194 -40q106 0 193 40q93 43 156 107q66 68 104 160q38 93 38 197q0 103 -38 196q-37 91 -104 161q-64 67 -156 109q-87 40 -193 40q-107 0 -194 -40q-92 -42 -156 -109q-67 -70 -104 -161q-38 -93 -38 -196z
M530 1573v237h222v-237h-222zM926 1573v237h221v-237h-221z" />
    <glyph glyph-name="Rcommaaccent.square" horiz-adv-x="1239" 
d="M412 0h-244v1434h448q107 0 199 -29q91 -29 156 -85t101 -137t36 -186q0 -159 -90 -264q-89 -104 -234 -145l422 -588h-288l-396 567h-110v-567zM412 774h204q108 0 178 59q68 58 68 162q0 105 -68 161t-178 56h-204v-438zM553 -111h223v-221q0 -88 -46 -134t-138 -48
q-13 0 -35 2v106q10 -2 18 -2q34 1 56 19q20 16 20 47v14h-98v217z" />
    <glyph glyph-name="Scommaaccent.square" horiz-adv-x="1138" 
d="M285 436q39 -104 115 -167q75 -62 186 -62q92 0 159 48q68 48 68 140q0 133 -180 199l-170 61q-158 57 -248 154q-88 95 -88 244q0 93 34 168q35 77 94 129q62 54 141 82q80 28 175 28q154 -1 279 -85q122 -82 182 -232l-211 -107q-33 82 -94 139q-60 56 -154 56
q-85 0 -141 -45q-55 -45 -55 -119q0 -66 45 -108q44 -41 133 -76l176 -68q169 -67 251 -163q83 -98 83 -240q0 -103 -39 -184t-104 -137q-64 -56 -154 -86q-88 -30 -186 -30q-180 0 -318 94q-136 93 -196 265zM467 -111h223v-221q0 -88 -46 -134t-138 -48q-13 0 -35 2v106
q10 -2 18 -2q34 1 56 19q20 16 20 47v14h-98v217z" />
    <glyph glyph-name="Tcommaaccent.square" horiz-adv-x="1120" 
d="M39 1434h1042v-228h-397v-1206h-248v1206h-397v228zM451 -111h223v-221q0 -88 -46 -134t-139 -48q-12 0 -34 2v106q10 -2 18 -2q33 1 55 19q21 17 21 47v14h-98v217z" />
    <glyph glyph-name="Udieresis.square" horiz-adv-x="1421" 
d="M711 -25q-134 0 -238 43t-176 121q-73 79 -110 188q-37 108 -37 242v865h245v-854q0 -166 81 -267q81 -100 235 -100q153 0 234 100q81 101 81 267v854h246v-865q0 -131 -38 -242q-37 -109 -110 -188q-72 -78 -176 -121t-237 -43zM401 1573v237h222v-237h-222zM797 1573
v237h221v-237h-221z" />
    <glyph glyph-name="Wdieresis.square" horiz-adv-x="2072" 
d="M510 0l-487 1434h253l330 -1022l342 1022h180l340 -1022l332 1022h250l-489 -1434h-185l-342 1024l-340 -1024h-184zM729 1573v237h221v-237h-221zM1124 1573v237h222v-237h-222z" />
    <glyph glyph-name="Ydieresis.square" horiz-adv-x="1312" 
d="M780 0h-245v631l-519 803h283l360 -576l361 576h276l-516 -803v-631zM350 1573v237h221v-237h-221zM745 1573v237h222v-237h-222z" />
    <glyph glyph-name="Zdotaccent.square" horiz-adv-x="1251" 
d="M401 221h783v-221h-1118v160l774 1052h-725v222h1061v-160zM549 1575v246h237v-246h-237z" />
    <glyph glyph-name="a.alt" horiz-adv-x="1079" 
d="M84 266q0 275 356 326l273 35v43q0 76 -48 120q-49 44 -130 44q-154 0 -199 -152l-217 55q38 136 149 213q112 78 267 78q198 0 303 -98q106 -99 106 -277v-653h-221l-2 123q-52 -73 -133 -110q-84 -38 -180 -38q-69 0 -132 22q-58 20 -102 60q-40 36 -66 93
q-24 52 -24 116zM319 283q0 -54 40 -85q41 -32 104 -32q111 0 181 63q71 63 71 164v58l-228 -31q-85 -11 -126 -47q-42 -37 -42 -90z" />
    <glyph glyph-name="t.alt" horiz-adv-x="663" 
d="M205 0v803h-170v201h170v296h237v-296h195v-201h-195v-803h-237z" />
    <glyph glyph-name="u.alt" horiz-adv-x="1163" 
d="M582 -25q-210 0 -328 120q-119 121 -119 337v572h238v-558q0 -120 55 -185q56 -66 154 -66t153 66q56 67 56 185v558h237v-572q0 -216 -119 -337q-119 -120 -327 -120z" />
    <glyph glyph-name="adieresis.square" horiz-adv-x="1294" 
d="M1145 1004v-1004h-234v145q-54 -76 -145 -123t-195 -47q-103 0 -193 41q-88 40 -155 112q-65 69 -103 167q-38 97 -38 207t38 207q38 98 103 167q66 70 155 111q90 41 193 41q105 0 195 -42q89 -42 145 -120v138h234zM319 502q0 -65 24 -122q24 -56 64 -98q43 -44 95 -67
q58 -25 119 -25q60 0 118 25q54 23 96 67q39 40 63 98q24 57 24 122t-24 122q-24 58 -63 98q-41 42 -96 66q-58 25 -118 25q-61 0 -119 -25q-54 -23 -95 -66q-40 -42 -64 -98q-24 -57 -24 -122zM322 1180v239h221v-239h-221zM717 1180v239h221v-239h-221z" />
    <glyph glyph-name="cdotaccent.square" horiz-adv-x="966" 
d="M82 502q0 113 39 209q40 98 109 167t168 110q96 40 214 40q150 0 269 -72v-235q-119 90 -248 90q-67 0 -124 -24t-98 -65q-43 -43 -66 -98t-23 -122t23 -122q23 -54 65 -98q40 -42 98 -66q55 -23 125 -23q74 0 135 26q68 29 117 64v-236q-127 -72 -275 -72
q-116 0 -214 39t-167 110q-69 70 -108 167q-39 96 -39 211zM481 1169v252h238v-252h-238z" />
    <glyph glyph-name="edieresis.square" horiz-adv-x="1163" 
d="M856 602q-6 47 -29 92q-23 44 -57 74q-34 29 -82 48q-47 18 -100 18q-54 0 -100 -21q-45 -20 -81 -52t-59 -74q-23 -43 -29 -85h537zM285 1180v239h221v-239h-221zM680 1180v239h221v-239h-221zM1057 236q-63 -119 -178 -190t-275 -71q-115 0 -211 39q-94 38 -165 109
q-67 67 -107 166q-39 96 -39 213q0 113 39 209q40 99 107 167q67 69 162 110q92 40 202 40q112 0 202 -40q92 -41 157 -110q67 -71 104 -167q37 -95 37 -209q0 -14 -2 -72h-773q4 -53 29 -101q22 -43 64 -80q37 -33 90 -53q52 -20 106 -20q100 0 156 43q57 43 100 109z" />
    <glyph glyph-name="edotaccent.square" horiz-adv-x="1163" 
d="M856 602q-6 47 -29 92q-23 44 -57 74q-34 29 -82 48q-47 18 -100 18q-54 0 -100 -21q-45 -20 -81 -52t-59 -74q-23 -43 -29 -85h537zM475 1169v252h238v-252h-238zM1057 236q-63 -119 -178 -190t-275 -71q-115 0 -211 39q-94 38 -165 109q-67 67 -107 166q-39 96 -39 213
q0 113 39 209q40 99 107 167q67 69 162 110q92 40 202 40q112 0 202 -40q92 -41 157 -110q67 -71 104 -167q37 -95 37 -209q0 -14 -2 -72h-773q4 -53 29 -101q22 -43 64 -80q37 -33 90 -53q52 -20 106 -20q100 0 156 43q57 43 100 109z" />
    <glyph glyph-name="gcommaaccent.square" horiz-adv-x="1273" 
d="M893 172q-51 -72 -138 -117t-192 -45q-101 0 -190 39q-88 39 -153 107q-63 66 -101 159q-37 90 -37 201q0 110 37 202q39 97 101 163q64 69 153 108t190 39q106 0 192 -43q87 -43 138 -117v136h233v-943q0 -120 -35 -213q-35 -94 -104 -164q-68 -70 -165 -107
q-99 -38 -220 -38q-166 0 -294 70q-124 68 -191 194l188 119q46 -85 124 -131q77 -45 173 -45q135 0 213 83t78 230v113zM903 516q0 63 -22 117q-21 53 -62 95q-38 39 -92 64q-50 23 -115 23q-64 0 -114 -23q-54 -25 -92 -64q-41 -42 -62 -95q-22 -54 -22 -117
q0 -65 22 -118q22 -54 62 -95q38 -39 92 -64q52 -24 114 -24t115 24q54 25 92 64q40 41 62 95q22 53 22 118zM723 1161h-223v225q0 89 46 135q46 47 138 48q13 0 35 -2v-109q-10 2 -19 2q-35 0 -55 -16t-20 -47v-15h98v-221z" />
    <glyph glyph-name="gdotaccent.square" horiz-adv-x="1273" 
d="M893 172q-51 -72 -138 -117t-192 -45q-101 0 -190 39q-88 39 -153 107q-63 66 -101 159q-37 90 -37 201q0 110 37 202q39 97 101 163q64 69 153 108t190 39q106 0 192 -43q87 -43 138 -117v136h233v-943q0 -120 -35 -213q-35 -94 -104 -164q-68 -70 -165 -107
q-99 -38 -220 -38q-166 0 -294 70q-124 68 -191 194l188 119q46 -85 124 -131q77 -45 173 -45q135 0 213 83t78 230v113zM903 516q0 63 -22 117q-21 53 -62 95q-38 39 -92 64q-50 23 -115 23q-64 0 -114 -23q-54 -25 -92 -64q-41 -42 -62 -95q-22 -54 -22 -117
q0 -65 22 -118q22 -54 62 -95q38 -39 92 -64q52 -24 114 -24t115 24q54 25 92 64q40 41 62 95q22 53 22 118zM502 1169v252h237v-252h-237z" />
    <glyph glyph-name="idieresis.square" horiz-adv-x="532" 
d="M385 1004v-1004h-238v1004h238zM-43 1180v239h221v-239h-221zM352 1180v239h221v-239h-221z" />
    <glyph glyph-name="idotaccent" horiz-adv-x="532" 
d="M147 0v1004h238v-1004h-238zM412 1296q0 -58 -42 -102q-42 -43 -106 -43q-59 0 -102 43t-43 102q0 62 43 105t102 43q64 0 106 -44t42 -104z" />
    <glyph glyph-name="idotaccent.square" horiz-adv-x="532" 
d="M147 1169v252h238v-252h-238zM385 1004v-1004h-238v1004h238z" />
    <glyph glyph-name="iogonek.square" horiz-adv-x="532" 
d="M385 1004v-1004q-87 -27 -139 -77q-51 -49 -51 -109q0 -42 22 -63q23 -21 62 -21q22 0 49 6t49 22v-151q-63 -29 -139 -29q-102 0 -161 54t-59 145q0 68 34 123q35 56 95 100v1004h238zM147 1169v252h238v-252h-238z" />
    <glyph glyph-name="kcommaaccent.square" horiz-adv-x="1097" 
d="M1051 1004l-437 -437l469 -567h-290l-359 444l-51 -47v-397h-236v1434h236v-809l377 379h291zM471 -111h223v-221q0 -88 -46 -134t-138 -48q-13 0 -35 2v106q10 -2 19 -2q33 1 55 19q20 16 20 47v14h-98v217z" />
    <glyph glyph-name="lcommaaccent.square" horiz-adv-x="532" 
d="M385 1434v-1434h-238v1434h238zM156 -111h223v-221q0 -88 -46 -134q-47 -46 -138 -48q-13 0 -35 2v106q10 -2 18 -2q33 1 55 19q21 17 21 47v14h-98v217z" />
    <glyph glyph-name="ldot.square" horiz-adv-x="749" 
d="M522 553v252h238v-252h-238zM385 1434v-1434h-238v1434h238z" />
    <glyph glyph-name="ncommaaccent.square" horiz-adv-x="1216" 
d="M385 0h-238v1004h238v-134q45 70 124 115q76 43 183 43q185 0 287 -114t102 -310v-604h-237v559q0 116 -58 183t-165 67t-171 -76q-65 -77 -65 -205v-528zM504 -111h223v-221q0 -88 -46 -134q-47 -46 -138 -48q-13 0 -35 2v106q10 -2 18 -2q34 1 56 19q20 16 20 47v14
h-98v217z" />
    <glyph glyph-name="odieresis.square" horiz-adv-x="1232" 
d="M616 1028q113 0 213 -41q97 -40 170 -111q71 -69 112 -167q40 -95 40 -207t-40 -207q-41 -98 -112 -167q-74 -73 -170 -112q-100 -41 -213 -41t-213 41q-96 39 -170 112q-69 68 -111 167q-40 95 -40 207t40 207q42 99 111 167q73 71 170 111q100 41 213 41zM616 811
q-61 0 -117 -25q-54 -24 -95 -65q-38 -38 -63 -98q-24 -57 -24 -121q0 -65 24 -122q25 -59 63 -97q43 -43 95 -66q54 -24 117 -24q64 0 118 24q50 22 94 66q40 40 64 97q23 55 23 122q0 66 -23 121q-25 59 -64 98q-42 42 -94 65q-56 25 -118 25zM307 1180v239h221v-239h-221
zM702 1180v239h222v-239h-222z" />
    <glyph glyph-name="rcommaaccent.square" horiz-adv-x="774" 
d="M725 776q-18 8 -61 8q-131 0 -206 -93t-75 -249v-442h-236v1004h234v-173q38 89 119 141q82 52 180 52q39 0 45 -6v-242zM158 -111h223v-221q0 -88 -46 -134q-47 -46 -138 -48q-13 0 -35 2v106q10 -2 18 -2q34 1 56 19q20 16 20 47v14h-98v217z" />
    <glyph glyph-name="scommaaccent.square" horiz-adv-x="878" 
d="M250 332q27 -70 80 -112q52 -42 121 -42q54 0 95 26q40 25 40 79q0 40 -28 65q-29 26 -87 43l-121 39q-256 82 -256 291q0 68 28 127q26 54 75 97q48 42 109 62q63 21 134 21q123 0 220 -61q99 -63 145 -166l-191 -103q-28 59 -72 97q-42 36 -102 36q-52 0 -86 -24
q-35 -24 -35 -68q0 -70 113 -108l119 -39q140 -46 203 -120q61 -71 61 -173q0 -77 -30 -137q-31 -61 -80 -102q-50 -41 -118 -63q-69 -22 -141 -22q-140 0 -243 70q-103 69 -146 186zM336 -111h223v-221q0 -88 -46 -134q-47 -46 -138 -48q-13 0 -35 2v106q10 -2 18 -2
q34 1 56 19q20 16 20 47v14h-98v217z" />
    <glyph glyph-name="tcommaaccent.square" horiz-adv-x="753" 
d="M426 1300v-296h266v-201h-266v-451q0 -84 38 -122q37 -37 118 -37q30 0 58 7q31 8 52 23v-211q-25 -15 -74 -26q-47 -11 -106 -11q-152 0 -237 88t-85 246v494h-149v201h149v296h236zM311 -111h224v-221q0 -87 -47 -134q-46 -46 -138 -48q-13 0 -35 2v106q10 -2 19 -2
q33 1 55 19q21 17 21 47v14h-99v217z" />
    <glyph glyph-name="udieresis.square" horiz-adv-x="1208" 
d="M823 1004h238v-1004h-238v133q-45 -70 -124 -115q-76 -43 -181 -43q-179 0 -281 114t-102 310v605h238v-560q0 -118 56 -183q57 -66 161 -66q108 0 170 75q63 77 63 205v529zM289 1180v239h221v-239h-221zM684 1180v239h221v-239h-221z" />
    <glyph glyph-name="wdieresis.square" horiz-adv-x="1654" 
d="M1063 0l-236 678l-237 -678h-191l-364 1004h244l229 -680l235 680h175l235 -680l229 680h238l-365 -1004h-192zM522 1180v239h221v-239h-221zM918 1180v239h221v-239h-221z" />
    <glyph glyph-name="ydieresis.square" horiz-adv-x="1110" 
d="M238 -455q-43 0 -81 10q-39 10 -59 19v203q46 -21 105 -21q63 0 106 34t78 120l43 104l-401 990h252l274 -723l283 723h243l-465 -1125q-73 -178 -162 -256q-88 -78 -216 -78zM248 1180v239h221v-239h-221zM643 1180v239h221v-239h-221z" />
    <glyph glyph-name="ij.square" horiz-adv-x="1071" 
d="M147 1169v252h238v-252h-238zM385 1004v-1004h-238v1004h238zM686 1004h238v-1067q0 -193 -94 -293q-93 -99 -250 -99q-45 0 -79 8q-40 9 -57 17v207q40 -19 95 -19q69 0 108 48t39 139v1059zM686 1169v252h238v-252h-238z" />
    <glyph glyph-name="zdotaccent.square" horiz-adv-x="960" 
d="M899 860l-534 -661h542v-199h-852v147l531 658h-498v199h811v-144zM395 1169v252h238v-252h-238z" />
    <glyph glyph-name="i.square" horiz-adv-x="532" 
d="M147 1169v252h238v-252h-238zM385 1004v-1004h-238v1004h238z" />
    <glyph glyph-name="j.square" horiz-adv-x="538" 
d="M154 1004h237v-1067q0 -194 -93 -293t-251 -99q-45 0 -79 8q-38 9 -56 17v207q40 -19 94 -19q70 0 109 48t39 139v1059zM154 1169v252h237v-252h-237z" />
    <glyph glyph-name="aring.alt" horiz-adv-x="1079" 
d="M84 266q0 275 356 326l273 35v43q0 76 -48 120q-49 44 -130 44q-154 0 -199 -152l-217 55q38 136 149 213q112 78 267 78q198 0 303 -98q106 -99 106 -277v-653h-221l-2 123q-52 -73 -133 -110q-84 -38 -180 -38q-69 0 -132 22q-58 20 -102 60q-40 36 -66 93
q-24 52 -24 116zM319 283q0 -54 40 -85q41 -32 104 -32q111 0 181 63q71 63 71 164v58l-228 -31q-85 -11 -126 -47q-42 -37 -42 -90zM330 1337q0 44 16 80q16 37 45 64q28 27 68 42q39 15 82 15t82 -15q38 -15 67 -42t45 -64q17 -39 17 -80t-17 -80q-15 -35 -45 -63
q-29 -27 -67 -42q-39 -15 -82 -15t-82 15q-40 15 -68 42q-30 28 -45 63q-16 36 -16 80zM463 1337q0 -33 22 -55t56 -22q33 0 55 22t22 55q0 34 -22 56t-55 22q-34 0 -56 -22t-22 -56z" />
    <glyph glyph-name="aacute.alt" horiz-adv-x="1079" 
d="M422 1178l196 292h261l-248 -292h-209zM84 266q0 275 356 326l273 35v43q0 76 -48 120q-49 44 -130 44q-154 0 -199 -152l-217 55q38 136 149 213q112 78 267 78q198 0 303 -98q106 -99 106 -277v-653h-221l-2 123q-52 -73 -133 -110q-84 -38 -180 -38q-69 0 -132 22
q-58 20 -102 60q-40 36 -66 93q-24 52 -24 116zM319 283q0 -54 40 -85q41 -32 104 -32q111 0 181 63q71 63 71 164v58l-228 -31q-85 -11 -126 -47q-42 -37 -42 -90z" />
    <glyph glyph-name="abreve.alt" horiz-adv-x="1079" 
d="M537 1331q53 0 86 35q31 33 36 94h168q0 -129 -82 -207q-81 -77 -208 -77q-130 0 -211 77q-82 78 -82 207h168q5 -61 38 -94q35 -35 87 -35zM84 266q0 275 356 326l273 35v43q0 76 -48 120q-49 44 -130 44q-154 0 -199 -152l-217 55q38 136 149 213q112 78 267 78
q198 0 303 -98q106 -99 106 -277v-653h-221l-2 123q-52 -73 -133 -110q-84 -38 -180 -38q-69 0 -132 22q-58 20 -102 60q-40 36 -66 93q-24 52 -24 116zM319 283q0 -54 40 -85q41 -32 104 -32q111 0 181 63q71 63 71 164v58l-228 -31q-85 -11 -126 -47q-42 -37 -42 -90z" />
    <glyph glyph-name="acircumflex.alt" horiz-adv-x="1079" 
d="M223 1178l228 292h184l225 -292h-217l-104 139l-103 -139h-213zM84 266q0 275 356 326l273 35v43q0 76 -48 120q-49 44 -130 44q-154 0 -199 -152l-217 55q38 136 149 213q112 78 267 78q198 0 303 -98q106 -99 106 -277v-653h-221l-2 123q-52 -73 -133 -110
q-84 -38 -180 -38q-69 0 -132 22q-58 20 -102 60q-40 36 -66 93q-24 52 -24 116zM319 283q0 -54 40 -85q41 -32 104 -32q111 0 181 63q71 63 71 164v58l-228 -31q-85 -11 -126 -47q-42 -37 -42 -90z" />
    <glyph glyph-name="adieresis.alt" horiz-adv-x="1079" 
d="M469 1296q0 -51 -38 -89t-91 -38q-51 0 -88 37t-37 90t37 90t88 37q54 0 92 -38q37 -37 37 -89zM860 1296q0 -52 -37 -89q-38 -38 -90 -38q-53 0 -90 37t-37 90t37 90t90 37q52 0 90 -38q37 -37 37 -89zM84 266q0 275 356 326l273 35v43q0 76 -48 120q-49 44 -130 44
q-154 0 -199 -152l-217 55q38 136 149 213q112 78 267 78q198 0 303 -98q106 -99 106 -277v-653h-221l-2 123q-52 -73 -133 -110q-84 -38 -180 -38q-69 0 -132 22q-58 20 -102 60q-40 36 -66 93q-24 52 -24 116zM319 283q0 -54 40 -85q41 -32 104 -32q111 0 181 63
q71 63 71 164v58l-228 -31q-85 -11 -126 -47q-42 -37 -42 -90z" />
    <glyph glyph-name="adieresisalt.square" horiz-adv-x="1079" 
d="M229 1180v239h222v-239h-222zM625 1180v239h221v-239h-221zM84 266q0 275 356 326l273 35v43q0 76 -48 120q-49 44 -130 44q-154 0 -199 -152l-217 55q38 136 149 213q112 78 267 78q198 0 303 -98q106 -99 106 -277v-653h-221l-2 123q-52 -73 -133 -110
q-84 -38 -180 -38q-69 0 -132 22q-58 20 -102 60q-40 36 -66 93q-24 52 -24 116zM319 283q0 -54 40 -85q41 -32 104 -32q111 0 181 63q71 63 71 164v58l-228 -31q-85 -11 -126 -47q-42 -37 -42 -90z" />
    <glyph glyph-name="agrave.alt" horiz-adv-x="1079" 
d="M467 1178l-248 292h260l195 -292h-207zM84 266q0 275 356 326l273 35v43q0 76 -48 120q-49 44 -130 44q-154 0 -199 -152l-217 55q38 136 149 213q112 78 267 78q198 0 303 -98q106 -99 106 -277v-653h-221l-2 123q-52 -73 -133 -110q-84 -38 -180 -38q-69 0 -132 22
q-58 20 -102 60q-40 36 -66 93q-24 52 -24 116zM319 283q0 -54 40 -85q41 -32 104 -32q111 0 181 63q71 63 71 164v58l-228 -31q-85 -11 -126 -47q-42 -37 -42 -90z" />
    <glyph glyph-name="amacron.alt" horiz-adv-x="1079" 
d="M244 1208v158h590v-158h-590zM84 266q0 275 356 326l273 35v43q0 76 -48 120q-49 44 -130 44q-154 0 -199 -152l-217 55q38 136 149 213q112 78 267 78q198 0 303 -98q106 -99 106 -277v-653h-221l-2 123q-52 -73 -133 -110q-84 -38 -180 -38q-69 0 -132 22
q-58 20 -102 60q-40 36 -66 93q-24 52 -24 116zM319 283q0 -54 40 -85q41 -32 104 -32q111 0 181 63q71 63 71 164v58l-228 -31q-85 -11 -126 -47q-42 -37 -42 -90z" />
    <glyph glyph-name="aogonek.alt" horiz-adv-x="1079" 
d="M84 266q0 275 356 326l273 35v43q0 76 -48 120q-49 44 -130 44q-154 0 -199 -152l-217 55q38 136 149 213q112 78 267 78q198 0 303 -98q106 -99 106 -277v-653q-40 -11 -82 -32q-40 -20 -69 -46q-36 -32 -50 -56q-18 -30 -18 -61q0 -37 23 -55q22 -18 63 -18q55 0 94 26
v-151q-63 -29 -137 -29q-104 0 -164 51q-59 50 -59 138q0 142 178 233l-2 123q-52 -73 -133 -110q-84 -38 -180 -38q-69 0 -132 22q-58 20 -102 60q-40 36 -66 93q-24 52 -24 116zM319 283q0 -54 40 -85q41 -32 104 -32q111 0 181 63q71 63 71 164v58l-228 -31
q-85 -11 -126 -47q-42 -37 -42 -90z" />
    <glyph glyph-name="atilde.alt" horiz-adv-x="1079" 
d="M199 1194q-2 125 57 184q60 60 150 60q48 0 88 -16q35 -14 65 -33q9 -6 27 -17.5t26 -16.5q26 -16 54 -16q36 0 56 25q19 23 19 66h148q1 -127 -59 -186q-59 -58 -148 -58q-53 0 -89 15q-33 14 -65 34q-9 6 -27 17.5t-26 16.5q-24 15 -53 15q-39 0 -57 -24
q-19 -25 -19 -66h-147zM84 266q0 275 356 326l273 35v43q0 76 -48 120q-49 44 -130 44q-154 0 -199 -152l-217 55q38 136 149 213q112 78 267 78q198 0 303 -98q106 -99 106 -277v-653h-221l-2 123q-52 -73 -133 -110q-84 -38 -180 -38q-69 0 -132 22q-58 20 -102 60
q-40 36 -66 93q-24 52 -24 116zM319 283q0 -54 40 -85q41 -32 104 -32q111 0 181 63q71 63 71 164v58l-228 -31q-85 -11 -126 -47q-42 -37 -42 -90z" />
    <glyph glyph-name="tbar.alt" horiz-adv-x="663" 
d="M35 637h170v166h-170v201h170v296h237v-296h195v-201h-195v-166h195v-184h-195v-453h-237v453h-170v184z" />
    <glyph glyph-name="tcaron.alt" horiz-adv-x="663" 
d="M553 1116l61 342h236l-98 -342h-199zM205 0v803h-170v201h170v296h237v-296h195v-201h-195v-803h-237z" />
    <glyph glyph-name="tcommaaccent.alt" horiz-adv-x="663" 
d="M299 -342h-4q-42 1 -74 33q-31 31 -31 76q0 59 40 95q41 36 94 36q60 0 97 -36q38 -36 38 -93q0 -29 -9 -58q-6 -19 -22 -55l-72 -148h-135zM205 0v803h-170v201h170v296h237v-296h195v-201h-195v-803h-237z" />
    <glyph glyph-name="tcommaaccentalt.square" horiz-adv-x="663" 
d="M213 -111h223v-221q0 -98 -51 -139q-52 -42 -133 -43q-19 0 -24 1t-11 1v106q4 0 7 -1t12 -1q33 1 55 19q20 16 20 47v14h-98v217zM205 0v803h-170v201h170v296h237v-296h195v-201h-195v-803h-237z" />
    <glyph glyph-name="uacute.alt" horiz-adv-x="1163" 
d="M451 1178l196 292h260l-248 -292h-208zM582 -25q-210 0 -328 120q-119 121 -119 337v572h238v-558q0 -120 55 -185q56 -66 154 -66t153 66q56 67 56 185v558h237v-572q0 -216 -119 -337q-119 -120 -327 -120z" />
    <glyph glyph-name="ubreve.alt" horiz-adv-x="1163" 
d="M582 1331q53 0 86 35q32 34 37 94h167q0 -130 -81 -207t-209 -77q-130 0 -211 77q-82 78 -82 207h168q5 -61 38 -94q35 -35 87 -35zM582 -25q-210 0 -328 120q-119 121 -119 337v572h238v-558q0 -120 55 -185q56 -66 154 -66t153 66q56 67 56 185v558h237v-572
q0 -216 -119 -337q-119 -120 -327 -120z" />
    <glyph glyph-name="ucircumflex.alt" horiz-adv-x="1163" 
d="M262 1178l227 292h185l225 -292h-217l-104 139l-103 -139h-213zM582 -25q-210 0 -328 120q-119 121 -119 337v572h238v-558q0 -120 55 -185q56 -66 154 -66t153 66q56 67 56 185v558h237v-572q0 -216 -119 -337q-119 -120 -327 -120z" />
    <glyph glyph-name="udieresis.alt" horiz-adv-x="1163" 
d="M512 1296q0 -51 -38 -89t-91 -38q-51 0 -88 37t-37 90t37 90t88 37q54 0 92 -38q37 -37 37 -89zM903 1296q0 -52 -37 -89q-38 -38 -90 -38q-53 0 -90 37t-37 90t37 90t90 37q52 0 90 -38q37 -37 37 -89zM582 -25q-210 0 -328 120q-119 121 -119 337v572h238v-558
q0 -120 55 -185q56 -66 154 -66t153 66q56 67 56 185v558h237v-572q0 -216 -119 -337q-119 -120 -327 -120z" />
    <glyph glyph-name="udieresisalt.square" horiz-adv-x="1163" 
d="M272 1180v239h222v-239h-222zM668 1180v239h221v-239h-221zM582 -25q-210 0 -328 120q-119 121 -119 337v572h238v-558q0 -120 55 -185q56 -66 154 -66t153 66q56 67 56 185v558h237v-572q0 -216 -119 -337q-119 -120 -327 -120z" />
    <glyph glyph-name="ugrave.alt" horiz-adv-x="1163" 
d="M500 1178l-248 292h260l195 -292h-207zM582 -25q-210 0 -328 120q-119 121 -119 337v572h238v-558q0 -120 55 -185q56 -66 154 -66t153 66q56 67 56 185v558h237v-572q0 -216 -119 -337q-119 -120 -327 -120z" />
    <glyph glyph-name="uhungarumlaut.alt" horiz-adv-x="1163" 
d="M289 1171l176 291h229l-219 -291h-186zM641 1171l176 291h227l-217 -291h-186zM582 -25q-210 0 -328 120q-119 121 -119 337v572h238v-558q0 -120 55 -185q56 -66 154 -66t153 66q56 67 56 185v558h237v-572q0 -216 -119 -337q-119 -120 -327 -120z" />
    <glyph glyph-name="umacron.alt" horiz-adv-x="1163" 
d="M582 -25q-210 0 -328 120q-119 121 -119 337v572h238v-558q0 -120 55 -185q56 -66 154 -66t153 66q56 67 56 185v558h237v-572q0 -216 -119 -337q-119 -120 -327 -120zM287 1208v158h590v-158h-590z" />
    <glyph glyph-name="uogonek.alt" horiz-adv-x="1163" 
d="M430 -231q0 123 121 208q-196 10 -306 131t-110 324v572h238v-558q0 -120 55 -185q56 -66 154 -66t153 66q56 67 56 185v558h237v-572q0 -159 -65 -264q-67 -108 -183 -160q-76 -34 -123 -89t-47 -114q0 -37 23 -55t63 -18q56 0 95 26v-151q-63 -29 -136 -29
q-106 0 -165 52q-60 52 -60 139z" />
    <glyph glyph-name="uring.alt" horiz-adv-x="1163" 
d="M371 1337q0 44 16 80q16 37 45 64q28 27 68 42q39 15 82 15t82 -15q38 -15 67 -42t45 -64q17 -39 17 -80t-17 -80q-15 -35 -45 -63q-29 -27 -67 -42q-39 -15 -82 -15t-82 15q-40 15 -68 42q-30 28 -45 63q-16 36 -16 80zM504 1337q0 -33 22 -55t56 -22q33 0 55 22t22 55
q0 34 -22 56t-55 22q-34 0 -56 -22t-22 -56zM582 -25q-210 0 -328 120q-119 121 -119 337v572h238v-558q0 -120 55 -185q56 -66 154 -66t153 66q56 67 56 185v558h237v-572q0 -216 -119 -337q-119 -120 -327 -120z" />
    <glyph glyph-name="utilde.alt" horiz-adv-x="1163" 
d="M244 1194q-2 125 57 184q60 60 150 60q48 0 88 -16q35 -14 65 -33q9 -6 27 -17.5t26 -16.5q26 -16 54 -16q36 0 56 25q19 23 19 66h148q2 -128 -58 -186q-59 -58 -149 -58q-53 0 -89 15q-33 14 -65 34q-9 6 -27 17.5t-26 16.5q-24 15 -53 15q-39 0 -57 -24
q-19 -25 -19 -66h-147zM582 -25q-210 0 -328 120q-119 121 -119 337v572h238v-558q0 -120 55 -185q56 -66 154 -66t153 66q56 67 56 185v558h237v-572q0 -216 -119 -337q-119 -120 -327 -120z" />
    <glyph glyph-name="ordfeminine.alt" horiz-adv-x="847" 
d="M72 817q0 212 280 246l195 24v25q0 53 -37 83q-38 30 -96 30q-110 0 -148 -103l-166 49q28 98 112 156q83 57 202 57q153 0 234 -75q83 -77 83 -209v-488h-178v90q-40 -50 -102 -79q-63 -29 -134 -29q-111 0 -178 61t-67 162zM256 823q0 -36 29 -57t75 -21q80 0 134 48
q53 47 53 120v37l-156 -20q-63 -7 -100 -36q-35 -27 -35 -71z" />
    <glyph glyph-name="a.superior" horiz-adv-x="1007" 
d="M879 1366v-754h-189v107q-39 -57 -106 -91t-148 -34q-78 0 -144 30t-116 83q-48 51 -78 126q-28 71 -28 156q0 86 28 157q29 73 78 125q48 51 116 82q64 29 144 29q83 0 149 -30q64 -29 105 -84v98h189zM477 766q48 0 86 17q44 19 70 47q27 29 46 71q17 38 17 88t-17 88
q-19 42 -46 71q-26 28 -70 47q-38 17 -86 17q-93 0 -156 -64t-63 -159t63 -159t156 -64z" />
    <glyph glyph-name="b.superior" horiz-adv-x="1005" 
d="M315 1686v-420q41 54 107 85q65 31 145 31q83 0 148 -29t116 -83q50 -53 77 -125q28 -75 28 -156q0 -82 -29 -155t-78 -125q-53 -56 -116 -84q-70 -31 -146 -31q-80 0 -145 34q-68 36 -107 89v-105h-188v1074h188zM528 766q94 0 157 64t63 159t-63 159t-157 64
q-49 0 -86 -17q-39 -18 -68 -47t-46 -71t-17 -88t17 -88t46 -71t68 -47q37 -17 86 -17z" />
    <glyph glyph-name="c.superior" horiz-adv-x="745" 
d="M70 989q0 87 29 157q31 74 83 126q53 53 127 83q71 29 162 29q55 0 106 -13t95 -42v-178q-43 31 -90 47q-42 14 -93 14q-97 0 -163 -63t-66 -162q0 -95 65 -158t164 -63q51 0 98 16q49 17 89 45v-178q-95 -55 -207 -55q-89 0 -161 30q-75 31 -126 82q-54 54 -83 124
t-29 159z" />
    <glyph glyph-name="d.superior" horiz-adv-x="1007" 
d="M477 766q48 0 86 17q44 19 70 47q27 29 46 71q17 38 17 88t-17 88q-19 42 -46 71q-26 28 -70 47q-38 17 -86 17q-93 0 -156 -64t-63 -159t63 -159t156 -64zM690 612v107q-38 -56 -105 -91q-65 -34 -147 -34q-75 0 -145 31q-65 29 -117 84q-49 52 -78 125q-28 71 -28 155
q0 85 28 156q29 73 78 125q50 53 117 83q65 29 145 29q81 0 147 -30q65 -29 105 -82v416h191v-1074h-191z" />
    <glyph glyph-name="e.superior" horiz-adv-x="894" 
d="M457 1384q84 0 151 -29q71 -31 120 -83q51 -54 78 -126q28 -75 28 -159q0 -25 -1 -34q0 -4 -0.5 -7.5t-1 -6t-0.5 -3.5h-575q6 -82 68 -133t141 -51q73 0 114 28q42 28 72 78l158 -67q-47 -93 -134 -145q-86 -52 -210 -52q-86 0 -159 29q-74 29 -125 80t-82 125
q-29 70 -29 161q0 87 29 157q31 75 82 126q53 53 123 83q68 29 153 29zM453 1231q-39 0 -71 -14q-33 -14 -60 -37q-26 -21 -43 -53q-17 -30 -21 -60h391q-10 71 -63 118q-52 46 -133 46z" />
    <glyph glyph-name="f.superior" horiz-adv-x="575" 
d="M340 1366h203v-160h-203v-594h-188v594h-113v160h113v47q0 148 79 224q80 77 211 77q78 0 121 -20v-162q-36 16 -88 16q-57 0 -96 -30t-39 -105v-47z" />
    <glyph glyph-name="g.superior" horiz-adv-x="993" 
d="M678 735q-38 -52 -103 -83t-143 -31q-79 0 -144 28q-67 29 -115 80q-49 52 -76 121t-27 149q0 83 27 152t76 121q47 50 115 81q64 29 144 29q79 0 143 -32q66 -33 103 -88v104h188v-709q0 -85 -27 -157q-27 -71 -80 -123q-54 -52 -127 -80q-76 -29 -169 -29
q-129 0 -224 51t-145 148l150 92q34 -59 92 -94t129 -35q99 0 156 62t57 167v76zM684 999q0 93 -61 153t-152 60q-93 0 -153 -60t-60 -153q0 -91 60 -153t153 -62q90 0 152 62q61 61 61 153z" />
    <glyph glyph-name="h.superior" horiz-adv-x="954" 
d="M315 612h-188v1074h188v-422q33 54 94 88q57 32 138 32q138 0 214 -85q77 -86 77 -230v-457h-191v420q0 84 -41 131t-119 47q-79 0 -125 -54q-47 -55 -47 -146v-398z" />
    <glyph glyph-name="i.superior" horiz-adv-x="444" 
d="M127 612v754h190v-754h-190zM336 1585q0 -47 -33 -81t-82 -34t-82 34t-33 81q0 45 33 79t82 34t82 -34t33 -79z" />
    <glyph glyph-name="j.superior" horiz-adv-x="397" 
d="M270 575q0 -152 -71 -226q-72 -75 -193 -75q-31 0 -63 6q-21 4 -43 13v162q20 -10 32 -11q24 -2 35 -2q58 0 85 37q28 39 28 105v782h190v-791zM289 1585q0 -47 -33 -81t-82 -34t-82 34t-33 81q0 45 33 79t82 34t82 -34t33 -79z" />
    <glyph glyph-name="k.superior" horiz-adv-x="860" 
d="M315 1085l277 281h231l-327 -330l352 -424h-234l-266 334l-33 -28v-306h-188v1074h188v-601z" />
    <glyph glyph-name="l.superior" horiz-adv-x="442" 
d="M315 1686v-1074h-188v1074h188z" />
    <glyph glyph-name="m.superior" horiz-adv-x="1402" 
d="M315 612h-188v754h188v-98q30 53 85 85q53 31 132 31q85 0 140 -35q57 -36 90 -102q34 57 95 96q64 41 155 41q133 0 203 -82q71 -83 71 -225v-465h-188v428q0 78 -37 124t-105 46q-69 0 -111 -50q-43 -50 -44 -140v-408h-189v422q0 83 -37 129q-38 47 -104 47
q-72 0 -114 -53t-42 -145v-400z" />
    <glyph glyph-name="o.superior" horiz-adv-x="940" 
d="M471 1384q83 0 156 -30t127 -84q53 -53 85 -126q31 -71 31 -155t-31 -155t-85 -125t-127 -84q-76 -31 -156 -31q-83 0 -157 31q-71 30 -127 84q-54 53 -86 125q-31 71 -31 155t31 155q32 74 86 126q56 54 127 84q72 30 157 30zM471 1210q-47 0 -84 -17q-42 -19 -68 -47
q-28 -30 -45 -71q-16 -39 -16 -86q0 -48 16 -87q15 -38 45 -69q28 -30 68 -48q37 -17 84 -17q45 0 82 17q39 18 69 48t46 69t16 87q0 47 -16 86q-17 42 -46 71q-28 28 -69 47q-37 17 -82 17z" />
    <glyph glyph-name="p.superior" horiz-adv-x="1005" 
d="M127 295v1071h188v-106q40 57 107 90q64 32 145 32q83 0 148 -29t116 -83q50 -53 77 -125q28 -75 28 -156q0 -82 -29 -155t-78 -125q-53 -56 -116 -84q-70 -31 -146 -31q-78 0 -145 32q-66 32 -107 83v-414h-188zM528 766q94 0 157 64t63 159t-63 159t-157 64
q-49 0 -86 -17q-39 -18 -68 -47t-46 -71t-17 -88t17 -88t46 -71t68 -47q37 -17 86 -17z" />
    <glyph glyph-name="q.superior" horiz-adv-x="1007" 
d="M477 766q48 0 86 17q44 19 70 47q27 29 46 71q17 38 17 88t-17 88q-19 42 -46 71q-26 28 -70 47q-38 17 -86 17q-93 0 -156 -64t-63 -159t63 -159t156 -64zM690 295v418q-40 -53 -105 -86q-66 -33 -147 -33q-75 0 -145 31q-65 29 -117 84q-49 52 -78 125q-28 71 -28 155
q0 85 28 156q29 73 78 125q50 53 117 83q65 29 145 29q83 0 147 -32q67 -33 105 -88v104h191v-1071h-191z" />
    <glyph glyph-name="r.superior" horiz-adv-x="608" 
d="M571 1184q-10 3 -17 4q-18 2 -32 2q-115 0 -161 -82t-46 -213v-283h-188v754h186v-127q28 65 89 103t135 38q30 0 34 -4v-192z" />
    <glyph glyph-name="s.superior" horiz-adv-x="688" 
d="M633 836q0 -55 -23 -101t-60 -77q-38 -32 -90 -48q-51 -16 -112 -16q-110 0 -190 53t-109 144l154 67q24 -50 61 -78q39 -30 86 -30q46 0 75 19q30 19 30 58q0 30 -22 47q-20 16 -66 31l-93 29q-104 33 -150 88t-46 133q0 103 75 166t189 63q93 0 169 -44
q75 -44 110 -130l-154 -73q-22 42 -52 68q-33 28 -73 28q-36 0 -61 -19t-25 -47q0 -27 19 -45q20 -18 67 -35l84 -26q207 -66 207 -225z" />
    <glyph glyph-name="t.superior" horiz-adv-x="587" 
d="M336 1587v-221h199v-160h-199v-321q0 -119 115 -119q23 0 45 6q24 6 39 16v-165q-24 -11 -58 -20q-35 -9 -82 -9q-116 0 -182 66t-66 188v358h-112v160h112v221h189z" />
    <glyph glyph-name="u.superior" horiz-adv-x="950" 
d="M633 1366h190v-754h-190v103q-34 -54 -92 -88q-57 -33 -135 -33q-137 0 -213 85t-76 230v457h188v-418q0 -86 41 -133t119 -47q75 0 122 54q46 53 46 147v397z" />
    <glyph glyph-name="v.superior" horiz-adv-x="841" 
d="M25 1366h200l199 -510l197 510h196l-313 -754h-168z" />
    <glyph glyph-name="w.superior" horiz-adv-x="1265" 
d="M807 612l-174 498l-174 -498h-154l-274 754h192l168 -496l174 496h140l174 -496l168 496h188l-274 -754h-154z" />
    <glyph glyph-name="x.superior" horiz-adv-x="835" 
d="M416 862l-180 -250h-211l282 383l-270 371h219l164 -233l168 233h211l-269 -367l281 -387h-219z" />
    <glyph glyph-name="y.superior" horiz-adv-x="858" 
d="M188 274q-32 0 -64 7q-30 7 -46 16v160q39 -17 82 -17q46 0 81 26q34 25 58 85l31 72l-305 743h200l205 -532l207 532h197l-320 -760q-39 -93 -71 -152q-35 -64 -71 -103t-82 -58t-102 -19z" />
    <glyph glyph-name="z.superior" horiz-adv-x="743" 
d="M690 1249l-393 -479h399v-158h-649v119l391 477h-366v158h618v-117z" />
    <glyph glyph-name="aalt.superior" horiz-adv-x="847" 
d="M72 817q0 212 280 246l195 24v25q0 53 -37 83q-38 30 -96 30q-110 0 -148 -103l-166 49q28 98 112 156q83 57 202 57q153 0 234 -75q83 -77 83 -209v-488h-178v90q-40 -50 -102 -79q-63 -29 -134 -29q-111 0 -178 61t-67 162zM256 823q0 -36 29 -57t75 -21q80 0 134 48
q53 47 53 120v37l-156 -20q-63 -7 -100 -36q-35 -27 -35 -71z" />
    <glyph glyph-name="talt.superior" horiz-adv-x="518" 
d="M158 612v594h-127v160h127v221h188v-221h148v-160h-148v-594h-188z" />
    <glyph glyph-name="ualt.superior" horiz-adv-x="915" 
d="M457 594q-160 0 -250 90t-90 250v432h190v-420q0 -84 39 -131t111 -47q70 0 111 47q40 46 40 131v420h191v-432q0 -160 -91 -250q-92 -90 -251 -90z" />
    <glyph glyph-name="isquare.superior" horiz-adv-x="444" 
d="M127 612v754h190v-754h-190zM127 1485v198h190v-198h-190z" />
    <glyph glyph-name="jsquare.superior" horiz-adv-x="397" 
d="M80 1366h190v-791q0 -152 -71 -226q-72 -75 -193 -75q-31 0 -63 6q-21 4 -43 13v162q20 -10 32 -11q24 -2 35 -2q58 0 85 37q28 39 28 105v782zM80 1485v198h190v-198h-190z" />
    <glyph glyph-name="caronSlovak" horiz-adv-x="1024" 
d="M362 1116l62 342h235l-98 -342h-199z" />
    <glyph glyph-name="commaaccent.square" horiz-adv-x="1024" 
d="M399 -111h224v-221q0 -88 -46 -134t-139 -48q-13 0 -35 2v106q10 -2 19 -2q33 1 55 19q21 17 21 47v14h-99v217z" />
    <glyph glyph-name="dieresis.square" horiz-adv-x="1024" 
d="M203 1180v239h221v-239h-221zM598 1180v239h221v-239h-221z" />
    <glyph glyph-name="dotaccent.square" horiz-adv-x="1024" 
d="M393 1169v252h238v-252h-238z" />
    <glyph glyph-name="uni0312.square" horiz-adv-x="1024" 
d="M623 1161h-224v225q0 89 46 135t139 48q12 0 34 -2v-109q-10 2 -18 2q-35 0 -55 -16q-21 -16 -21 -47v-15h99v-221z" />
    <glyph glyph-name="acute.cap" horiz-adv-x="1024" 
d="M326 1546l196 293h260l-247 -293h-209z" />
    <glyph glyph-name="breve.cap" horiz-adv-x="1024" 
d="M512 1704q53 0 86 35q32 34 37 94h168q0 -129 -82 -207q-83 -78 -209 -78q-128 0 -211 78q-82 78 -82 207h168q5 -61 38 -94q35 -35 87 -35z" />
    <glyph glyph-name="caron.cap" horiz-adv-x="1024" 
d="M829 1839l-225 -293h-184l-227 293h217l104 -139l104 139h211z" />
    <glyph glyph-name="circumflex.cap" horiz-adv-x="1024" 
d="M193 1546l227 293h184l225 -293h-217l-104 137l-102 -137h-213z" />
    <glyph glyph-name="dieresis.cap" horiz-adv-x="1024" 
d="M442 1694q0 -52 -38 -90q-37 -37 -91 -37q-51 0 -88 37t-37 90q0 51 37 88t88 37q55 0 93 -38q36 -36 36 -87zM834 1694q0 -53 -37 -90t-90 -37q-54 0 -91 37q-36 36 -36 90q0 52 36 88q37 37 91 37q52 0 90 -38q37 -37 37 -87z" />
    <glyph glyph-name="dieresiscap.square" horiz-adv-x="1024" 
d="M203 1573v237h221v-237h-221zM598 1573v237h221v-237h-221z" />
    <glyph glyph-name="dotaccent.cap" horiz-adv-x="1024" 
d="M651 1704q0 -57 -41 -98t-100 -41q-58 0 -98 40q-41 41 -41 99q0 59 41 100t98 41q60 0 100 -42q41 -43 41 -99z" />
    <glyph glyph-name="dotaccentcap.square" horiz-adv-x="1024" 
d="M393 1575v246h238v-246h-238z" />
    <glyph glyph-name="grave.cap" horiz-adv-x="1024" 
d="M487 1546l-247 293h260l194 -293h-207z" />
    <glyph glyph-name="hungarumlaut.cap" horiz-adv-x="1024" 
d="M164 1546l178 293h229l-219 -293h-188zM518 1546l176 293h230l-219 -293h-187z" />
    <glyph glyph-name="macron.cap" horiz-adv-x="1024" 
d="M217 1581v158h590v-158h-590z" />
    <glyph glyph-name="ring.cap" horiz-adv-x="1024" 
d="M301 1706q0 44 16 80q15 35 45 63q28 27 68 42q42 16 82 16t82 -16q40 -15 68 -42q30 -28 45 -63q16 -36 16 -80t-16 -80q-15 -35 -45 -63q-28 -27 -68 -42q-42 -16 -82 -16t-82 16q-40 15 -68 42q-30 28 -45 63q-16 36 -16 80zM434 1706q0 -32 23 -55t55 -23t55 23
t23 55t-23 55t-55 23t-55 -23t-23 -55z" />
    <glyph glyph-name="tilde.cap" horiz-adv-x="1024" 
d="M164 1567q-2 125 57 184t150 59q51 0 88 -15q30 -12 65 -34q38 -24 54 -34q24 -15 53 -15q36 0 56 25t20 65h147q1 -127 -58 -185t-149 -58q-53 0 -89 15q-30 12 -64 34q-10 7 -28.5 18t-25.5 15q-26 16 -53 16q-38 0 -57 -25t-19 -65h-147z" />
    <glyph glyph-name="period.square" horiz-adv-x="548" 
d="M145 0v268h258v-268h-258z" />
    <glyph glyph-name="comma.square" horiz-adv-x="548" 
d="M145 268h258v-276q0 -130 -61 -191t-160 -61h-22q-4 0 -10 2v125q0 -2 4 -2h16q36 0 63 27t27 75v33h-115v268z" />
    <glyph glyph-name="colon.square" horiz-adv-x="548" 
d="M145 0v268h258v-268h-258zM145 709v268h258v-268h-258z" />
    <glyph glyph-name="semicolon.square" horiz-adv-x="548" 
d="M145 709v268h258v-268h-258zM145 268h258v-276q0 -130 -61 -191t-160 -61h-22q-4 0 -10 2v125q0 -2 4 -2h16q36 0 63 27t27 75v33h-115v268z" />
    <glyph glyph-name="ellipsis.square" horiz-adv-x="1759" 
d="M145 0v268h258v-268h-258zM1354 0v268h260v-268h-260zM750 0v268h258v-268h-258z" />
    <glyph glyph-name="exclamdown.cap" horiz-adv-x="573" 
d="M393 1010l21 -1010h-254l20 1010h213zM135 1309q0 62 43 105q44 44 109 44q64 0 108 -44q43 -43 43 -105q0 -63 -43 -106q-44 -44 -108 -44q-65 0 -109 44q-43 43 -43 106z" />
    <glyph glyph-name="questiondown.cap" horiz-adv-x="1099" 
d="M711 1309q0 -63 -43 -106q-44 -44 -109 -44q-64 0 -108 44q-43 43 -43 106q0 62 43 105q44 44 108 44q65 0 109 -44q43 -43 43 -105zM92 387q0 97 41 181q41 83 133 163q28 25 59 50q26 21 59 54q26 26 45 59q17 30 17 67v49h240v-72q0 -71 -50 -150q-47 -74 -147 -149
q-153 -117 -153 -233q0 -83 61 -141t158 -58q99 0 163 67q64 68 66 168h238q0 -98 -35 -185q-34 -84 -97 -147q-64 -64 -149 -98q-87 -35 -188 -35q-95 0 -183 31q-85 30 -147 86t-96 130q-35 76 -35 163z" />
    <glyph glyph-name="exclam.square" horiz-adv-x="571" 
d="M414 260v-260h-254v260h254zM414 1434l-23 -1008h-209l-22 1008h254z" />
    <glyph glyph-name="exclamdown.square" horiz-adv-x="571" 
d="M160 743v261h254v-261h-254zM160 -426l22 1006h209l23 -1006h-254z" />
    <glyph glyph-name="exclamdowncap.square" horiz-adv-x="571" 
d="M160 1174v260h254v-260h-254zM160 0l22 1010h209l23 -1010h-254z" />
    <glyph glyph-name="question.square" horiz-adv-x="1093" 
d="M674 260v-260h-256v260h256zM1020 1049q0 -99 -42 -182q-42 -82 -134 -162q-50 -42 -61 -51q-34 -27 -59 -54q-26 -28 -45 -59q-17 -28 -17 -68v-47h-232v70q0 72 47 151q46 77 146 150q153 117 153 233q0 88 -62 144q-63 57 -159 57t-161 -68q-64 -67 -66 -170h-238
q0 100 35 187q34 85 96 148q60 62 148 97q87 35 188 35q100 0 185 -30q83 -29 147 -87q62 -56 96 -131q35 -78 35 -163z" />
    <glyph glyph-name="questiondown.square" horiz-adv-x="1079" 
d="M436 743v261h256v-261h-256zM90 -35q0 98 42 181q43 84 134 163q19 16 61 50q30 24 59 55q26 28 45 59q18 30 18 68v39h231v-62q0 -72 -47 -151q-46 -77 -146 -150q-153 -117 -153 -233q0 -88 62 -144q63 -57 159 -57q97 0 161 67t66 170h238q0 -100 -35 -187
q-33 -83 -96 -147q-62 -63 -148 -98q-84 -34 -188 -34q-99 0 -185 30q-85 30 -147 86t-96 131q-35 78 -35 164z" />
    <glyph glyph-name="questiondowncap.square" horiz-adv-x="1093" 
d="M436 1174v260h256v-260h-256zM90 389q0 98 42 181q43 84 134 163q19 16 61 50q30 24 59 55q26 28 45 59q18 30 18 68v45h231v-68q0 -72 -47 -151q-46 -77 -146 -150q-153 -117 -153 -233q0 -88 62 -144q63 -57 159 -57q97 0 161 67q64 68 66 168h238q0 -98 -35 -185
q-33 -83 -96 -147q-62 -63 -148 -98q-87 -35 -188 -35q-97 0 -185 31q-85 30 -147 86t-96 131q-35 78 -35 164z" />
    <glyph glyph-name="reversequoteleft" horiz-adv-x="442" 
d="M213 985l-96 195q-19 41 -30 70t-11 67q0 61 42 102q43 41 103 41t103 -40t43 -103q0 -50 -35 -87q-34 -36 -84 -36h-2l108 -209h-141z" />
    <glyph glyph-name="reversequotedblleft" horiz-adv-x="815" 
d="M586 985l-97 195q-13 29 -29 70q-11 29 -11 67q0 62 41 102q43 41 104 41q59 0 102 -40t43 -103q0 -52 -34 -87q-35 -36 -84 -36h-3l109 -209h-141zM213 985l-96 195q-19 41 -30 70t-11 67q0 61 42 102q43 41 103 41t103 -40t43 -103q0 -50 -35 -87q-34 -36 -84 -36h-2
l108 -209h-141z" />
    <glyph glyph-name="quoteleft.square" horiz-adv-x="444" 
d="M342 961h-244v260q0 109 54 174q53 63 155 63q7 0 31 -2v-117q-16 2 -21 2q-36 0 -60 -28t-24 -70v-31h109v-251z" />
    <glyph glyph-name="quoteright.square" horiz-adv-x="442" 
d="M100 1434h244v-260q0 -111 -53 -175q-52 -63 -156 -63q-7 0 -31 2v117q16 -2 21 -2q36 0 60 28q24 29 24 70v31h-109v252z" />
    <glyph glyph-name="quotedblleft.square" horiz-adv-x="800" 
d="M342 961h-244v260q0 109 54 174q53 63 155 63q7 0 31 -2v-117q-16 2 -21 2q-36 0 -60 -28t-24 -70v-31h109v-251zM698 961h-243v260q0 110 53 174q52 63 156 63q6 0 30 -2v-117q-16 2 -20 2q-37 0 -61 -28q-23 -27 -23 -70v-31h108v-251z" />
    <glyph glyph-name="quotedblright.square" horiz-adv-x="798" 
d="M457 1434h243v-260q0 -111 -53 -175q-53 -63 -155 -63q-7 0 -31 2v117q16 -2 20 -2q37 0 61 28q23 27 23 70v31h-108v252zM100 1434h244v-260q0 -111 -53 -175q-52 -63 -156 -63q-7 0 -31 2v117q16 -2 21 -2q36 0 60 28q24 29 24 70v31h-109v252z" />
    <glyph glyph-name="quotesinglbase.square" horiz-adv-x="442" 
d="M98 252h244v-260q0 -110 -53 -174t-156 -64q-7 0 -31 2v117q16 -2 21 -2q36 0 60 29q24 28 24 69v31h-109v252z" />
    <glyph glyph-name="quotedblbase.square" horiz-adv-x="800" 
d="M457 252h243v-260q0 -110 -53 -174t-155 -64q-7 0 -31 2v117q16 -2 20 -2q37 0 61 29q23 27 23 69v31h-108v252zM98 252h244v-260q0 -110 -53 -174t-156 -64q-7 0 -31 2v117q16 -2 21 -2q36 0 60 29q24 28 24 69v31h-109v252z" />
    <glyph glyph-name="reversequoteleft.square" horiz-adv-x="444" 
d="M342 1182h-109v-31q0 -41 24 -70q24 -28 60 -28q5 0 21 2v-117q-24 -2 -31 -2q-103 0 -155 63q-54 65 -54 175v260h244v-252z" />
    <glyph glyph-name="reversequotedblleft.square" horiz-adv-x="800" 
d="M342 1182h-109v-31q0 -41 24 -70q24 -28 60 -28q5 0 21 2v-117q-24 -2 -31 -2q-103 0 -155 63q-54 65 -54 175v260h244v-252zM698 1182h-108v-31q0 -43 23 -70q24 -28 61 -28q4 0 20 2v-117q-24 -2 -30 -2q-104 0 -156 63q-53 64 -53 175v260h243v-252z" />
    <glyph glyph-name="guilsinglleft.cap" horiz-adv-x="628" 
d="M82 707l272 413h224l-271 -413l273 -414h-228z" />
    <glyph glyph-name="guilsinglright.cap" horiz-adv-x="628" 
d="M547 707l-273 -414h-223l271 414l-273 413h227z" />
    <glyph glyph-name="guillemotleft.cap" horiz-adv-x="1021" 
d="M82 707l272 413h224l-271 -413l273 -414h-228zM475 707l273 413h223l-271 -413l273 -414h-228z" />
    <glyph glyph-name="guillemotright.cap" horiz-adv-x="1021" 
d="M940 707l-272 -414h-224l271 414l-273 413h228zM547 707l-273 -414h-223l271 414l-273 413h227z" />
    <glyph glyph-name="doublebar" horiz-adv-x="956" 
d="M178 -319v1886h223v-1886h-223zM555 -319v1886h223v-1886h-223z" />
    <glyph glyph-name="slash.cap" horiz-adv-x="964" 
d="M37 -49l653 1532h236l-654 -1532h-235z" />
    <glyph glyph-name="backslash.cap" horiz-adv-x="964" 
d="M690 -49l-653 1532h237l654 -1532h-238z" />
    <glyph glyph-name="bar.cap" horiz-adv-x="579" 
d="M178 -49v1532h223v-1532h-223z" />
    <glyph glyph-name="doublebar.cap" horiz-adv-x="956" 
d="M178 -49v1532h223v-1532h-223zM555 -49v1532h223v-1532h-223z" />
    <glyph glyph-name="brokenbar.cap" horiz-adv-x="579" 
d="M178 883v600h223v-600h-223zM401 561v-610h-223v610h223z" />
    <glyph glyph-name="bullet.cap" horiz-adv-x="651" 
d="M549 707q0 -44 -18 -85t-48 -71t-71 -48t-86 -18q-46 0 -86 18q-43 19 -72 48q-30 30 -48 71t-18 85q0 45 18 85t48 70q29 29 72 48q40 18 86 18t86 -18q41 -18 71 -48t48 -70t18 -85z" />
    <glyph glyph-name="periodcentered.square" horiz-adv-x="546" 
d="M143 408v268h258v-268h-258z" />
    <glyph glyph-name="periodcentered.cap" horiz-adv-x="546" 
d="M121 705q0 63 44 107t109 44q66 0 110 -44t44 -107q0 -64 -44 -108t-110 -44q-65 0 -109 44t-44 108z" />
    <glyph glyph-name="periodcenteredcap.square" horiz-adv-x="546" 
d="M143 571v269h258v-269h-258z" />
    <glyph glyph-name="hyphen.cap" horiz-adv-x="868" 
d="M117 813h635v-213h-635v213z" />
    <glyph glyph-name="endash.cap" horiz-adv-x="1157" 
d="M117 809h923v-201h-923v201z" />
    <glyph glyph-name="emdash.cap" horiz-adv-x="1771" 
d="M117 809h1538v-201h-1538v201z" />
    <glyph glyph-name="figuredash.cap" 
d="M117 809h995v-201h-995v201z" />
    <glyph glyph-name="parenleft.cap" horiz-adv-x="688" 
d="M102 711q0 113 21 225q22 120 60 219q40 105 99 205q59 99 134 182h233q-157 -195 -235 -408q-78 -212 -78 -423t78 -424q79 -215 235 -410h-233q-75 80 -134 181q-58 99 -99 207q-38 101 -60 220q-21 113 -21 226z" />
    <glyph glyph-name="parenright.cap" horiz-adv-x="688" 
d="M584 711q0 -113 -21 -226q-22 -117 -59 -220q-40 -112 -98 -207q-60 -99 -136 -181h-233q159 197 236 409q77 213 77 425q0 210 -77 423q-76 210 -236 408h233q77 -84 136 -182q58 -96 98 -206q37 -103 59 -220q21 -112 21 -223z" />
    <glyph glyph-name="bracketleft.cap" horiz-adv-x="698" 
d="M147 1542h504v-190h-280v-1284h280v-191h-504v1665z" />
    <glyph glyph-name="bracketright.cap" horiz-adv-x="698" 
d="M551 -123h-504v191h281v1284h-281v190h504v-1665z" />
    <glyph glyph-name="braceleft.cap" horiz-adv-x="755" 
d="M444 264q-8 -116 44 -162q53 -47 143 -47q30 0 63 4v-176q-60 -6 -98 -6q-187 0 -287 89q-98 88 -86 292l10 172q5 92 -45 136q-51 45 -122 55v178q75 10 123 54q49 44 44 136l-10 172q-12 204 86 292q100 89 287 89q38 0 98 -6v-176q-33 4 -63 4q-90 0 -143 -47
q-52 -46 -44 -162l11 -170q6 -107 -35 -171q-39 -61 -131 -101q91 -40 131 -106q39 -65 35 -171z" />
    <glyph glyph-name="braceright.cap" horiz-adv-x="755" 
d="M313 1155q8 116 -44 162q-53 47 -142 47q-31 0 -66 -4v176q62 6 101 6q187 0 287 -89q98 -88 86 -292l-11 -172q-5 -92 45 -136q49 -43 123 -54v-178q-75 -10 -124 -55q-49 -44 -44 -136l11 -172q12 -204 -86 -292q-100 -89 -287 -89q-40 0 -101 6v176q33 -4 66 -4
q89 0 142 47q52 46 44 162l-10 170q-6 107 35 171q40 63 131 102q-92 41 -131 105q-39 65 -35 171z" />
    <glyph glyph-name="anglebracketleft.cap" horiz-adv-x="704" 
d="M51 707l373 835h229l-366 -831l370 -834h-235z" />
    <glyph glyph-name="anglebracketright.cap" horiz-adv-x="704" 
d="M283 -123h-236l369 832l-369 833h234l372 -833z" />
    </font>
</defs>
</svg>
