<?xml version="1.0" standalone="no"?>
<!DOCTYPE svg PUBLIC "-//W3C//DTD SVG 1.1//EN" "http://www.w3.org/Graphics/SVG/1.1/DTD/svg11.dtd" >
<svg xmlns="http://www.w3.org/2000/svg" xmlns:xlink="http://www.w3.org/1999/xlink" version="1.1">
<metadata>
Created by FontForge 20201107 at Fri Aug 25 18:03:47 2017
 By www-data
Copyright 2017 Adobe Systems Incorporated. All rights reserved.
</metadata>
<defs>
<font id="lalka" horiz-adv-x="902" >
  <font-face 
    font-family="lalka"
    font-weight="400"
    font-stretch="normal"
    units-per-em="1000"
    panose-1="2 0 0 0 0 0 0 0 0 0"
    ascent="750"
    descent="-250"
    x-height="760"
    cap-height="760"
    bbox="-30 -204 1045 1080"
    underline-thickness="72"
    underline-position="-192"
    unicode-range="U+0020-2212"
  />
<missing-glyph horiz-adv-x="600" 
 />
    <glyph glyph-name=".notdef" horiz-adv-x="600" 
 />
    <glyph glyph-name=".null" horiz-adv-x="0" 
 />
    <glyph glyph-name="nonmarkingreturn" horiz-adv-x="333" 
 />
    <glyph glyph-name="space" unicode=" " horiz-adv-x="600" 
 />
    <glyph glyph-name="exclam" unicode="!" horiz-adv-x="325" 
d="M267 0h-200v200h200v-200zM247 280h-160l-40 481h240z" />
    <glyph glyph-name="quotedbl" unicode="&#x22;" horiz-adv-x="535" 
d="M228 520h-158l-18 336h200zM462 520h-158l-18 336h200z" />
    <glyph glyph-name="numbersign" unicode="#" horiz-adv-x="636" 
d="M600 460h-136v-144h136v-72h-136v-136h-72v136h-144v-136h-72v136h-136v72h136v144h-136v72h136v136h72v-136h144v136h72v-136h136v-72zM392 316v144h-144v-144h144z" />
    <glyph glyph-name="quotesingle" unicode="'" horiz-adv-x="279" 
d="M217 520h-158l-18 336h200z" />
    <glyph glyph-name="parenleft" unicode="(" horiz-adv-x="284" 
d="M30 380q0 85 19 165t49.5 139.5t62 102t62.5 69.5l35 -31q-40 -62 -70 -193t-30 -252t30 -252t70 -193l-35 -31q-31 27 -62.5 69.5t-62 102t-49.5 139.5t-19 165z" />
    <glyph glyph-name="parenright" unicode=")" horiz-adv-x="278" 
d="M247 380q0 -85 -19 -165t-49.5 -139.5t-62 -102t-62.5 -69.5l-35 31q40 62 70 193t30 252t-30 252t-70 193l35 31q31 -27 62.5 -69.5t62 -102t49.5 -139.5t19 -165z" />
    <glyph glyph-name="asterisk" unicode="*" horiz-adv-x="510" 
d="M486 547l-140 -35l93 -110l-105 -77l-76 122l-76 -122l-106 77l93 110l-140 35l40 124l134 -54l-11 143h131l-10 -143l133 54zM258 541v0v0z" />
    <glyph glyph-name="plus" unicode="+" horiz-adv-x="674" 
d="M611 416v-72h-244v-244h-72v244h-244v72h244v244h72v-244h244z" />
    <glyph glyph-name="comma" unicode="," horiz-adv-x="356" 
d="M203 -136h-158l58 336h200z" />
    <glyph glyph-name="hyphen" unicode="-" horiz-adv-x="477" 
d="M418 344h-360v72h360v-72z" />
    <glyph glyph-name="period" unicode="." horiz-adv-x="316" 
d="M260 0h-200v200h200v-200z" />
    <glyph glyph-name="slash" unicode="/" horiz-adv-x="399" 
d="M-25 -114l376 1013l68 -25l-377 -1013z" />
    <glyph glyph-name="zero" unicode="0" horiz-adv-x="789" 
d="M400 760q356 0 356 -380q0 -89 -21.5 -157.5t-56 -110t-82.5 -67.5t-95.5 -35.5t-100.5 -9.5t-100.5 9.5t-95.5 35.5t-82.5 67.5t-56 110t-21.5 157.5q0 380 356 380zM400 96q44 0 64 69.5t20 214.5t-20 214.5t-64 69.5t-64 -69.5t-20 -214.5t20 -214.5t64 -69.5z" />
    <glyph glyph-name="one" unicode="1" horiz-adv-x="540" 
d="M24 604l448 156v-760h-264v584l-184 -64v84z" />
    <glyph glyph-name="two" unicode="2" horiz-adv-x="679" 
d="M389 107l254 69v-176h-612q196 268 292 400q49 67 66.5 99t17.5 65q0 84 -64 84t-64 -128h-248q0 114 81 177t231 63q146 0 219 -61.5t73 -170.5q0 -42 -18 -87t-35.5 -72.5t-51.5 -73.5q-7 -10 -11 -15q-14 -20 -60 -80t-70 -93z" />
    <glyph glyph-name="three" unicode="3" horiz-adv-x="691" 
d="M367 495q138 -5 212 -68.5t74 -176.5q0 -114 -82 -182t-230 -68q-296 0 -296 224h244q0 -60 11.5 -89.5t40.5 -29.5q17 0 28.5 12t16 35.5t6 44.5t1.5 53q0 43 -4 65.5t-20 40.5q-34 39 -100 20q-34 -10 -72 -40l-76 87l226 213l-290 -68v192h592z" />
    <glyph glyph-name="four" unicode="4" horiz-adv-x="685" 
d="M354 760h264v-760h-264v264h-331l80 496h211l-51 -424h91v424z" />
    <glyph glyph-name="five" unicode="5" horiz-adv-x="709" 
d="M350 572q150 0 231 -75t81 -211q0 -131 -84 -208.5t-232 -77.5q-150 0 -223 56.5t-73 173.5h244q0 -70 11.5 -100t40.5 -30q34 0 45 44.5t11 145.5q0 91 -10 134.5t-46 43.5q-29 0 -40.5 -30.5t-11.5 -65.5h-244v388h607v-192l-363 85v-89q30 8 56 8z" />
    <glyph glyph-name="six" unicode="6" horiz-adv-x="719" 
d="M359 528q159 0 239.5 -58.5t80.5 -201.5q0 -128 -84.5 -198t-235.5 -70q-159 0 -239.5 84t-80.5 288q0 388 320 388q115 0 195.5 -51t100.5 -157h-232q-2 26 -4 39.5t-8 31t-19 25.5t-33 8q-33 0 -45 -36t-14 -104q27 12 59 12zM359 100q36 0 48 35t12 129t-12 129
t-48 35q-35 0 -47 -34t-12 -126q0 -93 12 -130.5t47 -37.5z" />
    <glyph glyph-name="seven" unicode="7" horiz-adv-x="614" 
d="M600 760l-125 -348h89v-72h-115l-123 -340h-264l123 340h-89v72h115l78 216l-255 -60v192h566z" />
    <glyph glyph-name="eight" unicode="8" horiz-adv-x="707" 
d="M568 388q95 -59 95 -167q0 -120 -81.5 -170.5t-230.5 -50.5q-150 0 -231 50.5t-81 170.5q0 106 92 166q-88 52 -88 155q0 109 82 163.5t226 54.5t224 -52.5t80 -161.5q0 -105 -87 -158zM291 542q0 -54 13.5 -78t46.5 -24q32 0 44 25.5t12 80.5q0 56 -12.5 83t-43.5 27
q-60 0 -60 -114zM351 100q36 0 49.5 31t13.5 90q0 119 -63 119q-36 0 -50 -30.5t-14 -88.5q0 -121 64 -121z" />
    <glyph glyph-name="nine" unicode="9" horiz-adv-x="735" 
d="M370 760q159 0 239.5 -84t80.5 -288q0 -388 -320 -388q-136 0 -219.5 53t-92.5 155h248q2 -26 4 -39.5t8 -31t19 -25.5t33 -8q33 0 45.5 36t14.5 104q-27 -12 -60 -12q-152 0 -236 68t-84 196t84 196t236 68zM370 332q36 0 48 34t12 126q0 93 -12.5 130.5t-47.5 37.5
t-47.5 -35.5t-12.5 -128.5t12.5 -128.5t47.5 -35.5z" />
    <glyph glyph-name="colon" unicode=":" horiz-adv-x="426" 
d="M304 0h-200v200h200v-200zM304 320h-200v200h200v-200z" />
    <glyph glyph-name="semicolon" unicode=";" horiz-adv-x="390" 
d="M319 320h-200v200h200v-200zM219 -136h-158l58 336h200z" />
    <glyph glyph-name="less" unicode="&#x3c;" horiz-adv-x="394" 
d="M228 380l128 -380h-84l-232 380l232 380h84z" />
    <glyph glyph-name="equal" unicode="=" horiz-adv-x="650" 
d="M585 264h-520v72h520v-72zM585 424h-520v72h520v-72z" />
    <glyph glyph-name="greater" unicode="&#x3e;" horiz-adv-x="397" 
d="M161 380l-128 380h84l232 -380l-232 -380h-84z" />
    <glyph glyph-name="question" unicode="?" horiz-adv-x="640" 
d="M381 0v200h-200v-200h200zM381 316v-64h-200v136q65 0 92 5t48 23q28 23 28 108q0 31 -1.5 50.5t-6 40t-15.5 30.5t-29 10q-28 0 -38 -28.5t-10 -90.5h-220q0 113 61.5 168.5t206.5 55.5q152 0 232 -56.5t80 -167.5q0 -220 -228 -220z" />
    <glyph glyph-name="A" unicode="A" horiz-adv-x="843" 
d="M493 0l-53 248h-152l-77 -248h-166l204 655l-200 -59v164h532l244 -760h-332zM311 320h114l-46 218z" />
    <glyph glyph-name="B" unicode="B" horiz-adv-x="771" 
d="M640 391q100 -62 100 -179q0 -96 -79.5 -154t-208.5 -58h-388v760h383q125 0 201 -57.5t76 -157.5q0 -99 -84 -154zM329 664v-228q55 0 95 31.5t40 82.5t-40 82.5t-95 31.5zM329 96q58 0 100.5 34t42.5 88t-42.5 88t-100.5 34v-244z" />
    <glyph glyph-name="C" unicode="C" horiz-adv-x="860" 
d="M565 240h254q-22 -92 -76.5 -147t-123 -74t-162.5 -19q-412 0 -412 380t412 380q124 0 217 -61l-53 125h192v-304h-248q-11 77 -37.5 110.5t-70.5 33.5q-119 0 -119 -284t119 -284q44 0 70.5 33.5t37.5 110.5z" />
    <glyph glyph-name="D" unicode="D" horiz-adv-x="793" 
d="M330 760q68 0 126.5 -9.5t117 -35.5t100 -67.5t67 -110t25.5 -157.5t-25.5 -157.5t-67 -110t-100 -67.5t-117 -35.5t-126.5 -9.5h-264v760h264zM330 98q65 0 114.5 74.5t49.5 207.5t-49.5 207.5t-114.5 74.5v-564z" />
    <glyph glyph-name="E" unicode="E" horiz-adv-x="696" 
d="M647 594l-316 71v-237l233 35v-166l-233 36v-238l316 71v-166h-580v760h580v-166z" />
    <glyph glyph-name="F" unicode="F" horiz-adv-x="695" 
d="M660 594l-317 71v-237l234 35v-166l-234 36v-333h-264v760h581v-166z" />
    <glyph glyph-name="G" unicode="G" horiz-adv-x="867" 
d="M810 420v-320q-70 -39 -165 -69.5t-191 -30.5q-412 0 -412 380t412 380q124 0 217 -61l-53 125h192v-304h-248q-11 77 -37.5 110.5t-70.5 33.5q-119 0 -119 -284q0 -143 25 -203t94 -81q48 -15 108 4v215l-136 -31v136h384z" />
    <glyph glyph-name="H" unicode="H" horiz-adv-x="836" 
d="M511 760h264v-760h-264v320h-180v-320h-264v760h264v-320h180v320z" />
    <glyph glyph-name="I" unicode="I" horiz-adv-x="387" 
d="M62 760h264v-760h-264v760z" />
    <glyph glyph-name="J" unicode="J" horiz-adv-x="617" 
d="M45 760h512v-484q0 -154 -46.5 -215t-165.5 -61q-121 0 -175 18t-133 78l44 56q32 -32 71 -47.5t73 -4.5q41 13 54.5 48t13.5 128v389l-248 -69v164z" />
    <glyph glyph-name="K" unicode="K" horiz-adv-x="805" 
d="M782 760l-282 -380l282 -380h-299l-150 312v-312h-264v760h264v-312l150 312h299z" />
    <glyph glyph-name="L" unicode="L" horiz-adv-x="625" 
d="M332 95l265 85v-180h-529v760h264v-665z" />
    <glyph glyph-name="M" unicode="M" horiz-adv-x="1082" 
d="M665 760h346l34 -760h-262l-50 488l-108 -488h-242l-179 545l-30 -545h-126l42 760h349l113 -515z" />
    <glyph glyph-name="N" unicode="N" horiz-adv-x="801" 
d="M580 760h160v-492v-268h-144l-376 400v-400h-160v760h232l288 -316v316z" />
    <glyph glyph-name="O" unicode="O" 
d="M455 760q412 0 412 -380t-412 -380t-412 380t412 380zM455 96q60 0 94 72.5t34 211.5t-34 211.5t-94 72.5t-94 -72t-34 -212t34 -212t94 -72z" />
    <glyph glyph-name="P" unicode="P" horiz-adv-x="817" 
d="M462 760q150 0 240 -68.5t90 -187.5q0 -111 -90.5 -177.5t-239.5 -66.5h-142v-260h-264v760h406zM321 356q71 0 121.5 45t50.5 109t-50.5 109t-121.5 45v-308z" />
    <glyph glyph-name="Q" unicode="Q" horiz-adv-x="906" 
d="M866 380q0 -236 -156 -325l145 -23l-28 -192l-373 160q-412 0 -412 380t412 380t412 -380zM327 380q0 -140 33.5 -212t93.5 -72q61 0 95 72t34 212t-34 212t-95 72q-60 0 -93.5 -72t-33.5 -212z" />
    <glyph glyph-name="R" unicode="R" horiz-adv-x="840" 
d="M803 516q0 -151 -167 -208l167 -308h-292l-86 284h-94v-284h-264v760h264h135q150 0 243.5 -60.5t93.5 -183.5zM331 380q71 0 121.5 41.5t50.5 100.5t-50.5 100.5t-121.5 41.5v-284z" />
    <glyph glyph-name="S" unicode="S" horiz-adv-x="765" 
d="M58 60v188l208 -132q71 -13 136 -8q84 6 84 64q0 13 -6 23.5t-21.5 20.5t-28 17t-40 15.5t-43 13t-49.5 14.5q-31 9 -42 12t-39.5 12.5t-40 16t-34.5 19t-33 24.5t-25 30.5t-21.5 39t-11.5 47.5t-5 59q0 95 89.5 159.5t250.5 64.5q35 0 68 -2.5t53.5 -4.5t53.5 -8.5
t42 -8.5t47.5 -12.5t43.5 -11.5v-192l-188 128q-60 20 -128 20q-33 0 -57.5 -5.5t-37.5 -14t-20.5 -19t-8.5 -18.5t0 -15q2 -8 7.5 -15t17 -13t22.5 -10t31 -9l36 -9t43.5 -9.5t46.5 -10.5q269 -63 260 -272q-2 -48 -19 -89.5t-53.5 -78.5t-103 -58.5t-156.5 -21.5
q-100 0 -173.5 15t-154.5 45z" />
    <glyph glyph-name="T" unicode="T" horiz-adv-x="872" 
d="M569 760h264v-180l-264 84v-664h-264v664l-264 -84v180h264h32h200h32z" />
    <glyph glyph-name="U" unicode="U" horiz-adv-x="895" 
d="M573 760h264v-380q0 -112 -29.5 -189t-85 -117.5t-120 -57t-149.5 -16.5t-150 16.5t-120 57t-84.5 117.5t-29.5 189v380h264v-380q0 -152 24.5 -218t95.5 -66t95.5 66t24.5 218v380z" />
    <glyph glyph-name="V" unicode="V" horiz-adv-x="820" 
d="M494 760h300l-252 -760h-104h-52h-104l-252 760h300l82 -577z" />
    <glyph glyph-name="W" unicode="W" horiz-adv-x="1058" 
d="M895 760h137l-150 -760h-221l-111 433l-84 -433h-230l-202 760h289l66 -449l90 449h268l62 -439z" />
    <glyph glyph-name="X" unicode="X" horiz-adv-x="715" 
d="M681 760l-203 -336l209 -423h-265l-92 177l-106 -177h-187l211 338l-218 421h282l88 -177l110 177h171z" />
    <glyph glyph-name="Y" unicode="Y" horiz-adv-x="793" 
d="M764 760l-207 -380h95v-72h-116v-308h-264v308h-116v72h96l-212 380h264l100 -276l96 276h264z" />
    <glyph glyph-name="Z" unicode="Z" horiz-adv-x="766" 
d="M392 109l329 57v-166h-672l330 651l-330 -57v166h671z" />
    <glyph glyph-name="bracketleft" unicode="[" horiz-adv-x="368" 
d="M319 788h-128v-816h128v-72h-268v960h268v-72z" />
    <glyph glyph-name="backslash" unicode="\" horiz-adv-x="397" 
d="M414 -114l-68 -25l-376 1013l67 25z" />
    <glyph glyph-name="bracketright" unicode="]" horiz-adv-x="377" 
d="M56 -28h128v816h-128v72h268v-960h-268v72z" />
    <glyph glyph-name="a" unicode="a" horiz-adv-x="843" 
d="M493 0l-53 248h-152l-77 -248h-166l204 655l-200 -59v164h532l244 -760h-332zM311 320h114l-46 218z" />
    <glyph glyph-name="b" unicode="b" horiz-adv-x="771" 
d="M640 391q100 -62 100 -179q0 -96 -79.5 -154t-208.5 -58h-388v760h383q125 0 201 -57.5t76 -157.5q0 -99 -84 -154zM329 664v-228q55 0 95 31.5t40 82.5t-40 82.5t-95 31.5zM329 96q58 0 100.5 34t42.5 88t-42.5 88t-100.5 34v-244z" />
    <glyph glyph-name="c" unicode="c" horiz-adv-x="860" 
d="M565 240h254q-22 -92 -76.5 -147t-123 -74t-162.5 -19q-412 0 -412 380t412 380q124 0 217 -61l-53 125h192v-304h-248q-11 77 -37.5 110.5t-70.5 33.5q-119 0 -119 -284t119 -284q44 0 70.5 33.5t37.5 110.5z" />
    <glyph glyph-name="d" unicode="d" horiz-adv-x="793" 
d="M330 760q68 0 126.5 -9.5t117 -35.5t100 -67.5t67 -110t25.5 -157.5t-25.5 -157.5t-67 -110t-100 -67.5t-117 -35.5t-126.5 -9.5h-264v760h264zM330 98q65 0 114.5 74.5t49.5 207.5t-49.5 207.5t-114.5 74.5v-564z" />
    <glyph glyph-name="e" unicode="e" horiz-adv-x="696" 
d="M647 594l-316 71v-237l233 35v-166l-233 36v-238l316 71v-166h-580v760h580v-166z" />
    <glyph glyph-name="f" unicode="f" horiz-adv-x="695" 
d="M660 594l-317 71v-237l234 35v-166l-234 36v-333h-264v760h581v-166z" />
    <glyph glyph-name="g" unicode="g" horiz-adv-x="867" 
d="M810 420v-320q-70 -39 -165 -69.5t-191 -30.5q-412 0 -412 380t412 380q124 0 217 -61l-53 125h192v-304h-248q-11 77 -37.5 110.5t-70.5 33.5q-119 0 -119 -284q0 -143 25 -203t94 -81q48 -15 108 4v215l-136 -31v136h384z" />
    <glyph glyph-name="h" unicode="h" horiz-adv-x="836" 
d="M511 760h264v-760h-264v320h-180v-320h-264v760h264v-320h180v320z" />
    <glyph glyph-name="i" unicode="i" horiz-adv-x="387" 
d="M62 760h264v-760h-264v760z" />
    <glyph glyph-name="j" unicode="j" horiz-adv-x="617" 
d="M45 760h512v-484q0 -154 -46.5 -215t-165.5 -61q-121 0 -175 18t-133 78l44 56q32 -32 71 -47.5t73 -4.5q41 13 54.5 48t13.5 128v389l-248 -69v164z" />
    <glyph glyph-name="k" unicode="k" horiz-adv-x="805" 
d="M782 760l-282 -380l282 -380h-299l-150 312v-312h-264v760h264v-312l150 312h299z" />
    <glyph glyph-name="l" unicode="l" horiz-adv-x="625" 
d="M332 95l265 85v-180h-529v760h264v-665z" />
    <glyph glyph-name="m" unicode="m" horiz-adv-x="1082" 
d="M665 760h346l34 -760h-262l-50 488l-108 -488h-242l-179 545l-30 -545h-126l42 760h349l113 -515z" />
    <glyph glyph-name="n" unicode="n" horiz-adv-x="801" 
d="M580 760h160v-492v-268h-144l-376 400v-400h-160v760h232l288 -316v316z" />
    <glyph glyph-name="o" unicode="o" 
d="M455 760q412 0 412 -380t-412 -380t-412 380t412 380zM455 96q60 0 94 72.5t34 211.5t-34 211.5t-94 72.5t-94 -72t-34 -212t34 -212t94 -72z" />
    <glyph glyph-name="p" unicode="p" horiz-adv-x="817" 
d="M462 760q150 0 240 -68.5t90 -187.5q0 -111 -90.5 -177.5t-239.5 -66.5h-142v-260h-264v760h406zM321 356q71 0 121.5 45t50.5 109t-50.5 109t-121.5 45v-308z" />
    <glyph glyph-name="q" unicode="q" horiz-adv-x="906" 
d="M866 380q0 -236 -156 -325l145 -23l-28 -192l-373 160q-412 0 -412 380t412 380t412 -380zM327 380q0 -140 33.5 -212t93.5 -72q61 0 95 72t34 212t-34 212t-95 72q-60 0 -93.5 -72t-33.5 -212z" />
    <glyph glyph-name="r" unicode="r" horiz-adv-x="840" 
d="M803 516q0 -151 -167 -208l167 -308h-292l-86 284h-94v-284h-264v760h264h135q150 0 243.5 -60.5t93.5 -183.5zM331 380q71 0 121.5 41.5t50.5 100.5t-50.5 100.5t-121.5 41.5v-284z" />
    <glyph glyph-name="s" unicode="s" horiz-adv-x="765" 
d="M58 60v188l208 -132q71 -13 136 -8q84 6 84 64q0 13 -6 23.5t-21.5 20.5t-28 17t-40 15.5t-43 13t-49.5 14.5q-31 9 -42 12t-39.5 12.5t-40 16t-34.5 19t-33 24.5t-25 30.5t-21.5 39t-11.5 47.5t-5 59q0 95 89.5 159.5t250.5 64.5q35 0 68 -2.5t53.5 -4.5t53.5 -8.5
t42 -8.5t47.5 -12.5t43.5 -11.5v-192l-188 128q-60 20 -128 20q-33 0 -57.5 -5.5t-37.5 -14t-20.5 -19t-8.5 -18.5t0 -15q2 -8 7.5 -15t17 -13t22.5 -10t31 -9l36 -9t43.5 -9.5t46.5 -10.5q269 -63 260 -272q-2 -48 -19 -89.5t-53.5 -78.5t-103 -58.5t-156.5 -21.5
q-100 0 -173.5 15t-154.5 45z" />
    <glyph glyph-name="t" unicode="t" horiz-adv-x="872" 
d="M569 760h264v-180l-264 84v-664h-264v664l-264 -84v180h264h32h200h32z" />
    <glyph glyph-name="u" unicode="u" horiz-adv-x="895" 
d="M573 760h264v-380q0 -112 -29.5 -189t-85 -117.5t-120 -57t-149.5 -16.5t-150 16.5t-120 57t-84.5 117.5t-29.5 189v380h264v-380q0 -152 24.5 -218t95.5 -66t95.5 66t24.5 218v380z" />
    <glyph glyph-name="v" unicode="v" horiz-adv-x="820" 
d="M494 760h300l-252 -760h-104h-52h-104l-252 760h300l82 -577z" />
    <glyph glyph-name="w" unicode="w" horiz-adv-x="1058" 
d="M895 760h137l-150 -760h-221l-111 433l-84 -433h-230l-202 760h289l66 -449l90 449h268l62 -439z" />
    <glyph glyph-name="x" unicode="x" horiz-adv-x="715" 
d="M681 760l-203 -336l209 -423h-265l-92 177l-106 -177h-187l211 338l-218 421h282l88 -177l110 177h171z" />
    <glyph glyph-name="y" unicode="y" horiz-adv-x="793" 
d="M764 760l-207 -380h95v-72h-116v-308h-264v308h-116v72h96l-212 380h264l100 -276l96 276h264z" />
    <glyph glyph-name="z" unicode="z" horiz-adv-x="766" 
d="M392 109l329 57v-166h-672l330 651l-330 -57v166h671z" />
    <glyph glyph-name="bar" unicode="|" horiz-adv-x="283" 
d="M102 -160v1080h72v-1080h-72z" />
    <glyph glyph-name="asciitilde" unicode="~" horiz-adv-x="565" 
d="M41 348q53 117 148 112q34 -2 102.5 -16t85.5 -16q58 -7 104 28l56 -68q-12 -24 -21 -38t-26.5 -32.5t-42 -27.5t-56.5 -9q-35 1 -118.5 18t-88.5 18q-41 6 -82 -37z" />
    <glyph glyph-name="guillemotleft" unicode="&#xab;" horiz-adv-x="518" 
d="M206 384l76 -240h-120l-132 240l132 236h120zM418 384l76 -240h-120l-132 240l132 236h120z" />
    <glyph glyph-name="guillemotright" unicode="&#xbb;" horiz-adv-x="536" 
d="M327 380l-76 240h120l132 -240l-132 -236h-120zM115 380l-76 240h120l132 -240l-132 -236h-120z" />
    <glyph glyph-name="Agrave" unicode="&#xc0;" horiz-adv-x="843" 
d="M493 0l-52 248h-152l-78 -248h-166l205 655l-201 -59v164h532l244 -760h-332zM311 320h114l-46 218zM310 856l-105 224h226l56 -224h-177z" />
    <glyph glyph-name="Aacute" unicode="&#xc1;" horiz-adv-x="842" 
d="M493 0l-53 248h-152l-77 -248h-166l204 655l-201 -59v164h532l244 -760h-331zM310 320h115l-46 218zM504 856h-177l56 224h226z" />
    <glyph glyph-name="Acircumflex" unicode="&#xc2;" horiz-adv-x="842" 
d="M493 0l-53 248h-152l-77 -248h-166l204 655l-201 -59v164h532l244 -760h-331zM310 320h115l-46 218zM384 1080l236 -132v-120l-236 76l-240 -76v120z" />
    <glyph glyph-name="Atilde" unicode="&#xc3;" horiz-adv-x="842" 
d="M493 0l-53 248h-152l-77 -248h-166l204 655l-201 -59v164h532l244 -760h-331zM310 320h115l-46 218zM152 924q53 117 148 112q34 -2 102.5 -16t85.5 -16q60 -9 104 28l56 -68q-12 -24 -21 -38t-26 -32.5t-41.5 -27.5t-56.5 -9q-35 1 -118.5 18t-88.5 18q-42 6 -82 -37z
" />
    <glyph glyph-name="Adieresis" unicode="&#xc4;" horiz-adv-x="842" 
d="M493 0l-53 248h-152l-77 -248h-166l204 655l-201 -59v164h532l244 -760h-331zM310 320h115l-46 218zM328 856h-160v160h160v-160zM628 856h-160v160h160v-160z" />
    <glyph glyph-name="Aring" unicode="&#xc5;" horiz-adv-x="843" 
d="M581 760l244 -760h-332l-52 248h-152l-78 -248h-166l205 655l-201 -59v164h204q-72 51 -72 138q0 92 64.5 137t167.5 45q105 0 168.5 -44t63.5 -138q0 -91 -66 -138h2zM414 1004q-68 0 -68 -105q0 -47 17 -76t51 -29t50.5 29t16.5 76q0 105 -67 105zM311 320h114l-46 218
z" />
    <glyph glyph-name="Egrave" unicode="&#xc8;" horiz-adv-x="696" 
d="M647 594l-316 71v-238l233 36v-166l-233 35v-237l316 71v-166h-580v760h580v-166zM279 856l-105 224h225l56 -224h-176z" />
    <glyph glyph-name="Eacute" unicode="&#xc9;" horiz-adv-x="696" 
d="M647 594l-316 71v-238l233 36v-166l-233 35v-237l316 71v-166h-580v760h580v-166zM440 856h-177l56 224h226z" />
    <glyph glyph-name="Ecircumflex" unicode="&#xca;" horiz-adv-x="696" 
d="M647 594l-316 71v-238l233 36v-166l-233 35v-237l316 71v-166h-580v760h580v-166zM359 904l-240 -76v120l240 132l236 -132v-120z" />
    <glyph glyph-name="Edieresis" unicode="&#xcb;" horiz-adv-x="696" 
d="M647 594l-316 71v-238l233 36v-166l-233 35v-237l316 71v-166h-580v760h580v-166zM287 856h-160v160h160v-160zM587 856h-160v160h160v-160z" />
    <glyph glyph-name="Igrave" unicode="&#xcc;" horiz-adv-x="447" 
d="M122 764v-760h264v760h-264zM167 856l-105 224h226l56 -224h-177z" />
    <glyph glyph-name="Iacute" unicode="&#xcd;" horiz-adv-x="443" 
d="M62 764h264v-760h-264v760zM278 856h-177l56 224h225z" />
    <glyph glyph-name="Icircumflex" unicode="&#xce;" horiz-adv-x="599" 
d="M162 764v-760h264v760h-264zM302 904l-240 -76v120l240 132l236 -132v-120z" />
    <glyph glyph-name="Idieresis" unicode="&#xcf;" horiz-adv-x="583" 
d="M154 764h264v-760h-264v760zM222 856h-160v160h160v-160zM522 856h-160v160h160v-160z" />
    <glyph glyph-name="Ntilde" unicode="&#xd1;" horiz-adv-x="801" 
d="M580 760h160v-760h-144l-376 400v-400h-160v760h232l288 -316v316zM148 924q53 117 148 112q34 -2 102.5 -16t85.5 -16q60 -7 104 28l56 -68q-12 -24 -21 -38t-26 -32.5t-41.5 -27.5t-56.5 -9q-35 1 -118.5 18t-88.5 18q-42 6 -82 -37z" />
    <glyph glyph-name="Ograve" unicode="&#xd2;" 
d="M455 760q412 0 412 -380t-412 -380t-412 380t412 380zM455 96q60 0 94 72t34 212t-34 212t-94 72t-94 -72.5t-34 -211.5t34 -211.5t94 -72.5zM383 856l-105 224h226l56 -224h-177z" />
    <glyph glyph-name="Oacute" unicode="&#xd3;" 
d="M455 760q412 0 412 -380t-412 -380t-412 380t412 380zM455 96q60 0 94 72t34 212t-34 212t-94 72t-94 -72.5t-34 -211.5t34 -211.5t94 -72.5zM539 856h-177l56 224h225z" />
    <glyph glyph-name="Ocircumflex" unicode="&#xd4;" 
d="M455 760q412 0 412 -380t-412 -380t-412 380t412 380zM455 96q60 0 94 72t34 212t-34 212t-94 72t-94 -72.5t-34 -211.5t34 -211.5t94 -72.5zM457 904l-240 -76v120l240 132l236 -132v-120z" />
    <glyph glyph-name="Otilde" unicode="&#xd5;" 
d="M455 760q412 0 412 -380t-412 -380t-412 380t412 380zM455 96q60 0 94 72t34 212t-34 212t-94 72t-94 -72.5t-34 -211.5t34 -211.5t94 -72.5zM199 924q53 117 148 112q34 -2 102.5 -16t85.5 -16q59 -8 104 28l56 -68q-12 -24 -21 -38t-26 -32.5t-41.5 -27.5t-56.5 -9
q-35 1 -118.5 18t-88.5 18q-42 6 -82 -37z" />
    <glyph glyph-name="Odieresis" unicode="&#xd6;" 
d="M455 760q412 0 412 -380t-412 -380t-412 380t412 380zM455 96q60 0 94 72t34 212t-34 212t-94 72t-94 -72.5t-34 -211.5t34 -211.5t94 -72.5zM385 856h-160v160h160v-160zM685 856h-160v160h160v-160z" />
    <glyph glyph-name="multiply" unicode="&#xd7;" horiz-adv-x="582" 
d="M466 603l51 -50l-172 -173l172 -173l-51 -50l-172 172l-173 -172l-51 50l173 173l-173 173l51 50l173 -172z" />
    <glyph glyph-name="Ugrave" unicode="&#xd9;" horiz-adv-x="895" 
d="M573 760h264v-380q0 -112 -29.5 -189t-84.5 -117.5t-120 -57t-150 -16.5t-149.5 16.5t-120 57t-85 117.5t-29.5 189v380h264v-380q0 -152 24.5 -218t95.5 -66t95.5 66t24.5 218v380zM370 856l-105 224h226l56 -224h-177z" />
    <glyph glyph-name="Uacute" unicode="&#xda;" horiz-adv-x="895" 
d="M573 760h264v-380q0 -112 -29.5 -189t-84.5 -117.5t-120 -57t-150 -16.5t-149.5 16.5t-120 57t-85 117.5t-29.5 189v380h264v-380q0 -152 24.5 -218t95.5 -66t95.5 66t24.5 218v380zM529 856h-177l56 224h225z" />
    <glyph glyph-name="Ucircumflex" unicode="&#xdb;" horiz-adv-x="895" 
d="M573 760h264v-380q0 -112 -29.5 -189t-85 -117.5t-120 -57t-149.5 -16.5t-150 16.5t-120 57t-84.5 117.5t-29.5 189v380h264v-380q0 -152 24.5 -218t95.5 -66t95.5 66t24.5 218v380zM455 904l-240 -76v120l240 132l236 -132v-120z" />
    <glyph glyph-name="Udieresis" unicode="&#xdc;" horiz-adv-x="895" 
d="M573 760h264v-380q0 -112 -29.5 -189t-84.5 -117.5t-120 -57t-150 -16.5t-149.5 16.5t-120 57t-85 117.5t-29.5 189v380h264v-380q0 -152 24.5 -218t95.5 -66t95.5 66t24.5 218v380zM385 856h-160v160h160v-160zM685 856h-160v160h160v-160z" />
    <glyph glyph-name="Yacute" unicode="&#xdd;" horiz-adv-x="793" 
d="M764 760l-208 -380h96v-72h-116v-308h-264v308h-116v72h95l-211 380h264l99 -276l97 276h264zM469 856h-177l56 224h225z" />
    <glyph glyph-name="agrave" unicode="&#xe0;" horiz-adv-x="843" 
d="M493 0l-52 248h-152l-78 -248h-166l205 655l-201 -59v164h532l244 -760h-332zM311 320h114l-46 218zM310 856l-105 224h226l56 -224h-177z" />
    <glyph glyph-name="aacute" unicode="&#xe1;" horiz-adv-x="842" 
d="M493 0l-53 248h-152l-77 -248h-166l204 655l-201 -59v164h532l244 -760h-331zM310 320h115l-46 218zM504 856h-177l56 224h226z" />
    <glyph glyph-name="acircumflex" unicode="&#xe2;" horiz-adv-x="842" 
d="M493 0l-53 248h-152l-77 -248h-166l204 655l-201 -59v164h532l244 -760h-331zM310 320h115l-46 218zM384 1080l236 -132v-120l-236 76l-240 -76v120z" />
    <glyph glyph-name="atilde" unicode="&#xe3;" horiz-adv-x="842" 
d="M493 0l-53 248h-152l-77 -248h-166l204 655l-201 -59v164h532l244 -760h-331zM310 320h115l-46 218zM152 924q53 117 148 112q34 -2 102.5 -16t85.5 -16q60 -9 104 28l56 -68q-12 -24 -21 -38t-26 -32.5t-41.5 -27.5t-56.5 -9q-35 1 -118.5 18t-88.5 18q-42 6 -82 -37z
" />
    <glyph glyph-name="adieresis" unicode="&#xe4;" horiz-adv-x="842" 
d="M493 0l-53 248h-152l-77 -248h-166l204 655l-201 -59v164h532l244 -760h-331zM310 320h115l-46 218zM328 856h-160v160h160v-160zM628 856h-160v160h160v-160z" />
    <glyph glyph-name="aring" unicode="&#xe5;" horiz-adv-x="843" 
d="M581 760l244 -760h-332l-52 248h-152l-78 -248h-166l205 655l-201 -59v164h204q-72 51 -72 138q0 92 64.5 137t167.5 45q105 0 168.5 -44t63.5 -138q0 -91 -66 -138h2zM414 1004q-68 0 -68 -105q0 -47 17 -76t51 -29t50.5 29t16.5 76q0 105 -67 105zM311 320h114l-46 218
z" />
    <glyph glyph-name="egrave" unicode="&#xe8;" horiz-adv-x="696" 
d="M647 594l-316 71v-238l233 36v-166l-233 35v-237l316 71v-166h-580v760h580v-166zM279 856l-105 224h225l56 -224h-176z" />
    <glyph glyph-name="eacute" unicode="&#xe9;" horiz-adv-x="696" 
d="M647 594l-316 71v-238l233 36v-166l-233 35v-237l316 71v-166h-580v760h580v-166zM440 856h-177l56 224h226z" />
    <glyph glyph-name="ecircumflex" unicode="&#xea;" horiz-adv-x="696" 
d="M647 594l-316 71v-238l233 36v-166l-233 35v-237l316 71v-166h-580v760h580v-166zM359 904l-240 -76v120l240 132l236 -132v-120z" />
    <glyph glyph-name="edieresis" unicode="&#xeb;" horiz-adv-x="696" 
d="M647 594l-316 71v-238l233 36v-166l-233 35v-237l316 71v-166h-580v760h580v-166zM287 856h-160v160h160v-160zM587 856h-160v160h160v-160z" />
    <glyph glyph-name="igrave" unicode="&#xec;" horiz-adv-x="447" 
d="M122 764v-760h264v760h-264zM167 856l-105 224h226l56 -224h-177z" />
    <glyph glyph-name="iacute" unicode="&#xed;" horiz-adv-x="443" 
d="M62 764h264v-760h-264v760zM278 856h-177l56 224h225z" />
    <glyph glyph-name="icircumflex" unicode="&#xee;" horiz-adv-x="599" 
d="M162 764v-760h264v760h-264zM302 904l-240 -76v120l240 132l236 -132v-120z" />
    <glyph glyph-name="idieresis" unicode="&#xef;" horiz-adv-x="583" 
d="M154 764h264v-760h-264v760zM222 856h-160v160h160v-160zM522 856h-160v160h160v-160z" />
    <glyph glyph-name="ntilde" unicode="&#xf1;" horiz-adv-x="801" 
d="M580 760h160v-760h-144l-376 400v-400h-160v760h232l288 -316v316zM148 924q53 117 148 112q34 -2 102.5 -16t85.5 -16q60 -7 104 28l56 -68q-12 -24 -21 -38t-26 -32.5t-41.5 -27.5t-56.5 -9q-35 1 -118.5 18t-88.5 18q-42 6 -82 -37z" />
    <glyph glyph-name="ograve" unicode="&#xf2;" 
d="M455 760q412 0 412 -380t-412 -380t-412 380t412 380zM455 96q60 0 94 72t34 212t-34 212t-94 72t-94 -72.5t-34 -211.5t34 -211.5t94 -72.5zM383 856l-105 224h226l56 -224h-177z" />
    <glyph glyph-name="oacute" unicode="&#xf3;" 
d="M455 760q412 0 412 -380t-412 -380t-412 380t412 380zM455 96q60 0 94 72t34 212t-34 212t-94 72t-94 -72.5t-34 -211.5t34 -211.5t94 -72.5zM539 856h-177l56 224h225z" />
    <glyph glyph-name="ocircumflex" unicode="&#xf4;" 
d="M455 760q412 0 412 -380t-412 -380t-412 380t412 380zM455 96q60 0 94 72t34 212t-34 212t-94 72t-94 -72.5t-34 -211.5t34 -211.5t94 -72.5zM457 904l-240 -76v120l240 132l236 -132v-120z" />
    <glyph glyph-name="otilde" unicode="&#xf5;" 
d="M455 760q412 0 412 -380t-412 -380t-412 380t412 380zM455 96q60 0 94 72t34 212t-34 212t-94 72t-94 -72.5t-34 -211.5t34 -211.5t94 -72.5zM199 924q53 117 148 112q34 -2 102.5 -16t85.5 -16q59 -8 104 28l56 -68q-12 -24 -21 -38t-26 -32.5t-41.5 -27.5t-56.5 -9
q-35 1 -118.5 18t-88.5 18q-42 6 -82 -37z" />
    <glyph glyph-name="odieresis" unicode="&#xf6;" 
d="M455 760q412 0 412 -380t-412 -380t-412 380t412 380zM455 96q60 0 94 72t34 212t-34 212t-94 72t-94 -72.5t-34 -211.5t34 -211.5t94 -72.5zM385 856h-160v160h160v-160zM685 856h-160v160h160v-160z" />
    <glyph glyph-name="ugrave" unicode="&#xf9;" horiz-adv-x="895" 
d="M573 760h264v-380q0 -112 -29.5 -189t-84.5 -117.5t-120 -57t-150 -16.5t-149.5 16.5t-120 57t-85 117.5t-29.5 189v380h264v-380q0 -152 24.5 -218t95.5 -66t95.5 66t24.5 218v380zM370 856l-105 224h226l56 -224h-177z" />
    <glyph glyph-name="uacute" unicode="&#xfa;" horiz-adv-x="895" 
d="M573 760h264v-380q0 -112 -29.5 -189t-84.5 -117.5t-120 -57t-150 -16.5t-149.5 16.5t-120 57t-85 117.5t-29.5 189v380h264v-380q0 -152 24.5 -218t95.5 -66t95.5 66t24.5 218v380zM529 856h-177l56 224h225z" />
    <glyph glyph-name="ucircumflex" unicode="&#xfb;" horiz-adv-x="895" 
d="M573 760h264v-380q0 -112 -29.5 -189t-85 -117.5t-120 -57t-149.5 -16.5t-150 16.5t-120 57t-84.5 117.5t-29.5 189v380h264v-380q0 -152 24.5 -218t95.5 -66t95.5 66t24.5 218v380zM455 904l-240 -76v120l240 132l236 -132v-120z" />
    <glyph glyph-name="udieresis" unicode="&#xfc;" horiz-adv-x="895" 
d="M573 760h264v-380q0 -112 -29.5 -189t-84.5 -117.5t-120 -57t-150 -16.5t-149.5 16.5t-120 57t-85 117.5t-29.5 189v380h264v-380q0 -152 24.5 -218t95.5 -66t95.5 66t24.5 218v380zM385 856h-160v160h160v-160zM685 856h-160v160h160v-160z" />
    <glyph glyph-name="yacute" unicode="&#xfd;" horiz-adv-x="793" 
d="M764 760l-208 -380h96v-72h-116v-308h-264v308h-116v72h95l-211 380h264l99 -276l97 276h264zM469 856h-177l56 224h225z" />
    <glyph glyph-name="ydieresis" unicode="&#xff;" horiz-adv-x="793" 
d="M764 760l-208 -380h96v-72h-116v-308h-264v308h-116v72h95l-211 380h264l99 -276l97 276h264zM328 856h-160v160h160v-160zM628 856h-160v160h160v-160z" />
    <glyph glyph-name="Aogonek" unicode="&#x104;" horiz-adv-x="864" 
d="M824 1l98 -22l-21 -183l-240 124l9 80h-177l-53 248h-152l-77 -248h-166l204 655l-201 -59v164h532zM310 320h115l-47 218z" />
    <glyph glyph-name="aogonek" unicode="&#x105;" horiz-adv-x="864" 
d="M824 1l98 -22l-21 -183l-240 124l9 80h-177l-53 248h-152l-77 -248h-166l204 655l-201 -59v164h532zM310 320h115l-47 218z" />
    <glyph glyph-name="Cacute" unicode="&#x106;" horiz-adv-x="859" 
d="M565 240h253q-21 -92 -75.5 -147t-123 -74t-162.5 -19q-412 0 -412 380t412 380q124 0 217 -61l-53 125h192v-304h-248q-11 77 -37.5 110.5t-70.5 33.5q-119 0 -119 -284t119 -284q44 0 70.5 33.5t37.5 110.5zM522 856h-176l56 224h225z" />
    <glyph glyph-name="cacute" unicode="&#x107;" horiz-adv-x="859" 
d="M565 240h253q-21 -92 -75.5 -147t-123 -74t-162.5 -19q-412 0 -412 380t412 380q124 0 217 -61l-53 125h192v-304h-248q-11 77 -37.5 110.5t-70.5 33.5q-119 0 -119 -284t119 -284q44 0 70.5 33.5t37.5 110.5zM522 856h-176l56 224h225z" />
    <glyph glyph-name="Ccaron" unicode="&#x10c;" horiz-adv-x="860" 
d="M565 240h254q-22 -92 -76.5 -147t-123 -74t-162.5 -19q-412 0 -412 380t412 380q124 0 217 -61l-53 125h192v-304h-248q-11 77 -37.5 110.5t-70.5 33.5q-119 0 -119 -284t119 -284q44 0 70.5 33.5t37.5 110.5zM435 1004l240 76v-120l-240 -132l-236 132v120z" />
    <glyph glyph-name="ccaron" unicode="&#x10d;" horiz-adv-x="860" 
d="M565 240h254q-22 -92 -76.5 -147t-123 -74t-162.5 -19q-412 0 -412 380t412 380q124 0 217 -61l-53 125h192v-304h-248q-11 77 -37.5 110.5t-70.5 33.5q-119 0 -119 -284t119 -284q44 0 70.5 33.5t37.5 110.5zM435 1004l240 76v-120l-240 -132l-236 132v120z" />
    <glyph glyph-name="Eogonek" unicode="&#x118;" horiz-adv-x="711" 
d="M648 2l100 -23l-21 -183l-241 124l9 80h-428v760h581v-166l-317 71v-238l234 36v-166l-234 35v-237l317 71v-164z" />
    <glyph glyph-name="eogonek" unicode="&#x119;" horiz-adv-x="711" 
d="M648 2l100 -23l-21 -183l-241 124l9 80h-428v760h581v-166l-317 71v-238l234 36v-166l-234 35v-237l317 71v-164z" />
    <glyph glyph-name="Ecaron" unicode="&#x11a;" horiz-adv-x="696" 
d="M647 594l-316 71v-238l234 36v-166l-234 35v-237l316 71v-166h-580v760h580v-166zM355 1004l240 76v-120l-240 -132l-236 132v120z" />
    <glyph glyph-name="ecaron" unicode="&#x11b;" horiz-adv-x="696" 
d="M647 594l-316 71v-238l234 36v-166l-234 35v-237l316 71v-166h-580v760h580v-166zM355 1004l240 76v-120l-240 -132l-236 132v120z" />
    <glyph glyph-name="Lslash" unicode="&#x141;" horiz-adv-x="655" 
d="M361 95l266 85v-180h-530v283l-66 -21l-22 69l88 27v402h264v-318l224 70l22 -69l-246 -77v-271z" />
    <glyph glyph-name="lslash" unicode="&#x142;" horiz-adv-x="655" 
d="M361 95l266 85v-180h-530v283l-66 -21l-22 69l88 27v402h264v-318l224 70l22 -69l-246 -77v-271z" />
    <glyph glyph-name="Nacute" unicode="&#x143;" horiz-adv-x="801" 
d="M580 760h160v-760h-144l-376 400v-400h-160v760h232l288 -316v316zM488 856h-177l56 224h225z" />
    <glyph glyph-name="nacute" unicode="&#x144;" horiz-adv-x="801" 
d="M580 760h160v-760h-144l-376 400v-400h-160v760h232l288 -316v316zM488 856h-177l56 224h225z" />
    <glyph glyph-name="Sacute" unicode="&#x15a;" horiz-adv-x="766" 
d="M59 60v188l208 -132q71 -13 136 -8q84 6 84 64q0 13 -6 23.5t-21.5 20.5t-28 17t-40 15.5t-43 13t-49.5 14.5q-111 31 -154 57q-99 61 -99 203q0 95 89.5 159.5t250.5 64.5q35 0 68 -2.5t53.5 -4.5t53.5 -8.5t42 -8.5t47.5 -12.5t43.5 -11.5v-192l-188 128
q-60 20 -127 20q-33 0 -58 -5.5t-37.5 -14t-20 -19t-8.5 -18.5t0 -15q2 -8 7.5 -15t17 -13t22.5 -10t31 -9l36 -9t43.5 -9.5t46.5 -10.5q269 -63 260 -272q-2 -48 -19 -89.5t-53.5 -78.5t-103 -58.5t-156.5 -21.5q-101 0 -174.5 15t-153.5 45zM451 856h-177l56 224h225z" />
    <glyph glyph-name="sacute" unicode="&#x15b;" horiz-adv-x="766" 
d="M59 60v188l208 -132q71 -13 136 -8q84 6 84 64q0 13 -6 23.5t-21.5 20.5t-28 17t-40 15.5t-43 13t-49.5 14.5q-111 31 -154 57q-99 61 -99 203q0 95 89.5 159.5t250.5 64.5q35 0 68 -2.5t53.5 -4.5t53.5 -8.5t42 -8.5t47.5 -12.5t43.5 -11.5v-192l-188 128
q-60 20 -127 20q-33 0 -58 -5.5t-37.5 -14t-20 -19t-8.5 -18.5t0 -15q2 -8 7.5 -15t17 -13t22.5 -10t31 -9l36 -9t43.5 -9.5t46.5 -10.5q269 -63 260 -272q-2 -48 -19 -89.5t-53.5 -78.5t-103 -58.5t-156.5 -21.5q-101 0 -174.5 15t-153.5 45zM451 856h-177l56 224h225z" />
    <glyph glyph-name="Scaron" unicode="&#x160;" horiz-adv-x="766" 
d="M59 60v188l208 -132q71 -13 136 -8q84 6 84 64q0 13 -6 23.5t-21.5 20.5t-28 17t-40 15.5t-43 13t-49.5 14.5q-111 31 -154 57q-99 61 -99 203q0 95 89.5 159.5t250.5 64.5q35 0 68 -2.5t53.5 -4.5t53.5 -8.5t42 -8.5t47.5 -12.5t43.5 -11.5v-192l-188 128
q-60 20 -127 20q-33 0 -58 -5.5t-37.5 -14t-20 -19t-8.5 -18.5t0 -15q2 -8 7.5 -15t17 -13t22.5 -10t31 -9l36 -9t43.5 -9.5t46.5 -10.5q269 -63 260 -272q-2 -48 -19 -89.5t-53.5 -78.5t-103 -58.5t-156.5 -21.5q-101 0 -174.5 15t-153.5 45zM392 1004l240 76v-120
l-240 -132l-236 132v120z" />
    <glyph glyph-name="scaron" unicode="&#x161;" horiz-adv-x="766" 
d="M59 60v188l208 -132q71 -13 136 -8q84 6 84 64q0 13 -6 23.5t-21.5 20.5t-28 17t-40 15.5t-43 13t-49.5 14.5q-111 31 -154 57q-99 61 -99 203q0 95 89.5 159.5t250.5 64.5q35 0 68 -2.5t53.5 -4.5t53.5 -8.5t42 -8.5t47.5 -12.5t43.5 -11.5v-192l-188 128
q-60 20 -127 20q-33 0 -58 -5.5t-37.5 -14t-20 -19t-8.5 -18.5t0 -15q2 -8 7.5 -15t17 -13t22.5 -10t31 -9l36 -9t43.5 -9.5t46.5 -10.5q269 -63 260 -272q-2 -48 -19 -89.5t-53.5 -78.5t-103 -58.5t-156.5 -21.5q-101 0 -174.5 15t-153.5 45zM392 1004l240 76v-120
l-240 -132l-236 132v120z" />
    <glyph glyph-name="Ydieresis" unicode="&#x178;" horiz-adv-x="793" 
d="M764 760l-208 -380h96v-72h-116v-308h-264v308h-116v72h95l-211 380h264l99 -276l97 276h264zM328 856h-160v160h160v-160zM628 856h-160v160h160v-160z" />
    <glyph glyph-name="Zacute" unicode="&#x179;" horiz-adv-x="766" 
d="M392 109l329 57v-166h-672l329 652l-329 -58v166h671zM444 856h-177l56 224h226z" />
    <glyph glyph-name="zacute" unicode="&#x17a;" horiz-adv-x="766" 
d="M392 109l329 57v-166h-672l329 652l-329 -58v166h671zM444 856h-177l56 224h226z" />
    <glyph glyph-name="Zdotaccent" unicode="&#x17b;" horiz-adv-x="766" 
d="M392 109l329 57v-166h-672l174 344h-150v72h186l119 236l-329 -58v166h671l-174 -344h155v-72h-191z" />
    <glyph glyph-name="zdotaccent" unicode="&#x17c;" horiz-adv-x="766" 
d="M392 109l329 57v-166h-672l174 344h-150v72h186l119 236l-329 -58v166h671l-174 -344h155v-72h-191z" />
    <glyph glyph-name="Zcaron" unicode="&#x17d;" horiz-adv-x="766" 
d="M392 109l329 57v-166h-672l329 652l-329 -58v166h671zM377 1004l240 76v-120l-240 -132l-236 132v120z" />
    <glyph glyph-name="endash" unicode="&#x2013;" horiz-adv-x="703" 
d="M629 344h-560v72h560v-72z" />
    <glyph glyph-name="emdash" unicode="&#x2014;" horiz-adv-x="941" 
d="M868 344h-800v72h800v-72z" />
    <glyph glyph-name="quoteleft" unicode="&#x2018;" horiz-adv-x="328" 
d="M136 856h158l-58 -336h-200z" />
    <glyph glyph-name="quoteright" unicode="&#x2019;" horiz-adv-x="353" 
d="M199 520h-158l58 336h200z" />
    <glyph glyph-name="quotesinglbase" unicode="&#x201a;" horiz-adv-x="356" 
d="M203 -136h-158l58 336h200z" />
    <glyph glyph-name="quotedblleft" unicode="&#x201c;" horiz-adv-x="608" 
d="M397 856h158l-58 -336h-200zM141 856h158l-58 -336h-200z" />
    <glyph glyph-name="quotedblright" unicode="&#x201d;" horiz-adv-x="625" 
d="M215 520h-158l58 336h200zM471 520h-158l58 336h200z" />
    <glyph glyph-name="quotedblbase" unicode="&#x201e;" horiz-adv-x="674" 
d="M238 -136h-158l58 336h200zM494 -136h-158l58 336h200z" />
    <glyph glyph-name="guilsinglleft" unicode="&#x2039;" horiz-adv-x="329" 
d="M217 384l76 -240h-120l-132 240l132 236h120z" />
    <glyph glyph-name="guilsinglright" unicode="&#x203a;" horiz-adv-x="315" 
d="M102 380l-76 240h120l132 -240l-132 -236h-120z" />
    <glyph glyph-name="minus" unicode="&#x2212;" horiz-adv-x="703" 
d="M629 344h-560v72h560v-72z" />
    </font>
</defs>
</svg>
